0
SECTION
2
HEADER
9
$ACADVER
1
AC1003
9
$INSBASE
10
0.0
20
0.0
30
0.0
9
$EXTMIN
10
0.000
20
0.000
30
0.0
9
$EXTMAX
10
958.000
20
785.000
30
0.0
9
$LIMMIN
10
0.000
20
0.000
9
$LIMMAX
10
958.000
20
785.000
9
$LTSCALE
40
1.0
9
$LUNITS
70
2
9
$LUPREC
70
3
9
$LIMCHECK
70
0
9
$UCSNAME
2

9
$UCSORG
10
0.0
20
0.0
30
0.0
9
$UCSXDIR
10
1.0
20
0.0
30
0.0
9
$UCSYDIR
10
0.0
20
1.0
30
0.0
9
$WORLDVIEW
70
1
9
$UNITMODE
70
0
0
ENDSEC
0
SECTION
2
TABLES
0
TABLE
2
VPORT
70
1
0
VPORT
2
*ACTIVE
70
0
10
0.0
20
0.0
11
1.0
21
1.0
12
479.000
22
392.500
13
0.0
23
0.0
14
1.0
24
1.0
15
0.0
25
0.0
16
0.0
26
0.0
36
1.0
17
0.0
27
0.0
37
0.0
40
500.0
41
0.819
42
50.0
43
0.0
44
0.0
50
0.0
51
0.0
71
0
72
100
73
1
74
1
75
0
76
0
77
0
78
0
0
ENDTAB
0
TABLE
2
LTYPE
70
1
0
LTYPE
2
CONTINUOUS
70
64
3
Solid line
72
65
73
0
40
0.000
0
ENDTAB
0
TABLE
2
LAYER
70
1
0
LAYER
2
0
70
64
62
7
6
CONTINUOUS
0
ENDTAB
0
ENDSEC
0
SECTION
2
BLOCKS
0
ENDSEC
0
SECTION
2
ENTITIES
0
POLYLINE
8
0
6
CONTINUOUS
66
1
62
7
10
0.0
20
0.0
30
0.000000
0
VERTEX
8
0
10
420.000000
20
711.000000
0
VERTEX
8
0
10
417.000000
20
712.000000
0
SEQEND
0
POLYLINE
8
0
6
CONTINUOUS
66
1
62
7
10
0.0
20
0.0
30
0.000000
0
VERTEX
8
0
10
423.000000
20
711.000000
0
VERTEX
8
0
10
422.000000
20
712.000000
0
VERTEX
8
0
10
420.000000
20
711.000000
0
SEQEND
0
POLYLINE
8
0
6
CONTINUOUS
66
1
62
7
10
0.0
20
0.0
30
0.000000
0
VERTEX
8
0
10
539.000000
20
711.000000
0
VERTEX
8
0
10
541.000000
20
712.000000
0
SEQEND
0
POLYLINE
8
0
6
CONTINUOUS
66
1
62
7
10
0.0
20
0.0
30
0.000000
0
VERTEX
8
0
10
422.000000
20
710.000000
0
VERTEX
8
0
10
420.000000
20
711.000000
0
SEQEND
0
POLYLINE
8
0
6
CONTINUOUS
66
1
62
7
10
0.0
20
0.0
30
0.000000
0
VERTEX
8
0
10
422.000000
20
710.000000
0
VERTEX
8
0
10
423.000000
20
711.000000
0
SEQEND
0
POLYLINE
8
0
6
CONTINUOUS
66
1
62
7
10
0.0
20
0.0
30
0.000000
0
VERTEX
8
0
10
303.000000
20
686.000000
0
VERTEX
8
0
10
322.100000
20
691.700000
0
VERTEX
8
0
10
333.846154
20
696.230769
0
VERTEX
8
0
10
339.000000
20
700.000000
0
VERTEX
8
0
10
341.000000
20
705.000000
0
VERTEX
8
0
10
339.750000
20
707.750000
0
VERTEX
8
0
10
332.076923
20
706.615385
0
VERTEX
8
0
10
328.900000
20
705.200000
0
VERTEX
8
0
10
300.000000
20
689.000000
0
VERTEX
8
0
10
298.000000
20
687.000000
0
VERTEX
8
0
10
299.000000
20
686.000000
0
VERTEX
8
0
10
303.000000
20
686.000000
0
SEQEND
0
POLYLINE
8
0
6
CONTINUOUS
66
1
62
7
10
0.0
20
0.0
30
0.000000
0
VERTEX
8
0
10
289.000000
20
678.000000
0
VERTEX
8
0
10
290.846154
20
679.230769
0
VERTEX
8
0
10
295.000000
20
682.000000
0
VERTEX
8
0
10
295.000000
20
684.000000
0
VERTEX
8
0
10
294.000000
20
685.000000
0
VERTEX
8
0
10
291.900000
20
684.200000
0
VERTEX
8
0
10
291.100000
20
683.800000
0
VERTEX
8
0
10
288.000000
20
682.000000
0
VERTEX
8
0
10
288.000000
20
679.000000
0
VERTEX
8
0
10
289.000000
20
678.000000
0
SEQEND
0
POLYLINE
8
0
6
CONTINUOUS
66
1
62
7
10
0.0
20
0.0
30
0.000000
0
VERTEX
8
0
10
459.000000
20
675.000000
0
VERTEX
8
0
10
461.000000
20
676.000000
0
VERTEX
8
0
10
463.000000
20
678.000000
0
VERTEX
8
0
10
463.000000
20
679.000000
0
VERTEX
8
0
10
460.000000
20
682.000000
0
VERTEX
8
0
10
457.000000
20
682.000000
0
VERTEX
8
0
10
454.000000
20
680.000000
0
VERTEX
8
0
10
453.000000
20
678.000000
0
VERTEX
8
0
10
455.900000
20
675.800000
0
VERTEX
8
0
10
459.000000
20
675.000000
0
SEQEND
0
POLYLINE
8
0
6
CONTINUOUS
66
1
62
7
10
0.0
20
0.0
30
0.000000
0
VERTEX
8
0
10
504.000000
20
675.000000
0
VERTEX
8
0
10
506.000000
20
676.000000
0
VERTEX
8
0
10
508.000000
20
678.000000
0
VERTEX
8
0
10
506.000000
20
681.000000
0
VERTEX
8
0
10
501.000000
20
682.000000
0
VERTEX
8
0
10
498.000000
20
679.000000
0
VERTEX
8
0
10
498.000000
20
677.000000
0
VERTEX
8
0
10
500.900000
20
675.700000
0
VERTEX
8
0
10
504.000000
20
675.000000
0
SEQEND
0
POLYLINE
8
0
6
CONTINUOUS
66
1
62
7
10
0.0
20
0.0
30
0.000000
0
VERTEX
8
0
10
396.000000
20
674.000000
0
VERTEX
8
0
10
394.000000
20
674.000000
0
SEQEND
0
POLYLINE
8
0
6
CONTINUOUS
66
1
62
7
10
0.0
20
0.0
30
0.000000
0
VERTEX
8
0
10
430.000000
20
672.000000
0
VERTEX
8
0
10
433.000000
20
675.000000
0
VERTEX
8
0
10
430.000000
20
678.000000
0
VERTEX
8
0
10
428.000000
20
678.000000
0
VERTEX
8
0
10
426.000000
20
676.000000
0
VERTEX
8
0
10
426.000000
20
674.000000
0
VERTEX
8
0
10
430.000000
20
672.000000
0
SEQEND
0
POLYLINE
8
0
6
CONTINUOUS
66
1
62
7
10
0.0
20
0.0
30
0.000000
0
VERTEX
8
0
10
534.000000
20
672.000000
0
VERTEX
8
0
10
536.000000
20
673.000000
0
VERTEX
8
0
10
537.000000
20
674.000000
0
VERTEX
8
0
10
536.000000
20
676.000000
0
VERTEX
8
0
10
530.000000
20
678.000000
0
VERTEX
8
0
10
528.000000
20
676.000000
0
VERTEX
8
0
10
528.000000
20
675.000000
0
VERTEX
8
0
10
530.900000
20
672.800000
0
VERTEX
8
0
10
534.000000
20
672.000000
0
SEQEND
0
POLYLINE
8
0
6
CONTINUOUS
66
1
62
7
10
0.0
20
0.0
30
0.000000
0
VERTEX
8
0
10
444.000000
20
671.000000
0
VERTEX
8
0
10
442.000000
20
671.000000
0
SEQEND
0
POLYLINE
8
0
6
CONTINUOUS
66
1
62
7
10
0.0
20
0.0
30
0.000000
0
VERTEX
8
0
10
415.000000
20
668.000000
0
VERTEX
8
0
10
417.000000
20
669.000000
0
VERTEX
8
0
10
419.000000
20
671.000000
0
VERTEX
8
0
10
419.000000
20
672.000000
0
VERTEX
8
0
10
416.000000
20
675.000000
0
VERTEX
8
0
10
413.000000
20
675.000000
0
VERTEX
8
0
10
409.000000
20
672.000000
0
VERTEX
8
0
10
410.000000
20
670.000000
0
VERTEX
8
0
10
411.900000
20
668.800000
0
VERTEX
8
0
10
415.000000
20
668.000000
0
SEQEND
0
POLYLINE
8
0
6
CONTINUOUS
66
1
62
7
10
0.0
20
0.0
30
0.000000
0
VERTEX
8
0
10
548.000000
20
668.000000
0
VERTEX
8
0
10
550.000000
20
669.000000
0
VERTEX
8
0
10
552.000000
20
672.000000
0
VERTEX
8
0
10
548.000000
20
675.000000
0
VERTEX
8
0
10
545.000000
20
675.000000
0
VERTEX
8
0
10
542.000000
20
673.000000
0
VERTEX
8
0
10
542.000000
20
671.000000
0
VERTEX
8
0
10
544.000000
20
669.000000
0
VERTEX
8
0
10
546.100000
20
668.300000
0
VERTEX
8
0
10
548.000000
20
668.000000
0
SEQEND
0
POLYLINE
8
0
6
CONTINUOUS
66
1
62
7
10
0.0
20
0.0
30
0.000000
0
VERTEX
8
0
10
561.000000
20
665.000000
0
VERTEX
8
0
10
566.000000
20
668.000000
0
VERTEX
8
0
10
565.000000
20
670.000000
0
VERTEX
8
0
10
562.000000
20
672.000000
0
VERTEX
8
0
10
559.000000
20
672.000000
0
VERTEX
8
0
10
556.000000
20
670.000000
0
VERTEX
8
0
10
555.800000
20
669.100000
0
VERTEX
8
0
10
555.000000
20
668.000000
0
VERTEX
8
0
10
557.000000
20
666.000000
0
VERTEX
8
0
10
559.100000
20
665.300000
0
VERTEX
8
0
10
561.000000
20
665.000000
0
SEQEND
0
POLYLINE
8
0
6
CONTINUOUS
66
1
62
7
10
0.0
20
0.0
30
0.000000
0
VERTEX
8
0
10
396.000000
20
674.000000
0
VERTEX
8
0
10
397.100000
20
673.200000
0
VERTEX
8
0
10
402.000000
20
672.000000
0
VERTEX
8
0
10
405.000000
20
669.000000
0
VERTEX
8
0
10
405.000000
20
668.000000
0
VERTEX
8
0
10
403.000000
20
666.000000
0
VERTEX
8
0
10
399.000000
20
665.000000
0
VERTEX
8
0
10
397.900000
20
665.800000
0
VERTEX
8
0
10
392.000000
20
672.000000
0
VERTEX
8
0
10
388.000000
20
672.000000
0
VERTEX
8
0
10
386.000000
20
670.000000
0
VERTEX
8
0
10
389.200000
20
664.100000
0
VERTEX
8
0
10
390.000000
20
662.000000
0
VERTEX
8
0
10
389.000000
20
661.000000
0
VERTEX
8
0
10
391.000000
20
659.000000
0
VERTEX
8
0
10
393.000000
20
659.000000
0
VERTEX
8
0
10
440.911765
20
670.352941
0
VERTEX
8
0
10
442.000000
20
671.000000
0
SEQEND
0
POLYLINE
8
0
6
CONTINUOUS
66
1
62
7
10
0.0
20
0.0
30
0.000000
0
VERTEX
8
0
10
442.000000
20
671.000000
0
VERTEX
8
0
10
441.800000
20
671.900000
0
VERTEX
8
0
10
440.000000
20
675.000000
0
VERTEX
8
0
10
440.000000
20
678.000000
0
VERTEX
8
0
10
443.000000
20
681.000000
0
VERTEX
8
0
10
445.100000
20
680.200000
0
VERTEX
8
0
10
447.000000
20
679.000000
0
VERTEX
8
0
10
447.000000
20
676.000000
0
VERTEX
8
0
10
449.000000
20
674.000000
0
VERTEX
8
0
10
451.911765
20
673.647059
0
VERTEX
8
0
10
468.010407
20
672.489140
0
VERTEX
8
0
10
514.750000
20
672.250000
0
VERTEX
8
0
10
515.405405
20
677.932432
0
VERTEX
8
0
10
516.000000
20
680.000000
0
VERTEX
8
0
10
518.000000
20
682.000000
0
VERTEX
8
0
10
521.000000
20
680.000000
0
VERTEX
8
0
10
521.000000
20
676.000000
0
VERTEX
8
0
10
517.000000
20
670.000000
0
VERTEX
8
0
10
521.076923
20
668.384615
0
VERTEX
8
0
10
543.067568
20
664.405405
0
VERTEX
8
0
10
570.000000
20
658.000000
0
VERTEX
8
0
10
571.000000
20
659.000000
0
VERTEX
8
0
10
572.000000
20
663.500000
0
VERTEX
8
0
10
576.000000
20
669.000000
0
VERTEX
8
0
10
571.100000
20
672.200000
0
VERTEX
8
0
10
567.088235
20
673.352941
0
VERTEX
8
0
10
532.923077
20
681.615385
0
VERTEX
8
0
10
511.000000
20
685.000000
0
VERTEX
8
0
10
495.000000
20
685.000000
0
VERTEX
8
0
10
493.000000
20
684.000000
0
VERTEX
8
0
10
491.000000
20
678.000000
0
VERTEX
8
0
10
490.000000
20
677.000000
0
VERTEX
8
0
10
484.250000
20
676.250000
0
VERTEX
8
0
10
484.000000
20
677.000000
0
VERTEX
8
0
10
485.000000
20
683.000000
0
VERTEX
8
0
10
483.000000
20
685.000000
0
VERTEX
8
0
10
479.000000
20
684.000000
0
VERTEX
8
0
10
476.200000
20
677.900000
0
VERTEX
8
0
10
474.000000
20
675.000000
0
VERTEX
8
0
10
473.000000
20
675.000000
0
VERTEX
8
0
10
470.000000
20
678.000000
0
VERTEX
8
0
10
469.200000
20
681.100000
0
VERTEX
8
0
10
467.000000
20
684.000000
0
VERTEX
8
0
10
462.067568
20
684.405405
0
VERTEX
8
0
10
461.000000
20
685.000000
0
VERTEX
8
0
10
448.000000
20
685.000000
0
VERTEX
8
0
10
416.076923
20
678.615385
0
VERTEX
8
0
10
396.000000
20
674.000000
0
SEQEND
0
POLYLINE
8
0
6
CONTINUOUS
66
1
62
7
10
0.0
20
0.0
30
0.000000
0
VERTEX
8
0
10
386.000000
20
655.000000
0
VERTEX
8
0
10
386.000000
20
656.000000
0
VERTEX
8
0
10
385.000000
20
658.000000
0
VERTEX
8
0
10
384.000000
20
658.000000
0
VERTEX
8
0
10
382.352941
20
661.088235
0
VERTEX
8
0
10
381.647059
20
663.911765
0
VERTEX
8
0
10
380.000000
20
668.000000
0
VERTEX
8
0
10
378.000000
20
668.000000
0
VERTEX
8
0
10
372.100000
20
664.800000
0
VERTEX
8
0
10
369.000000
20
663.000000
0
VERTEX
8
0
10
381.900000
20
655.700000
0
VERTEX
8
0
10
386.000000
20
655.000000
0
SEQEND
0
POLYLINE
8
0
6
CONTINUOUS
66
1
62
7
10
0.0
20
0.0
30
0.000000
0
VERTEX
8
0
10
590.000000
20
655.000000
0
VERTEX
8
0
10
593.000000
20
658.000000
0
VERTEX
8
0
10
590.000000
20
661.000000
0
VERTEX
8
0
10
588.000000
20
661.000000
0
VERTEX
8
0
10
586.000000
20
659.000000
0
VERTEX
8
0
10
586.000000
20
657.000000
0
VERTEX
8
0
10
590.000000
20
655.000000
0
SEQEND
0
POLYLINE
8
0
6
CONTINUOUS
66
1
62
7
10
0.0
20
0.0
30
0.000000
0
VERTEX
8
0
10
369.000000
20
648.000000
0
VERTEX
8
0
10
372.900000
20
650.200000
0
VERTEX
8
0
10
377.000000
20
653.000000
0
VERTEX
8
0
10
377.000000
20
654.000000
0
VERTEX
8
0
10
376.000000
20
655.000000
0
VERTEX
8
0
10
371.900000
20
655.700000
0
VERTEX
8
0
10
365.000000
20
661.000000
0
VERTEX
8
0
10
362.000000
20
661.000000
0
VERTEX
8
0
10
360.000000
20
659.000000
0
VERTEX
8
0
10
365.000000
20
651.000000
0
VERTEX
8
0
10
368.000000
20
648.000000
0
VERTEX
8
0
10
369.000000
20
648.000000
0
SEQEND
0
POLYLINE
8
0
6
CONTINUOUS
66
1
62
7
10
0.0
20
0.0
30
0.000000
0
VERTEX
8
0
10
595.000000
20
648.000000
0
VERTEX
8
0
10
597.000000
20
649.000000
0
VERTEX
8
0
10
601.000000
20
654.000000
0
VERTEX
8
0
10
600.000000
20
660.000000
0
VERTEX
8
0
10
593.100000
20
664.200000
0
VERTEX
8
0
10
582.000000
20
668.000000
0
VERTEX
8
0
10
580.000000
20
666.000000
0
VERTEX
8
0
10
578.200000
20
660.900000
0
VERTEX
8
0
10
578.000000
20
660.000000
0
VERTEX
8
0
10
574.000000
20
657.000000
0
VERTEX
8
0
10
575.000000
20
656.000000
0
VERTEX
8
0
10
589.100000
20
650.200000
0
VERTEX
8
0
10
595.000000
20
648.000000
0
SEQEND
0
POLYLINE
8
0
6
CONTINUOUS
66
1
62
7
10
0.0
20
0.0
30
0.000000
0
VERTEX
8
0
10
355.000000
20
641.000000
0
VERTEX
8
0
10
358.900000
20
643.200000
0
VERTEX
8
0
10
363.000000
20
646.000000
0
VERTEX
8
0
10
363.000000
20
647.000000
0
VERTEX
8
0
10
357.000000
20
649.000000
0
VERTEX
8
0
10
355.000000
20
657.000000
0
VERTEX
8
0
10
348.000000
20
656.000000
0
VERTEX
8
0
10
346.000000
20
654.000000
0
VERTEX
8
0
10
349.240000
20
648.180000
0
VERTEX
8
0
10
355.000000
20
641.000000
0
SEQEND
0
POLYLINE
8
0
6
CONTINUOUS
66
1
62
7
10
0.0
20
0.0
30
0.000000
0
VERTEX
8
0
10
611.000000
20
641.000000
0
VERTEX
8
0
10
612.000000
20
642.000000
0
VERTEX
8
0
10
611.000000
20
647.000000
0
VERTEX
8
0
10
613.760000
20
650.180000
0
VERTEX
8
0
10
614.200000
20
653.100000
0
VERTEX
8
0
10
614.000000
20
654.000000
0
VERTEX
8
0
10
610.100000
20
656.200000
0
VERTEX
8
0
10
608.900000
20
656.800000
0
VERTEX
8
0
10
606.000000
20
658.000000
0
VERTEX
8
0
10
605.000000
20
657.000000
0
VERTEX
8
0
10
605.000000
20
650.000000
0
VERTEX
8
0
10
603.000000
20
648.000000
0
VERTEX
8
0
10
602.000000
20
648.000000
0
VERTEX
8
0
10
601.000000
20
646.000000
0
VERTEX
8
0
10
603.900000
20
643.800000
0
VERTEX
8
0
10
611.000000
20
641.000000
0
SEQEND
0
POLYLINE
8
0
6
CONTINUOUS
66
1
62
7
10
0.0
20
0.0
30
0.000000
0
VERTEX
8
0
10
351.000000
20
640.000000
0
VERTEX
8
0
10
350.000000
20
640.000000
0
SEQEND
0
POLYLINE
8
0
6
CONTINUOUS
66
1
62
7
10
0.0
20
0.0
30
0.000000
0
VERTEX
8
0
10
350.000000
20
640.000000
0
VERTEX
8
0
10
342.250000
20
642.250000
0
VERTEX
8
0
10
342.000000
20
643.000000
0
VERTEX
8
0
10
343.000000
20
650.000000
0
VERTEX
8
0
10
342.000000
20
651.000000
0
VERTEX
8
0
10
336.100000
20
647.800000
0
VERTEX
8
0
10
329.000000
20
643.000000
0
VERTEX
8
0
10
331.000000
20
641.000000
0
VERTEX
8
0
10
335.100000
20
640.200000
0
VERTEX
8
0
10
338.000000
20
638.000000
0
VERTEX
8
0
10
338.000000
20
636.000000
0
VERTEX
8
0
10
340.000000
20
634.000000
0
VERTEX
8
0
10
341.900000
20
635.200000
0
VERTEX
8
0
10
350.000000
20
640.000000
0
SEQEND
0
POLYLINE
8
0
6
CONTINUOUS
66
1
62
7
10
0.0
20
0.0
30
0.000000
0
VERTEX
8
0
10
621.000000
20
634.000000
0
VERTEX
8
0
10
623.000000
20
638.000000
0
VERTEX
8
0
10
625.900000
20
640.200000
0
VERTEX
8
0
10
627.088235
20
640.647059
0
VERTEX
8
0
10
630.000000
20
641.000000
0
VERTEX
8
0
10
632.000000
20
643.000000
0
VERTEX
8
0
10
628.000000
20
647.000000
0
VERTEX
8
0
10
625.900000
20
647.800000
0
VERTEX
8
0
10
623.900000
20
648.800000
0
VERTEX
8
0
10
619.000000
20
651.000000
0
VERTEX
8
0
10
618.000000
20
650.000000
0
VERTEX
8
0
10
618.000000
20
648.000000
0
VERTEX
8
0
10
619.000000
20
647.000000
0
VERTEX
8
0
10
619.000000
20
643.000000
0
VERTEX
8
0
10
615.000000
20
640.000000
0
VERTEX
8
0
10
615.000000
20
638.000000
0
VERTEX
8
0
10
620.153846
20
634.230769
0
VERTEX
8
0
10
621.000000
20
634.000000
0
SEQEND
0
POLYLINE
8
0
6
CONTINUOUS
66
1
62
7
10
0.0
20
0.0
30
0.000000
0
VERTEX
8
0
10
230.000000
20
629.000000
0
VERTEX
8
0
10
229.000000
20
630.000000
0
SEQEND
0
POLYLINE
8
0
6
CONTINUOUS
66
1
62
7
10
0.0
20
0.0
30
0.000000
0
VERTEX
8
0
10
230.000000
20
629.000000
0
VERTEX
8
0
10
236.900000
20
631.300000
0
VERTEX
8
0
10
242.000000
20
633.000000
0
VERTEX
8
0
10
251.000000
20
633.000000
0
VERTEX
8
0
10
252.000000
20
632.000000
0
VERTEX
8
0
10
254.000000
20
632.000000
0
VERTEX
8
0
10
255.000000
20
634.000000
0
VERTEX
8
0
10
249.000000
20
641.000000
0
VERTEX
8
0
10
248.000000
20
641.000000
0
VERTEX
8
0
10
246.000000
20
643.000000
0
VERTEX
8
0
10
267.000000
20
648.000000
0
VERTEX
8
0
10
269.000000
20
650.000000
0
VERTEX
8
0
10
282.800000
20
672.100000
0
VERTEX
8
0
10
284.200000
20
674.900000
0
VERTEX
8
0
10
284.750000
20
677.750000
0
VERTEX
8
0
10
284.000000
20
678.000000
0
VERTEX
8
0
10
280.846154
20
676.230769
0
VERTEX
8
0
10
260.216814
20
659.752212
0
VERTEX
8
0
10
252.220690
20
652.751724
0
VERTEX
8
0
10
230.000000
20
633.000000
0
VERTEX
8
0
10
229.000000
20
630.000000
0
SEQEND
0
POLYLINE
8
0
6
CONTINUOUS
66
1
62
7
10
0.0
20
0.0
30
0.000000
0
VERTEX
8
0
10
229.000000
20
630.000000
0
VERTEX
8
0
10
228.000000
20
629.000000
0
VERTEX
8
0
10
229.000000
20
628.000000
0
VERTEX
8
0
10
230.000000
20
629.000000
0
SEQEND
0
POLYLINE
8
0
6
CONTINUOUS
66
1
62
7
10
0.0
20
0.0
30
0.000000
0
VERTEX
8
0
10
326.000000
20
625.000000
0
VERTEX
8
0
10
337.000000
20
631.000000
0
VERTEX
8
0
10
333.000000
20
635.000000
0
VERTEX
8
0
10
324.000000
20
640.500000
0
VERTEX
8
0
10
322.900000
20
640.200000
0
VERTEX
8
0
10
319.000000
20
637.000000
0
VERTEX
8
0
10
319.000000
20
635.000000
0
VERTEX
8
0
10
323.000000
20
632.000000
0
VERTEX
8
0
10
326.000000
20
625.000000
0
SEQEND
0
POLYLINE
8
0
6
CONTINUOUS
66
1
62
7
10
0.0
20
0.0
30
0.000000
0
VERTEX
8
0
10
638.000000
20
624.000000
0
VERTEX
8
0
10
639.000000
20
625.000000
0
VERTEX
8
0
10
638.000000
20
632.000000
0
VERTEX
8
0
10
640.000000
20
634.000000
0
VERTEX
8
0
10
642.000000
20
634.000000
0
VERTEX
8
0
10
643.000000
20
636.000000
0
VERTEX
8
0
10
638.100000
20
640.200000
0
VERTEX
8
0
10
637.000000
20
641.000000
0
VERTEX
8
0
10
632.000000
20
635.000000
0
VERTEX
8
0
10
628.911765
20
634.352941
0
VERTEX
8
0
10
626.000000
20
634.000000
0
VERTEX
8
0
10
625.000000
20
632.000000
0
VERTEX
8
0
10
634.900000
20
625.800000
0
VERTEX
8
0
10
638.000000
20
624.000000
0
SEQEND
0
POLYLINE
8
0
6
CONTINUOUS
66
1
62
7
10
0.0
20
0.0
30
0.000000
0
VERTEX
8
0
10
317.000000
20
620.000000
0
VERTEX
8
0
10
322.000000
20
622.000000
0
VERTEX
8
0
10
323.000000
20
623.000000
0
VERTEX
8
0
10
322.000000
20
624.000000
0
VERTEX
8
0
10
320.000000
20
624.000000
0
VERTEX
8
0
10
317.000000
20
627.000000
0
VERTEX
8
0
10
317.000000
20
630.000000
0
VERTEX
8
0
10
315.000000
20
632.000000
0
VERTEX
8
0
10
312.000000
20
632.000000
0
VERTEX
8
0
10
309.000000
20
629.000000
0
VERTEX
8
0
10
311.000000
20
624.000000
0
VERTEX
8
0
10
315.000000
20
620.000000
0
VERTEX
8
0
10
317.000000
20
620.000000
0
SEQEND
0
POLYLINE
8
0
6
CONTINUOUS
66
1
62
7
10
0.0
20
0.0
30
0.000000
0
VERTEX
8
0
10
645.000000
20
619.000000
0
VERTEX
8
0
10
650.800000
20
626.100000
0
VERTEX
8
0
10
651.200000
20
626.900000
0
VERTEX
8
0
10
652.000000
20
628.000000
0
VERTEX
8
0
10
652.000000
20
631.000000
0
VERTEX
8
0
10
649.100000
20
633.200000
0
VERTEX
8
0
10
648.000000
20
634.000000
0
VERTEX
8
0
10
646.000000
20
634.000000
0
VERTEX
8
0
10
645.000000
20
633.000000
0
VERTEX
8
0
10
645.000000
20
630.000000
0
VERTEX
8
0
10
646.000000
20
629.000000
0
VERTEX
8
0
10
642.000000
20
623.000000
0
VERTEX
8
0
10
642.000000
20
622.000000
0
VERTEX
8
0
10
645.000000
20
619.000000
0
SEQEND
0
POLYLINE
8
0
6
CONTINUOUS
66
1
62
7
10
0.0
20
0.0
30
0.000000
0
VERTEX
8
0
10
308.000000
20
610.000000
0
VERTEX
8
0
10
312.000000
20
614.000000
0
VERTEX
8
0
10
312.000000
20
615.000000
0
VERTEX
8
0
10
310.000000
20
617.000000
0
VERTEX
8
0
10
306.900000
20
617.700000
0
VERTEX
8
0
10
305.307692
20
618.461538
0
VERTEX
8
0
10
301.000000
20
622.000000
0
VERTEX
8
0
10
298.000000
20
622.000000
0
VERTEX
8
0
10
295.000000
20
619.000000
0
VERTEX
8
0
10
300.000000
20
614.000000
0
VERTEX
8
0
10
308.000000
20
610.000000
0
SEQEND
0
POLYLINE
8
0
6
CONTINUOUS
66
1
62
7
10
0.0
20
0.0
30
0.000000
0
VERTEX
8
0
10
658.000000
20
609.000000
0
VERTEX
8
0
10
661.000000
20
615.000000
0
VERTEX
8
0
10
662.900000
20
616.200000
0
VERTEX
8
0
10
665.000000
20
617.000000
0
VERTEX
8
0
10
666.000000
20
618.000000
0
VERTEX
8
0
10
666.000000
20
620.000000
0
VERTEX
8
0
10
662.100000
20
623.200000
0
VERTEX
8
0
10
661.000000
20
624.000000
0
VERTEX
8
0
10
656.000000
20
618.000000
0
VERTEX
8
0
10
652.911765
20
617.352941
0
VERTEX
8
0
10
650.000000
20
617.000000
0
VERTEX
8
0
10
649.000000
20
616.000000
0
VERTEX
8
0
10
650.000000
20
614.000000
0
VERTEX
8
0
10
658.000000
20
609.000000
0
SEQEND
0
POLYLINE
8
0
6
CONTINUOUS
66
1
62
7
10
0.0
20
0.0
30
0.000000
0
VERTEX
8
0
10
292.000000
20
598.000000
0
VERTEX
8
0
10
294.000000
20
599.000000
0
VERTEX
8
0
10
297.230769
20
602.846154
0
VERTEX
8
0
10
299.000000
20
605.000000
0
VERTEX
8
0
10
296.000000
20
608.000000
0
VERTEX
8
0
10
295.000000
20
608.000000
0
VERTEX
8
0
10
293.352941
20
611.088235
0
VERTEX
8
0
10
293.000000
20
614.000000
0
VERTEX
8
0
10
291.000000
20
616.000000
0
VERTEX
8
0
10
289.000000
20
615.000000
0
VERTEX
8
0
10
285.000000
20
610.000000
0
VERTEX
8
0
10
285.000000
20
608.000000
0
VERTEX
8
0
10
289.000000
20
605.000000
0
VERTEX
8
0
10
289.300000
20
603.100000
0
VERTEX
8
0
10
291.000000
20
598.000000
0
VERTEX
8
0
10
292.000000
20
598.000000
0
SEQEND
0
POLYLINE
8
0
6
CONTINUOUS
66
1
62
7
10
0.0
20
0.0
30
0.000000
0
VERTEX
8
0
10
669.000000
20
598.000000
0
VERTEX
8
0
10
670.200000
20
599.900000
0
VERTEX
8
0
10
673.000000
20
606.000000
0
VERTEX
8
0
10
674.000000
20
606.000000
0
VERTEX
8
0
10
676.000000
20
608.000000
0
VERTEX
8
0
10
676.000000
20
610.000000
0
VERTEX
8
0
10
673.000000
20
612.000000
0
VERTEX
8
0
10
668.000000
20
610.000000
0
VERTEX
8
0
10
663.000000
20
605.000000
0
VERTEX
8
0
10
663.000000
20
604.000000
0
VERTEX
8
0
10
668.000000
20
598.000000
0
VERTEX
8
0
10
669.000000
20
598.000000
0
SEQEND
0
POLYLINE
8
0
6
CONTINUOUS
66
1
62
7
10
0.0
20
0.0
30
0.000000
0
VERTEX
8
0
10
704.000000
20
597.000000
0
VERTEX
8
0
10
704.000000
20
598.000000
0
VERTEX
8
0
10
701.200000
20
605.100000
0
VERTEX
8
0
10
693.000000
20
617.000000
0
VERTEX
8
0
10
685.211765
20
624.247059
0
VERTEX
8
0
10
673.000000
20
635.000000
0
VERTEX
8
0
10
672.000000
20
638.000000
0
VERTEX
8
0
10
674.000000
20
640.000000
0
VERTEX
8
0
10
682.000000
20
640.000000
0
VERTEX
8
0
10
683.088235
20
639.352941
0
VERTEX
8
0
10
686.750000
20
639.250000
0
VERTEX
8
0
10
687.000000
20
641.000000
0
VERTEX
8
0
10
672.000000
20
647.000000
0
VERTEX
8
0
10
671.000000
20
649.000000
0
VERTEX
8
0
10
671.000000
20
651.000000
0
VERTEX
8
0
10
674.000000
20
654.000000
0
VERTEX
8
0
10
676.100000
20
654.800000
0
VERTEX
8
0
10
680.000000
20
658.000000
0
VERTEX
8
0
10
675.000000
20
665.000000
0
VERTEX
8
0
10
669.180000
20
670.240000
0
VERTEX
8
0
10
661.000000
20
674.000000
0
VERTEX
8
0
10
655.000000
20
674.000000
0
VERTEX
8
0
10
649.900000
20
672.200000
0
VERTEX
8
0
10
644.000000
20
668.000000
0
VERTEX
8
0
10
645.000000
20
666.000000
0
VERTEX
8
0
10
653.000000
20
670.000000
0
VERTEX
8
0
10
659.000000
20
670.000000
0
VERTEX
8
0
10
661.000000
20
669.000000
0
VERTEX
8
0
10
664.000000
20
664.000000
0
VERTEX
8
0
10
663.000000
20
656.000000
0
VERTEX
8
0
10
660.000000
20
653.000000
0
VERTEX
8
0
10
653.000000
20
652.000000
0
VERTEX
8
0
10
647.100000
20
654.200000
0
VERTEX
8
0
10
645.100000
20
655.200000
0
VERTEX
8
0
10
642.000000
20
657.000000
0
VERTEX
8
0
10
641.800000
20
657.900000
0
VERTEX
8
0
10
638.000000
20
667.000000
0
VERTEX
8
0
10
638.000000
20
671.000000
0
VERTEX
8
0
10
639.200000
20
672.900000
0
VERTEX
8
0
10
639.800000
20
674.100000
0
VERTEX
8
0
10
642.000000
20
680.000000
0
VERTEX
8
0
10
640.000000
20
682.000000
0
VERTEX
8
0
10
636.000000
20
682.000000
0
VERTEX
8
0
10
630.100000
20
679.800000
0
VERTEX
8
0
10
628.900000
20
679.200000
0
VERTEX
8
0
10
624.000000
20
675.000000
0
VERTEX
8
0
10
621.230769
20
669.846154
0
VERTEX
8
0
10
619.000000
20
667.000000
0
VERTEX
8
0
10
615.900000
20
667.800000
0
VERTEX
8
0
10
615.000000
20
668.000000
0
VERTEX
8
0
10
612.000000
20
675.000000
0
VERTEX
8
0
10
611.000000
20
676.000000
0
VERTEX
8
0
10
585.932432
20
680.594595
0
VERTEX
8
0
10
578.100000
20
682.300000
0
VERTEX
8
0
10
563.100000
20
691.200000
0
VERTEX
8
0
10
561.100000
20
692.200000
0
VERTEX
8
0
10
551.088235
20
696.352941
0
VERTEX
8
0
10
549.932432
20
696.594595
0
VERTEX
8
0
10
529.000000
20
699.000000
0
VERTEX
8
0
10
527.000000
20
701.000000
0
VERTEX
8
0
10
528.000000
20
703.000000
0
VERTEX
8
0
10
539.000000
20
711.000000
0
SEQEND
0
POLYLINE
8
0
6
CONTINUOUS
66
1
62
7
10
0.0
20
0.0
30
0.000000
0
VERTEX
8
0
10
705.000000
20
595.000000
0
VERTEX
8
0
10
704.000000
20
597.000000
0
SEQEND
0
POLYLINE
8
0
6
CONTINUOUS
66
1
62
7
10
0.0
20
0.0
30
0.000000
0
VERTEX
8
0
10
283.000000
20
589.000000
0
VERTEX
8
0
10
286.000000
20
591.000000
0
VERTEX
8
0
10
286.230769
20
591.846154
0
VERTEX
8
0
10
288.000000
20
594.000000
0
VERTEX
8
0
10
283.000000
20
599.000000
0
VERTEX
8
0
10
279.000000
20
601.000000
0
VERTEX
8
0
10
275.900000
20
600.200000
0
VERTEX
8
0
10
275.000000
20
600.000000
0
VERTEX
8
0
10
274.000000
20
599.000000
0
VERTEX
8
0
10
277.000000
20
596.000000
0
VERTEX
8
0
10
278.000000
20
596.000000
0
VERTEX
8
0
10
279.300000
20
593.100000
0
VERTEX
8
0
10
281.000000
20
589.000000
0
VERTEX
8
0
10
283.000000
20
589.000000
0
SEQEND
0
POLYLINE
8
0
6
CONTINUOUS
66
1
62
7
10
0.0
20
0.0
30
0.000000
0
VERTEX
8
0
10
679.000000
20
589.000000
0
VERTEX
8
0
10
679.800000
20
590.100000
0
VERTEX
8
0
10
686.000000
20
599.000000
0
VERTEX
8
0
10
684.000000
20
601.000000
0
VERTEX
8
0
10
678.000000
20
599.000000
0
VERTEX
8
0
10
674.000000
20
595.000000
0
VERTEX
8
0
10
674.000000
20
594.000000
0
VERTEX
8
0
10
677.000000
20
590.000000
0
VERTEX
8
0
10
679.000000
20
589.000000
0
SEQEND
0
POLYLINE
8
0
6
CONTINUOUS
66
1
62
7
10
0.0
20
0.0
30
0.000000
0
VERTEX
8
0
10
710.000000
20
587.000000
0
VERTEX
8
0
10
709.000000
20
588.000000
0
SEQEND
0
POLYLINE
8
0
6
CONTINUOUS
66
1
62
7
10
0.0
20
0.0
30
0.000000
0
VERTEX
8
0
10
710.000000
20
586.000000
0
VERTEX
8
0
10
710.000000
20
587.000000
0
SEQEND
0
POLYLINE
8
0
6
CONTINUOUS
66
1
62
7
10
0.0
20
0.0
30
0.000000
0
VERTEX
8
0
10
272.000000
20
578.000000
0
VERTEX
8
0
10
276.000000
20
581.000000
0
VERTEX
8
0
10
276.230769
20
581.846154
0
VERTEX
8
0
10
278.000000
20
584.000000
0
VERTEX
8
0
10
273.000000
20
589.000000
0
VERTEX
8
0
10
269.000000
20
591.000000
0
VERTEX
8
0
10
266.000000
20
591.000000
0
VERTEX
8
0
10
264.000000
20
589.000000
0
VERTEX
8
0
10
264.000000
20
588.000000
0
VERTEX
8
0
10
266.000000
20
586.000000
0
VERTEX
8
0
10
267.000000
20
586.000000
0
VERTEX
8
0
10
268.300000
20
583.100000
0
VERTEX
8
0
10
270.000000
20
578.000000
0
VERTEX
8
0
10
272.000000
20
578.000000
0
SEQEND
0
POLYLINE
8
0
6
CONTINUOUS
66
1
62
7
10
0.0
20
0.0
30
0.000000
0
VERTEX
8
0
10
689.000000
20
578.000000
0
VERTEX
8
0
10
694.200000
20
583.900000
0
VERTEX
8
0
10
695.647059
20
587.088235
0
VERTEX
8
0
10
696.000000
20
590.000000
0
VERTEX
8
0
10
695.000000
20
591.000000
0
VERTEX
8
0
10
690.100000
20
589.800000
0
VERTEX
8
0
10
688.900000
20
589.200000
0
VERTEX
8
0
10
684.000000
20
585.000000
0
VERTEX
8
0
10
685.000000
20
581.000000
0
VERTEX
8
0
10
689.000000
20
578.000000
0
SEQEND
0
POLYLINE
8
0
6
CONTINUOUS
66
1
62
7
10
0.0
20
0.0
30
0.000000
0
VERTEX
8
0
10
264.000000
20
569.000000
0
VERTEX
8
0
10
267.000000
20
571.000000
0
VERTEX
8
0
10
264.800000
20
575.900000
0
VERTEX
8
0
10
264.000000
20
578.000000
0
VERTEX
8
0
10
259.100000
20
580.300000
0
VERTEX
8
0
10
258.000000
20
581.000000
0
VERTEX
8
0
10
257.000000
20
581.000000
0
VERTEX
8
0
10
255.000000
20
579.000000
0
VERTEX
8
0
10
255.000000
20
574.000000
0
VERTEX
8
0
10
259.000000
20
570.000000
0
VERTEX
8
0
10
262.100000
20
569.300000
0
VERTEX
8
0
10
264.000000
20
569.000000
0
SEQEND
0
POLYLINE
8
0
6
CONTINUOUS
66
1
62
7
10
0.0
20
0.0
30
0.000000
0
VERTEX
8
0
10
181.000000
20
560.000000
0
VERTEX
8
0
10
189.000000
20
566.000000
0
VERTEX
8
0
10
199.240000
20
577.820000
0
VERTEX
8
0
10
203.200000
20
583.900000
0
VERTEX
8
0
10
209.000000
20
597.000000
0
VERTEX
8
0
10
211.000000
20
598.000000
0
VERTEX
8
0
10
213.100000
20
597.200000
0
VERTEX
8
0
10
214.000000
20
597.000000
0
VERTEX
8
0
10
217.200000
20
592.100000
0
VERTEX
8
0
10
219.000000
20
585.000000
0
VERTEX
8
0
10
220.900000
20
583.800000
0
VERTEX
8
0
10
222.000000
20
583.000000
0
VERTEX
8
0
10
224.000000
20
585.000000
0
VERTEX
8
0
10
225.700000
20
593.100000
0
VERTEX
8
0
10
226.000000
20
595.000000
0
VERTEX
8
0
10
229.000000
20
598.000000
0
VERTEX
8
0
10
232.000000
20
598.000000
0
VERTEX
8
0
10
233.000000
20
596.000000
0
VERTEX
8
0
10
237.000000
20
592.000000
0
VERTEX
8
0
10
243.100000
20
593.800000
0
VERTEX
8
0
10
250.000000
20
599.000000
0
VERTEX
8
0
10
251.769231
20
602.153846
0
VERTEX
8
0
10
253.700000
20
608.100000
0
VERTEX
8
0
10
254.300000
20
609.900000
0
VERTEX
8
0
10
255.000000
20
614.000000
0
VERTEX
8
0
10
254.300000
20
615.100000
0
VERTEX
8
0
10
253.000000
20
619.000000
0
VERTEX
8
0
10
249.100000
20
622.200000
0
VERTEX
8
0
10
245.000000
20
624.000000
0
VERTEX
8
0
10
238.000000
20
623.000000
0
VERTEX
8
0
10
237.000000
20
622.000000
0
VERTEX
8
0
10
243.000000
20
617.000000
0
VERTEX
8
0
10
244.400000
20
613.800000
0
VERTEX
8
0
10
242.000000
20
608.000000
0
VERTEX
8
0
10
238.100000
20
605.800000
0
VERTEX
8
0
10
236.900000
20
605.200000
0
VERTEX
8
0
10
233.000000
20
604.000000
0
VERTEX
8
0
10
230.000000
20
605.000000
0
VERTEX
8
0
10
226.000000
20
609.000000
0
VERTEX
8
0
10
227.000000
20
624.000000
0
VERTEX
8
0
10
225.000000
20
625.000000
0
VERTEX
8
0
10
221.000000
20
622.000000
0
VERTEX
8
0
10
207.760000
20
605.180000
0
VERTEX
8
0
10
192.230769
20
583.846154
0
VERTEX
8
0
10
183.200000
20
568.900000
0
VERTEX
8
0
10
182.800000
20
568.100000
0
VERTEX
8
0
10
179.000000
20
561.000000
0
VERTEX
8
0
10
181.000000
20
560.000000
0
SEQEND
0
POLYLINE
8
0
6
CONTINUOUS
66
1
62
7
10
0.0
20
0.0
30
0.000000
0
VERTEX
8
0
10
708.000000
20
558.000000
0
VERTEX
8
0
10
709.846154
20
559.230769
0
VERTEX
8
0
10
717.000000
20
563.000000
0
VERTEX
8
0
10
716.000000
20
565.000000
0
VERTEX
8
0
10
711.946154
20
566.569231
0
VERTEX
8
0
10
703.000000
20
568.000000
0
VERTEX
8
0
10
702.000000
20
569.000000
0
VERTEX
8
0
10
702.000000
20
571.000000
0
VERTEX
8
0
10
708.000000
20
576.000000
0
VERTEX
8
0
10
708.000000
20
577.000000
0
VERTEX
8
0
10
706.000000
20
580.000000
0
VERTEX
8
0
10
704.000000
20
581.000000
0
VERTEX
8
0
10
698.900000
20
579.200000
0
VERTEX
8
0
10
694.000000
20
575.000000
0
VERTEX
8
0
10
696.800000
20
568.900000
0
VERTEX
8
0
10
697.800000
20
566.900000
0
VERTEX
8
0
10
705.000000
20
558.000000
0
VERTEX
8
0
10
708.000000
20
558.000000
0
SEQEND
0
POLYLINE
8
0
6
CONTINUOUS
66
1
62
7
10
0.0
20
0.0
30
0.000000
0
VERTEX
8
0
10
254.000000
20
555.000000
0
VERTEX
8
0
10
258.800000
20
561.100000
0
VERTEX
8
0
10
260.000000
20
565.000000
0
VERTEX
8
0
10
255.900000
20
566.700000
0
VERTEX
8
0
10
254.000000
20
567.000000
0
VERTEX
8
0
10
252.000000
20
571.000000
0
VERTEX
8
0
10
251.000000
20
572.000000
0
VERTEX
8
0
10
247.800000
20
568.100000
0
VERTEX
8
0
10
247.000000
20
567.000000
0
VERTEX
8
0
10
247.700000
20
563.900000
0
VERTEX
8
0
10
249.245902
20
560.204918
0
VERTEX
8
0
10
254.000000
20
555.000000
0
SEQEND
0
POLYLINE
8
0
6
CONTINUOUS
66
1
62
7
10
0.0
20
0.0
30
0.000000
0
VERTEX
8
0
10
763.000000
20
551.000000
0
VERTEX
8
0
10
760.000000
20
552.000000
0
SEQEND
0
POLYLINE
8
0
6
CONTINUOUS
66
1
62
7
10
0.0
20
0.0
30
0.000000
0
VERTEX
8
0
10
174.000000
20
549.000000
0
VERTEX
8
0
10
177.000000
20
549.000000
0
VERTEX
8
0
10
178.000000
20
550.000000
0
VERTEX
8
0
10
178.000000
20
555.000000
0
VERTEX
8
0
10
177.000000
20
556.000000
0
VERTEX
8
0
10
174.250000
20
555.750000
0
VERTEX
8
0
10
174.000000
20
550.000000
0
VERTEX
8
0
10
174.000000
20
549.000000
0
SEQEND
0
POLYLINE
8
0
6
CONTINUOUS
66
1
62
7
10
0.0
20
0.0
30
0.000000
0
VERTEX
8
0
10
247.000000
20
545.000000
0
VERTEX
8
0
10
251.000000
20
550.000000
0
VERTEX
8
0
10
249.000000
20
552.000000
0
VERTEX
8
0
10
245.900000
20
552.800000
0
VERTEX
8
0
10
245.000000
20
553.000000
0
VERTEX
8
0
10
243.000000
20
555.000000
0
VERTEX
8
0
10
243.000000
20
556.000000
0
VERTEX
8
0
10
241.000000
20
558.000000
0
VERTEX
8
0
10
238.000000
20
553.000000
0
VERTEX
8
0
10
238.000000
20
551.000000
0
VERTEX
8
0
10
242.900000
20
546.800000
0
VERTEX
8
0
10
247.000000
20
545.000000
0
SEQEND
0
POLYLINE
8
0
6
CONTINUOUS
66
1
62
7
10
0.0
20
0.0
30
0.000000
0
VERTEX
8
0
10
174.000000
20
549.000000
0
VERTEX
8
0
10
172.000000
20
549.000000
0
VERTEX
8
0
10
171.000000
20
548.000000
0
VERTEX
8
0
10
171.000000
20
543.000000
0
VERTEX
8
0
10
172.000000
20
542.000000
0
VERTEX
8
0
10
173.750000
20
542.250000
0
VERTEX
8
0
10
174.000000
20
548.000000
0
VERTEX
8
0
10
174.000000
20
549.000000
0
SEQEND
0
POLYLINE
8
0
6
CONTINUOUS
66
1
62
7
10
0.0
20
0.0
30
0.000000
0
VERTEX
8
0
10
716.000000
20
542.000000
0
VERTEX
8
0
10
718.000000
20
543.000000
0
VERTEX
8
0
10
721.240000
20
546.820000
0
VERTEX
8
0
10
723.760000
20
550.180000
0
VERTEX
8
0
10
725.000000
20
553.000000
0
VERTEX
8
0
10
724.000000
20
555.000000
0
VERTEX
8
0
10
721.000000
20
558.000000
0
VERTEX
8
0
10
720.000000
20
558.000000
0
VERTEX
8
0
10
719.000000
20
556.000000
0
VERTEX
8
0
10
717.000000
20
554.000000
0
VERTEX
8
0
10
710.000000
20
555.000000
0
VERTEX
8
0
10
709.000000
20
554.000000
0
VERTEX
8
0
10
711.800000
20
547.900000
0
VERTEX
8
0
10
716.000000
20
542.000000
0
SEQEND
0
POLYLINE
8
0
6
CONTINUOUS
66
1
62
7
10
0.0
20
0.0
30
0.000000
0
VERTEX
8
0
10
168.000000
20
535.000000
0
VERTEX
8
0
10
168.000000
20
538.000000
0
SEQEND
0
POLYLINE
8
0
6
CONTINUOUS
66
1
62
7
10
0.0
20
0.0
30
0.000000
0
VERTEX
8
0
10
723.000000
20
530.000000
0
VERTEX
8
0
10
724.846154
20
531.230769
0
VERTEX
8
0
10
729.000000
20
534.000000
0
VERTEX
8
0
10
733.000000
20
534.000000
0
VERTEX
8
0
10
734.000000
20
533.000000
0
VERTEX
8
0
10
736.000000
20
535.000000
0
VERTEX
8
0
10
734.800000
20
536.900000
0
VERTEX
8
0
10
729.000000
20
547.000000
0
VERTEX
8
0
10
727.000000
20
548.000000
0
VERTEX
8
0
10
723.000000
20
539.000000
0
VERTEX
8
0
10
721.000000
20
537.000000
0
VERTEX
8
0
10
719.000000
20
536.000000
0
VERTEX
8
0
10
720.000000
20
532.000000
0
VERTEX
8
0
10
723.000000
20
530.000000
0
SEQEND
0
POLYLINE
8
0
6
CONTINUOUS
66
1
62
7
10
0.0
20
0.0
30
0.000000
0
VERTEX
8
0
10
710.000000
20
587.000000
0
VERTEX
8
0
10
714.100000
20
586.200000
0
VERTEX
8
0
10
723.846154
20
581.769231
0
VERTEX
8
0
10
731.000000
20
577.000000
0
VERTEX
8
0
10
734.000000
20
573.000000
0
VERTEX
8
0
10
733.000000
20
563.000000
0
VERTEX
8
0
10
734.000000
20
561.000000
0
VERTEX
8
0
10
737.000000
20
559.000000
0
VERTEX
8
0
10
739.000000
20
560.000000
0
VERTEX
8
0
10
739.000000
20
561.000000
0
VERTEX
8
0
10
742.000000
20
564.000000
0
VERTEX
8
0
10
748.000000
20
566.000000
0
VERTEX
8
0
10
758.000000
20
566.000000
0
VERTEX
8
0
10
761.000000
20
564.000000
0
VERTEX
8
0
10
750.000000
20
549.000000
0
VERTEX
8
0
10
750.000000
20
539.000000
0
VERTEX
8
0
10
751.800000
20
535.900000
0
VERTEX
8
0
10
756.000000
20
531.000000
0
VERTEX
8
0
10
758.900000
20
529.800000
0
VERTEX
8
0
10
760.000000
20
529.000000
0
VERTEX
8
0
10
765.000000
20
529.000000
0
VERTEX
8
0
10
770.000000
20
532.000000
0
VERTEX
8
0
10
771.000000
20
533.000000
0
VERTEX
8
0
10
773.000000
20
539.000000
0
VERTEX
8
0
10
771.200000
20
543.100000
0
VERTEX
8
0
10
765.000000
20
550.000000
0
VERTEX
8
0
10
763.000000
20
551.000000
0
SEQEND
0
POLYLINE
8
0
6
CONTINUOUS
66
1
62
7
10
0.0
20
0.0
30
0.000000
0
VERTEX
8
0
10
730.000000
20
517.000000
0
VERTEX
8
0
10
734.195122
20
520.756098
0
VERTEX
8
0
10
736.088235
20
521.647059
0
VERTEX
8
0
10
739.000000
20
522.000000
0
VERTEX
8
0
10
741.000000
20
524.000000
0
VERTEX
8
0
10
741.000000
20
527.000000
0
VERTEX
8
0
10
739.100000
20
528.200000
0
VERTEX
8
0
10
738.000000
20
529.000000
0
VERTEX
8
0
10
731.000000
20
529.000000
0
VERTEX
8
0
10
728.000000
20
527.000000
0
VERTEX
8
0
10
727.000000
20
522.000000
0
VERTEX
8
0
10
729.000000
20
517.000000
0
VERTEX
8
0
10
730.000000
20
517.000000
0
SEQEND
0
POLYLINE
8
0
6
CONTINUOUS
66
1
62
7
10
0.0
20
0.0
30
0.000000
0
VERTEX
8
0
10
226.000000
20
515.000000
0
VERTEX
8
0
10
229.000000
20
518.000000
0
VERTEX
8
0
10
229.000000
20
519.000000
0
VERTEX
8
0
10
226.000000
20
522.000000
0
VERTEX
8
0
10
224.000000
20
522.000000
0
VERTEX
8
0
10
222.000000
20
519.000000
0
VERTEX
8
0
10
222.000000
20
517.000000
0
VERTEX
8
0
10
226.000000
20
515.000000
0
SEQEND
0
POLYLINE
8
0
6
CONTINUOUS
66
1
62
7
10
0.0
20
0.0
30
0.000000
0
VERTEX
8
0
10
743.000000
20
501.000000
0
VERTEX
8
0
10
746.000000
20
504.000000
0
VERTEX
8
0
10
745.000000
20
507.000000
0
VERTEX
8
0
10
744.000000
20
508.000000
0
VERTEX
8
0
10
740.900000
20
507.200000
0
VERTEX
8
0
10
739.000000
20
506.000000
0
VERTEX
8
0
10
739.000000
20
504.000000
0
VERTEX
8
0
10
742.000000
20
501.000000
0
VERTEX
8
0
10
743.000000
20
501.000000
0
SEQEND
0
POLYLINE
8
0
6
CONTINUOUS
66
1
62
7
10
0.0
20
0.0
30
0.000000
0
VERTEX
8
0
10
755.000000
20
495.000000
0
VERTEX
8
0
10
755.000000
20
496.000000
0
SEQEND
0
POLYLINE
8
0
6
CONTINUOUS
66
1
62
7
10
0.0
20
0.0
30
0.000000
0
VERTEX
8
0
10
423.000000
20
711.000000
0
VERTEX
8
0
10
437.000000
20
710.000000
0
VERTEX
8
0
10
440.000000
20
713.000000
0
VERTEX
8
0
10
438.200000
20
717.100000
0
VERTEX
8
0
10
431.000000
20
724.000000
0
VERTEX
8
0
10
439.000000
20
729.000000
0
VERTEX
8
0
10
453.000000
20
729.000000
0
VERTEX
8
0
10
462.000000
20
726.000000
0
VERTEX
8
0
10
465.200000
20
721.100000
0
VERTEX
8
0
10
467.000000
20
716.000000
0
VERTEX
8
0
10
466.000000
20
708.000000
0
VERTEX
8
0
10
464.000000
20
706.000000
0
VERTEX
8
0
10
462.000000
20
708.000000
0
VERTEX
8
0
10
462.000000
20
717.000000
0
VERTEX
8
0
10
459.000000
20
719.000000
0
VERTEX
8
0
10
454.000000
20
719.000000
0
VERTEX
8
0
10
451.000000
20
718.000000
0
VERTEX
8
0
10
445.800000
20
712.100000
0
VERTEX
8
0
10
445.000000
20
711.000000
0
VERTEX
8
0
10
445.800000
20
707.900000
0
VERTEX
8
0
10
447.000000
20
705.000000
0
VERTEX
8
0
10
452.900000
20
700.800000
0
VERTEX
8
0
10
454.000000
20
700.000000
0
VERTEX
8
0
10
461.000000
20
700.000000
0
VERTEX
8
0
10
466.900000
20
703.200000
0
VERTEX
8
0
10
469.000000
20
704.000000
0
VERTEX
8
0
10
474.200000
20
711.900000
0
VERTEX
8
0
10
474.647059
20
713.088235
0
VERTEX
8
0
10
476.000000
20
719.000000
0
VERTEX
8
0
10
470.000000
20
728.000000
0
VERTEX
8
0
10
469.100000
20
728.200000
0
VERTEX
8
0
10
457.000000
20
733.000000
0
VERTEX
8
0
10
445.000000
20
733.000000
0
VERTEX
8
0
10
435.100000
20
729.700000
0
VERTEX
8
0
10
433.900000
20
729.200000
0
VERTEX
8
0
10
418.000000
20
722.000000
0
VERTEX
8
0
10
410.000000
20
726.000000
0
VERTEX
8
0
10
404.000000
20
726.000000
0
VERTEX
8
0
10
400.000000
20
724.000000
0
VERTEX
8
0
10
401.230769
20
722.153846
0
VERTEX
8
0
10
405.000000
20
716.000000
0
VERTEX
8
0
10
403.000000
20
714.000000
0
VERTEX
8
0
10
402.000000
20
714.000000
0
VERTEX
8
0
10
388.000000
20
722.000000
0
VERTEX
8
0
10
382.000000
20
722.000000
0
VERTEX
8
0
10
378.088235
20
720.647059
0
VERTEX
8
0
10
372.000000
20
717.000000
0
VERTEX
8
0
10
366.000000
20
710.000000
0
VERTEX
8
0
10
366.000000
20
704.000000
0
VERTEX
8
0
10
369.000000
20
700.000000
0
VERTEX
8
0
10
376.000000
20
699.000000
0
VERTEX
8
0
10
380.000000
20
701.000000
0
VERTEX
8
0
10
382.000000
20
703.000000
0
VERTEX
8
0
10
383.000000
20
714.000000
0
VERTEX
8
0
10
385.000000
20
716.000000
0
VERTEX
8
0
10
387.000000
20
715.000000
0
VERTEX
8
0
10
392.200000
20
708.100000
0
VERTEX
8
0
10
394.000000
20
704.000000
0
VERTEX
8
0
10
394.000000
20
701.000000
0
VERTEX
8
0
10
392.482759
20
697.206897
0
VERTEX
8
0
10
391.230769
20
694.846154
0
VERTEX
8
0
10
388.000000
20
691.000000
0
VERTEX
8
0
10
382.900000
20
688.300000
0
VERTEX
8
0
10
370.000000
20
685.000000
0
VERTEX
8
0
10
367.000000
20
687.000000
0
VERTEX
8
0
10
367.000000
20
695.000000
0
VERTEX
8
0
10
365.100000
20
696.200000
0
VERTEX
8
0
10
364.000000
20
697.000000
0
VERTEX
8
0
10
360.000000
20
697.000000
0
VERTEX
8
0
10
358.195122
20
695.756098
0
VERTEX
8
0
10
350.000000
20
689.000000
0
VERTEX
8
0
10
349.000000
20
690.000000
0
VERTEX
8
0
10
349.000000
20
693.000000
0
VERTEX
8
0
10
350.000000
20
694.000000
0
VERTEX
8
0
10
350.000000
20
702.000000
0
VERTEX
8
0
10
348.769231
20
703.846154
0
VERTEX
8
0
10
344.000000
20
711.000000
0
VERTEX
8
0
10
349.900000
20
714.200000
0
VERTEX
8
0
10
351.900000
20
715.200000
0
VERTEX
8
0
10
365.100000
20
720.700000
0
VERTEX
8
0
10
369.900000
20
722.300000
0
VERTEX
8
0
10
395.088235
20
729.647059
0
VERTEX
8
0
10
401.911765
20
731.352941
0
VERTEX
8
0
10
446.946154
20
737.430769
0
VERTEX
8
0
10
463.972414
20
738.468966
0
VERTEX
8
0
10
506.000000
20
740.000000
0
VERTEX
8
0
10
517.962069
20
738.544828
0
VERTEX
8
0
10
548.088235
20
734.352941
0
VERTEX
8
0
10
552.088235
20
733.352941
0
VERTEX
8
0
10
590.900000
20
722.800000
0
VERTEX
8
0
10
607.900000
20
715.700000
0
VERTEX
8
0
10
635.846154
20
702.769231
0
VERTEX
8
0
10
655.100000
20
692.200000
0
VERTEX
8
0
10
674.820000
20
679.760000
0
VERTEX
8
0
10
681.153846
20
675.230769
0
VERTEX
8
0
10
699.765138
20
661.750459
0
VERTEX
8
0
10
735.000000
20
628.000000
0
VERTEX
8
0
10
739.754098
20
621.795082
0
VERTEX
8
0
10
761.200000
20
596.100000
0
VERTEX
8
0
10
784.800000
20
556.900000
0
VERTEX
8
0
10
789.200000
20
548.100000
0
VERTEX
8
0
10
811.800000
20
497.900000
0
VERTEX
8
0
10
812.000000
20
497.000000
0
VERTEX
8
0
10
814.000000
20
495.000000
0
VERTEX
8
0
10
815.000000
20
495.000000
0
VERTEX
8
0
10
816.000000
20
496.000000
0
VERTEX
8
0
10
814.594595
20
502.932432
0
VERTEX
8
0
10
806.700000
20
525.900000
0
VERTEX
8
0
10
803.200000
20
534.100000
0
VERTEX
8
0
10
779.769231
20
578.846154
0
VERTEX
8
0
10
768.230769
20
596.153846
0
VERTEX
8
0
10
750.243902
20
619.195122
0
VERTEX
8
0
10
738.000000
20
633.000000
0
VERTEX
8
0
10
713.216814
20
656.247788
0
VERTEX
8
0
10
699.795082
20
667.754098
0
VERTEX
8
0
10
673.846154
20
687.769231
0
VERTEX
8
0
10
665.820000
20
693.760000
0
VERTEX
8
0
10
629.900000
20
713.800000
0
VERTEX
8
0
10
625.900000
20
715.800000
0
VERTEX
8
0
10
592.900000
20
728.700000
0
VERTEX
8
0
10
591.100000
20
729.300000
0
VERTEX
8
0
10
568.100000
20
736.300000
0
VERTEX
8
0
10
548.946154
20
740.569231
0
VERTEX
8
0
10
542.053846
20
741.430769
0
VERTEX
8
0
10
524.980831
20
743.520767
0
VERTEX
8
0
10
501.019169
20
744.479233
0
VERTEX
8
0
10
452.000000
20
745.000000
0
VERTEX
8
0
10
416.911765
20
742.352941
0
VERTEX
8
0
10
414.088235
20
741.647059
0
VERTEX
8
0
10
387.900000
20
734.300000
0
VERTEX
8
0
10
367.900000
20
727.300000
0
VERTEX
8
0
10
346.100000
20
718.800000
0
VERTEX
8
0
10
330.100000
20
711.700000
0
VERTEX
8
0
10
313.100000
20
702.800000
0
VERTEX
8
0
10
292.900000
20
691.200000
0
VERTEX
8
0
10
275.180000
20
678.760000
0
VERTEX
8
0
10
263.820000
20
670.240000
0
VERTEX
8
0
10
237.000000
20
647.000000
0
VERTEX
8
0
10
227.000000
20
637.000000
0
VERTEX
8
0
10
214.247788
20
621.783186
0
VERTEX
8
0
10
198.760000
20
602.180000
0
VERTEX
8
0
10
183.240000
20
580.820000
0
VERTEX
8
0
10
174.200000
20
564.900000
0
VERTEX
8
0
10
167.800000
20
553.100000
0
VERTEX
8
0
10
150.405405
20
515.932432
0
VERTEX
8
0
10
149.000000
20
510.000000
0
VERTEX
8
0
10
149.000000
20
503.000000
0
VERTEX
8
0
10
150.000000
20
502.000000
0
VERTEX
8
0
10
152.000000
20
504.000000
0
VERTEX
8
0
10
164.800000
20
531.100000
0
VERTEX
8
0
10
165.200000
20
531.900000
0
VERTEX
8
0
10
167.000000
20
535.000000
0
VERTEX
8
0
10
168.000000
20
535.000000
0
SEQEND
0
POLYLINE
8
0
6
CONTINUOUS
66
1
62
7
10
0.0
20
0.0
30
0.000000
0
VERTEX
8
0
10
219.000000
20
491.000000
0
VERTEX
8
0
10
219.800000
20
492.100000
0
VERTEX
8
0
10
226.800000
20
504.100000
0
VERTEX
8
0
10
227.200000
20
504.900000
0
VERTEX
8
0
10
243.000000
20
536.000000
0
VERTEX
8
0
10
241.000000
20
538.000000
0
VERTEX
8
0
10
239.000000
20
538.000000
0
VERTEX
8
0
10
235.800000
20
541.900000
0
VERTEX
8
0
10
235.000000
20
547.000000
0
VERTEX
8
0
10
234.000000
20
548.000000
0
VERTEX
8
0
10
230.000000
20
541.000000
0
VERTEX
8
0
10
230.000000
20
538.000000
0
VERTEX
8
0
10
231.243902
20
536.195122
0
VERTEX
8
0
10
235.000000
20
532.000000
0
VERTEX
8
0
10
232.000000
20
529.000000
0
VERTEX
8
0
10
231.000000
20
529.000000
0
VERTEX
8
0
10
230.000000
20
531.000000
0
VERTEX
8
0
10
227.000000
20
534.000000
0
VERTEX
8
0
10
226.000000
20
534.000000
0
VERTEX
8
0
10
224.000000
20
532.000000
0
VERTEX
8
0
10
219.300000
20
521.900000
0
VERTEX
8
0
10
216.000000
20
512.000000
0
VERTEX
8
0
10
220.700000
20
504.900000
0
VERTEX
8
0
10
221.000000
20
503.000000
0
VERTEX
8
0
10
220.000000
20
502.000000
0
VERTEX
8
0
10
216.000000
20
503.000000
0
VERTEX
8
0
10
213.000000
20
507.000000
0
VERTEX
8
0
10
211.000000
20
505.000000
0
VERTEX
8
0
10
208.000000
20
497.000000
0
VERTEX
8
0
10
211.088235
20
495.352941
0
VERTEX
8
0
10
216.000000
20
494.000000
0
VERTEX
8
0
10
218.000000
20
491.000000
0
VERTEX
8
0
10
219.000000
20
491.000000
0
SEQEND
0
POLYLINE
8
0
6
CONTINUOUS
66
1
62
7
10
0.0
20
0.0
30
0.000000
0
VERTEX
8
0
10
741.000000
20
490.000000
0
VERTEX
8
0
10
745.195122
20
493.756098
0
VERTEX
8
0
10
752.000000
20
496.000000
0
VERTEX
8
0
10
752.000000
20
497.000000
0
VERTEX
8
0
10
746.800000
20
511.900000
0
VERTEX
8
0
10
743.000000
20
518.000000
0
VERTEX
8
0
10
739.900000
20
517.200000
0
VERTEX
8
0
10
737.900000
20
516.200000
0
VERTEX
8
0
10
733.000000
20
512.000000
0
VERTEX
8
0
10
733.000000
20
510.000000
0
VERTEX
8
0
10
738.200000
20
495.100000
0
VERTEX
8
0
10
741.000000
20
490.000000
0
SEQEND
0
POLYLINE
8
0
6
CONTINUOUS
66
1
62
7
10
0.0
20
0.0
30
0.000000
0
VERTEX
8
0
10
215.000000
20
480.000000
0
VERTEX
8
0
10
217.400000
20
483.300000
0
VERTEX
8
0
10
217.000000
20
485.000000
0
VERTEX
8
0
10
213.100000
20
488.200000
0
VERTEX
8
0
10
212.000000
20
489.000000
0
VERTEX
8
0
10
207.000000
20
489.000000
0
VERTEX
8
0
10
206.000000
20
488.000000
0
VERTEX
8
0
10
205.000000
20
485.000000
0
VERTEX
8
0
10
206.000000
20
483.000000
0
VERTEX
8
0
10
209.900000
20
480.800000
0
VERTEX
8
0
10
215.000000
20
480.000000
0
SEQEND
0
POLYLINE
8
0
6
CONTINUOUS
66
1
62
7
10
0.0
20
0.0
30
0.000000
0
VERTEX
8
0
10
124.000000
20
477.000000
0
VERTEX
8
0
10
123.000000
20
477.000000
0
SEQEND
0
POLYLINE
8
0
6
CONTINUOUS
66
1
62
7
10
0.0
20
0.0
30
0.000000
0
VERTEX
8
0
10
838.000000
20
477.000000
0
VERTEX
8
0
10
837.000000
20
477.000000
0
SEQEND
0
POLYLINE
8
0
6
CONTINUOUS
66
1
62
7
10
0.0
20
0.0
30
0.000000
0
VERTEX
8
0
10
753.000000
20
474.000000
0
VERTEX
8
0
10
756.000000
20
477.000000
0
VERTEX
8
0
10
755.000000
20
480.000000
0
VERTEX
8
0
10
754.000000
20
481.000000
0
VERTEX
8
0
10
750.900000
20
480.200000
0
VERTEX
8
0
10
749.000000
20
479.000000
0
VERTEX
8
0
10
749.000000
20
477.000000
0
VERTEX
8
0
10
752.000000
20
474.000000
0
VERTEX
8
0
10
753.000000
20
474.000000
0
SEQEND
0
POLYLINE
8
0
6
CONTINUOUS
66
1
62
7
10
0.0
20
0.0
30
0.000000
0
VERTEX
8
0
10
756.000000
20
457.000000
0
VERTEX
8
0
10
758.000000
20
458.000000
0
VERTEX
8
0
10
760.000000
20
461.000000
0
VERTEX
8
0
10
759.000000
20
465.000000
0
VERTEX
8
0
10
757.000000
20
467.000000
0
VERTEX
8
0
10
755.000000
20
467.000000
0
VERTEX
8
0
10
754.000000
20
466.000000
0
VERTEX
8
0
10
753.000000
20
461.000000
0
VERTEX
8
0
10
756.000000
20
457.000000
0
SEQEND
0
POLYLINE
8
0
6
CONTINUOUS
66
1
62
7
10
0.0
20
0.0
30
0.000000
0
VERTEX
8
0
10
209.000000
20
450.000000
0
VERTEX
8
0
10
212.000000
20
454.000000
0
VERTEX
8
0
10
212.000000
20
455.000000
0
VERTEX
8
0
10
210.000000
20
458.000000
0
VERTEX
8
0
10
203.000000
20
458.000000
0
VERTEX
8
0
10
201.800000
20
459.900000
0
VERTEX
8
0
10
201.000000
20
461.000000
0
VERTEX
8
0
10
201.800000
20
464.100000
0
VERTEX
8
0
10
203.000000
20
466.000000
0
VERTEX
8
0
10
210.000000
20
466.000000
0
VERTEX
8
0
10
212.000000
20
465.000000
0
VERTEX
8
0
10
214.200000
20
467.900000
0
VERTEX
8
0
10
215.000000
20
469.000000
0
VERTEX
8
0
10
214.200000
20
471.100000
0
VERTEX
8
0
10
214.000000
20
472.000000
0
VERTEX
8
0
10
212.000000
20
474.000000
0
VERTEX
8
0
10
206.000000
20
475.000000
0
VERTEX
8
0
10
203.000000
20
479.000000
0
VERTEX
8
0
10
201.352941
20
474.911765
0
VERTEX
8
0
10
200.647059
20
472.088235
0
VERTEX
8
0
10
199.000000
20
465.000000
0
VERTEX
8
0
10
199.000000
20
458.000000
0
VERTEX
8
0
10
200.000000
20
455.000000
0
VERTEX
8
0
10
206.900000
20
450.800000
0
VERTEX
8
0
10
209.000000
20
450.000000
0
SEQEND
0
POLYLINE
8
0
6
CONTINUOUS
66
1
62
7
10
0.0
20
0.0
30
0.000000
0
VERTEX
8
0
10
196.000000
20
449.000000
0
VERTEX
8
0
10
196.000000
20
451.000000
0
SEQEND
0
POLYLINE
8
0
6
CONTINUOUS
66
1
62
7
10
0.0
20
0.0
30
0.000000
0
VERTEX
8
0
10
760.000000
20
443.000000
0
VERTEX
8
0
10
763.000000
20
448.000000
0
VERTEX
8
0
10
762.200000
20
451.100000
0
VERTEX
8
0
10
760.000000
20
454.000000
0
VERTEX
8
0
10
757.000000
20
452.000000
0
VERTEX
8
0
10
756.000000
20
450.000000
0
VERTEX
8
0
10
757.000000
20
445.000000
0
VERTEX
8
0
10
760.000000
20
443.000000
0
SEQEND
0
POLYLINE
8
0
6
CONTINUOUS
66
1
62
7
10
0.0
20
0.0
30
0.000000
0
VERTEX
8
0
10
847.000000
20
437.000000
0
VERTEX
8
0
10
847.000000
20
440.000000
0
SEQEND
0
POLYLINE
8
0
6
CONTINUOUS
66
1
62
7
10
0.0
20
0.0
30
0.000000
0
VERTEX
8
0
10
206.000000
20
432.000000
0
VERTEX
8
0
10
201.000000
20
438.000000
0
VERTEX
8
0
10
197.000000
20
438.000000
0
VERTEX
8
0
10
196.000000
20
439.000000
0
VERTEX
8
0
10
195.000000
20
448.000000
0
VERTEX
8
0
10
196.000000
20
449.000000
0
SEQEND
0
POLYLINE
8
0
6
CONTINUOUS
66
1
62
7
10
0.0
20
0.0
30
0.000000
0
VERTEX
8
0
10
206.000000
20
432.000000
0
VERTEX
8
0
10
208.000000
20
437.000000
0
VERTEX
8
0
10
208.000000
20
440.000000
0
VERTEX
8
0
10
205.000000
20
445.000000
0
VERTEX
8
0
10
199.000000
20
445.000000
0
VERTEX
8
0
10
197.769231
20
446.846154
0
VERTEX
8
0
10
196.000000
20
449.000000
0
SEQEND
0
POLYLINE
8
0
6
CONTINUOUS
66
1
62
7
10
0.0
20
0.0
30
0.000000
0
VERTEX
8
0
10
206.000000
20
431.000000
0
VERTEX
8
0
10
206.000000
20
432.000000
0
SEQEND
0
POLYLINE
8
0
6
CONTINUOUS
66
1
62
7
10
0.0
20
0.0
30
0.000000
0
VERTEX
8
0
10
119.000000
20
424.000000
0
VERTEX
8
0
10
116.000000
20
436.000000
0
VERTEX
8
0
10
114.000000
20
438.000000
0
VERTEX
8
0
10
113.000000
20
437.000000
0
VERTEX
8
0
10
113.647059
20
431.911765
0
VERTEX
8
0
10
115.000000
20
426.000000
0
VERTEX
8
0
10
117.000000
20
424.000000
0
VERTEX
8
0
10
119.000000
20
424.000000
0
SEQEND
0
POLYLINE
8
0
6
CONTINUOUS
66
1
62
7
10
0.0
20
0.0
30
0.000000
0
VERTEX
8
0
10
847.000000
20
437.000000
0
VERTEX
8
0
10
846.000000
20
437.000000
0
VERTEX
8
0
10
842.000000
20
426.000000
0
VERTEX
8
0
10
842.000000
20
425.000000
0
VERTEX
8
0
10
843.000000
20
424.000000
0
VERTEX
8
0
10
845.000000
20
425.000000
0
VERTEX
8
0
10
848.000000
20
432.000000
0
VERTEX
8
0
10
848.000000
20
436.000000
0
VERTEX
8
0
10
847.000000
20
437.000000
0
SEQEND
0
POLYLINE
8
0
6
CONTINUOUS
66
1
62
7
10
0.0
20
0.0
30
0.000000
0
VERTEX
8
0
10
788.000000
20
423.000000
0
VERTEX
8
0
10
787.000000
20
423.000000
0
VERTEX
8
0
10
784.800000
20
425.900000
0
VERTEX
8
0
10
781.450820
20
434.040984
0
VERTEX
8
0
10
779.450820
20
464.040984
0
VERTEX
8
0
10
779.000000
20
474.000000
0
VERTEX
8
0
10
777.000000
20
476.000000
0
VERTEX
8
0
10
772.000000
20
476.000000
0
VERTEX
8
0
10
770.000000
20
478.000000
0
VERTEX
8
0
10
769.594595
20
482.932432
0
VERTEX
8
0
10
767.250000
20
498.750000
0
VERTEX
8
0
10
775.000000
20
500.000000
0
VERTEX
8
0
10
778.200000
20
503.900000
0
VERTEX
8
0
10
783.000000
20
514.000000
0
VERTEX
8
0
10
783.000000
20
532.000000
0
VERTEX
8
0
10
778.000000
20
545.000000
0
VERTEX
8
0
10
774.153846
20
548.230769
0
VERTEX
8
0
10
766.000000
20
552.000000
0
VERTEX
8
0
10
764.000000
20
552.000000
0
VERTEX
8
0
10
763.000000
20
551.000000
0
SEQEND
0
POLYLINE
8
0
6
CONTINUOUS
66
1
62
7
10
0.0
20
0.0
30
0.000000
0
VERTEX
8
0
10
788.000000
20
423.000000
0
VERTEX
8
0
10
788.000000
20
424.000000
0
VERTEX
8
0
10
785.000000
20
434.000000
0
VERTEX
8
0
10
787.000000
20
436.000000
0
VERTEX
8
0
10
797.000000
20
439.000000
0
VERTEX
8
0
10
799.000000
20
441.000000
0
VERTEX
8
0
10
798.000000
20
443.000000
0
VERTEX
8
0
10
797.000000
20
443.000000
0
VERTEX
8
0
10
791.800000
20
448.900000
0
VERTEX
8
0
10
789.800000
20
452.900000
0
VERTEX
8
0
10
784.000000
20
468.000000
0
VERTEX
8
0
10
784.000000
20
471.000000
0
VERTEX
8
0
10
785.000000
20
472.000000
0
VERTEX
8
0
10
787.779310
20
469.751724
0
VERTEX
8
0
10
800.000000
20
461.000000
0
VERTEX
8
0
10
803.000000
20
461.000000
0
VERTEX
8
0
10
807.000000
20
463.000000
0
VERTEX
8
0
10
810.000000
20
466.000000
0
VERTEX
8
0
10
809.000000
20
469.000000
0
VERTEX
8
0
10
808.000000
20
470.000000
0
VERTEX
8
0
10
799.000000
20
472.000000
0
VERTEX
8
0
10
797.000000
20
474.000000
0
VERTEX
8
0
10
796.300000
20
476.100000
0
VERTEX
8
0
10
795.700000
20
477.900000
0
VERTEX
8
0
10
794.475113
20
483.022624
0
VERTEX
8
0
10
792.549180
20
513.959016
0
VERTEX
8
0
10
790.647059
20
525.911765
0
VERTEX
8
0
10
789.615385
20
530.923077
0
VERTEX
8
0
10
786.200000
20
542.100000
0
VERTEX
8
0
10
781.200000
20
552.100000
0
VERTEX
8
0
10
759.243902
20
580.195122
0
VERTEX
8
0
10
754.800000
20
586.900000
0
VERTEX
8
0
10
754.000000
20
588.000000
0
VERTEX
8
0
10
754.000000
20
593.000000
0
VERTEX
8
0
10
755.000000
20
594.000000
0
VERTEX
8
0
10
755.000000
20
596.000000
0
VERTEX
8
0
10
751.000000
20
599.000000
0
VERTEX
8
0
10
747.000000
20
599.000000
0
VERTEX
8
0
10
744.000000
20
598.000000
0
VERTEX
8
0
10
741.000000
20
595.000000
0
VERTEX
8
0
10
740.000000
20
592.000000
0
VERTEX
8
0
10
740.000000
20
587.000000
0
VERTEX
8
0
10
741.000000
20
586.000000
0
VERTEX
8
0
10
739.000000
20
584.000000
0
VERTEX
8
0
10
738.000000
20
584.000000
0
VERTEX
8
0
10
735.000000
20
587.000000
0
VERTEX
8
0
10
734.352941
20
590.088235
0
VERTEX
8
0
10
733.000000
20
596.000000
0
VERTEX
8
0
10
730.000000
20
599.000000
0
VERTEX
8
0
10
727.000000
20
599.000000
0
VERTEX
8
0
10
725.800000
20
597.100000
0
VERTEX
8
0
10
725.000000
20
595.000000
0
VERTEX
8
0
10
724.000000
20
594.000000
0
VERTEX
8
0
10
720.000000
20
594.000000
0
VERTEX
8
0
10
713.000000
20
598.000000
0
VERTEX
8
0
10
709.760000
20
601.820000
0
VERTEX
8
0
10
706.000000
20
607.000000
0
VERTEX
8
0
10
706.000000
20
615.000000
0
VERTEX
8
0
10
710.000000
20
621.000000
0
VERTEX
8
0
10
710.900000
20
621.200000
0
VERTEX
8
0
10
714.067568
20
622.594595
0
VERTEX
8
0
10
719.000000
20
623.000000
0
VERTEX
8
0
10
720.000000
20
622.000000
0
VERTEX
8
0
10
718.200000
20
617.900000
0
VERTEX
8
0
10
716.000000
20
613.000000
0
VERTEX
8
0
10
721.000000
20
607.000000
0
VERTEX
8
0
10
721.846154
20
606.769231
0
VERTEX
8
0
10
725.800000
20
604.600000
0
VERTEX
8
0
10
729.000000
20
606.000000
0
VERTEX
8
0
10
734.200000
20
611.900000
0
VERTEX
8
0
10
735.000000
20
613.000000
0
VERTEX
8
0
10
733.200000
20
617.100000
0
VERTEX
8
0
10
730.800000
20
621.900000
0
VERTEX
8
0
10
725.000000
20
630.000000
0
VERTEX
8
0
10
717.000000
20
634.000000
0
VERTEX
8
0
10
713.000000
20
634.000000
0
VERTEX
8
0
10
707.100000
20
630.800000
0
VERTEX
8
0
10
704.000000
20
629.000000
0
VERTEX
8
0
10
702.000000
20
631.000000
0
VERTEX
8
0
10
705.240000
20
635.820000
0
VERTEX
8
0
10
709.400000
20
642.200000
0
VERTEX
8
0
10
709.000000
20
644.000000
0
VERTEX
8
0
10
706.100000
20
645.300000
0
VERTEX
8
0
10
695.040984
20
646.450820
0
VERTEX
8
0
10
692.000000
20
648.000000
0
VERTEX
8
0
10
689.240000
20
652.180000
0
VERTEX
8
0
10
682.200000
20
664.100000
0
VERTEX
8
0
10
670.000000
20
677.000000
0
VERTEX
8
0
10
667.900000
20
677.800000
0
VERTEX
8
0
10
652.900000
20
685.800000
0
VERTEX
8
0
10
638.100000
20
692.300000
0
VERTEX
8
0
10
636.900000
20
692.700000
0
VERTEX
8
0
10
627.153846
20
696.230769
0
VERTEX
8
0
10
624.000000
20
698.000000
0
VERTEX
8
0
10
619.800000
20
704.900000
0
VERTEX
8
0
10
617.000000
20
709.000000
0
VERTEX
8
0
10
614.000000
20
708.000000
0
VERTEX
8
0
10
609.000000
20
703.000000
0
VERTEX
8
0
10
608.200000
20
700.900000
0
VERTEX
8
0
10
607.800000
20
700.100000
0
VERTEX
8
0
10
611.000000
20
690.000000
0
VERTEX
8
0
10
610.000000
20
689.000000
0
VERTEX
8
0
10
607.900000
20
689.800000
0
VERTEX
8
0
10
601.000000
20
697.000000
0
VERTEX
8
0
10
595.000000
20
696.000000
0
VERTEX
8
0
10
591.000000
20
687.000000
0
VERTEX
8
0
10
587.000000
20
685.000000
0
VERTEX
8
0
10
584.911765
20
685.647059
0
VERTEX
8
0
10
577.900000
20
687.800000
0
VERTEX
8
0
10
573.000000
20
690.000000
0
VERTEX
8
0
10
568.000000
20
695.000000
0
VERTEX
8
0
10
566.000000
20
700.000000
0
VERTEX
8
0
10
566.000000
20
707.000000
0
VERTEX
8
0
10
568.000000
20
710.000000
0
VERTEX
8
0
10
572.000000
20
714.000000
0
VERTEX
8
0
10
576.000000
20
715.000000
0
VERTEX
8
0
10
578.000000
20
713.000000
0
VERTEX
8
0
10
579.000000
20
703.000000
0
VERTEX
8
0
10
585.000000
20
699.000000
0
VERTEX
8
0
10
590.000000
20
699.000000
0
VERTEX
8
0
10
592.000000
20
701.000000
0
VERTEX
8
0
10
592.000000
20
710.000000
0
VERTEX
8
0
10
590.000000
20
715.000000
0
VERTEX
8
0
10
588.000000
20
717.000000
0
VERTEX
8
0
10
581.900000
20
719.800000
0
VERTEX
8
0
10
581.100000
20
720.200000
0
VERTEX
8
0
10
574.000000
20
722.000000
0
VERTEX
8
0
10
569.000000
20
722.000000
0
VERTEX
8
0
10
565.204918
20
718.754098
0
VERTEX
8
0
10
559.795082
20
714.245902
0
VERTEX
8
0
10
556.000000
20
712.000000
0
VERTEX
8
0
10
555.000000
20
713.000000
0
VERTEX
8
0
10
556.700000
20
717.100000
0
VERTEX
8
0
10
560.000000
20
724.000000
0
VERTEX
8
0
10
559.000000
20
725.000000
0
VERTEX
8
0
10
557.000000
20
726.000000
0
VERTEX
8
0
10
551.000000
20
726.000000
0
VERTEX
8
0
10
548.264706
20
724.558824
0
VERTEX
8
0
10
545.000000
20
722.000000
0
VERTEX
8
0
10
542.000000
20
722.000000
0
VERTEX
8
0
10
531.100000
20
727.200000
0
VERTEX
8
0
10
521.088235
20
731.352941
0
VERTEX
8
0
10
514.000000
20
733.000000
0
VERTEX
8
0
10
507.000000
20
733.000000
0
VERTEX
8
0
10
498.100000
20
730.700000
0
VERTEX
8
0
10
493.900000
20
729.200000
0
VERTEX
8
0
10
486.000000
20
724.000000
0
VERTEX
8
0
10
485.800000
20
723.100000
0
VERTEX
8
0
10
484.000000
20
720.000000
0
VERTEX
8
0
10
484.000000
20
716.000000
0
VERTEX
8
0
10
485.352941
20
712.088235
0
VERTEX
8
0
10
485.800000
20
710.900000
0
VERTEX
8
0
10
492.000000
20
703.000000
0
VERTEX
8
0
10
498.000000
20
700.000000
0
VERTEX
8
0
10
506.000000
20
700.000000
0
VERTEX
8
0
10
507.900000
20
701.200000
0
VERTEX
8
0
10
513.000000
20
704.000000
0
VERTEX
8
0
10
514.000000
20
710.000000
0
VERTEX
8
0
10
512.800000
20
711.900000
0
VERTEX
8
0
10
511.000000
20
716.000000
0
VERTEX
8
0
10
506.000000
20
719.000000
0
VERTEX
8
0
10
498.250000
20
717.750000
0
VERTEX
8
0
10
499.000000
20
708.000000
0
VERTEX
8
0
10
497.000000
20
706.000000
0
VERTEX
8
0
10
495.000000
20
706.000000
0
VERTEX
8
0
10
492.800000
20
708.900000
0
VERTEX
8
0
10
491.647059
20
712.911765
0
VERTEX
8
0
10
491.000000
20
718.000000
0
VERTEX
8
0
10
496.000000
20
725.000000
0
VERTEX
8
0
10
501.076923
20
727.615385
0
VERTEX
8
0
10
504.923077
20
728.384615
0
VERTEX
8
0
10
506.000000
20
729.000000
0
VERTEX
8
0
10
515.000000
20
729.000000
0
VERTEX
8
0
10
528.000000
20
726.000000
0
VERTEX
8
0
10
530.000000
20
724.000000
0
VERTEX
8
0
10
530.000000
20
723.000000
0
VERTEX
8
0
10
521.000000
20
718.000000
0
VERTEX
8
0
10
520.000000
20
717.000000
0
VERTEX
8
0
10
520.000000
20
714.000000
0
VERTEX
8
0
10
521.900000
20
712.800000
0
VERTEX
8
0
10
525.000000
20
711.000000
0
VERTEX
8
0
10
536.000000
20
711.000000
0
VERTEX
8
0
10
538.000000
20
712.000000
0
VERTEX
8
0
10
539.000000
20
711.000000
0
SEQEND
0
POLYLINE
8
0
6
CONTINUOUS
66
1
62
7
10
0.0
20
0.0
30
0.000000
0
VERTEX
8
0
10
124.000000
20
477.000000
0
VERTEX
8
0
10
130.000000
20
480.000000
0
VERTEX
8
0
10
133.000000
20
480.000000
0
VERTEX
8
0
10
154.088235
20
463.352941
0
VERTEX
8
0
10
158.000000
20
462.000000
0
VERTEX
8
0
10
164.100000
20
463.800000
0
VERTEX
8
0
10
165.000000
20
464.000000
0
VERTEX
8
0
10
166.240000
20
465.820000
0
VERTEX
8
0
10
171.000000
20
473.000000
0
VERTEX
8
0
10
172.000000
20
474.000000
0
VERTEX
8
0
10
174.000000
20
470.000000
0
VERTEX
8
0
10
174.000000
20
464.000000
0
VERTEX
8
0
10
171.700000
20
455.100000
0
VERTEX
8
0
10
164.760000
20
444.180000
0
VERTEX
8
0
10
161.000000
20
439.000000
0
VERTEX
8
0
10
163.000000
20
437.000000
0
VERTEX
8
0
10
170.100000
20
436.300000
0
VERTEX
8
0
10
172.000000
20
436.000000
0
VERTEX
8
0
10
173.000000
20
435.000000
0
VERTEX
8
0
10
173.000000
20
425.000000
0
VERTEX
8
0
10
172.000000
20
423.000000
0
VERTEX
8
0
10
173.000000
20
422.000000
0
VERTEX
8
0
10
175.200000
20
424.900000
0
VERTEX
8
0
10
176.300000
20
427.900000
0
VERTEX
8
0
10
177.580000
20
431.060000
0
VERTEX
8
0
10
179.445545
20
446.955446
0
VERTEX
8
0
10
183.000000
20
475.000000
0
VERTEX
8
0
10
191.000000
20
481.000000
0
VERTEX
8
0
10
193.750000
20
499.750000
0
VERTEX
8
0
10
193.000000
20
500.000000
0
VERTEX
8
0
10
184.000000
20
501.000000
0
VERTEX
8
0
10
180.000000
20
505.000000
0
VERTEX
8
0
10
178.300000
20
509.100000
0
VERTEX
8
0
10
176.647059
20
514.911765
0
VERTEX
8
0
10
176.000000
20
516.000000
0
VERTEX
8
0
10
176.000000
20
525.000000
0
VERTEX
8
0
10
177.439024
20
533.951220
0
VERTEX
8
0
10
177.647059
20
535.088235
0
VERTEX
8
0
10
180.230769
20
541.846154
0
VERTEX
8
0
10
182.000000
20
545.000000
0
VERTEX
8
0
10
188.900000
20
550.200000
0
VERTEX
8
0
10
191.900000
20
551.300000
0
VERTEX
8
0
10
193.000000
20
552.000000
0
VERTEX
8
0
10
199.000000
20
552.000000
0
VERTEX
8
0
10
200.200000
20
550.100000
0
VERTEX
8
0
10
201.000000
20
549.000000
0
VERTEX
8
0
10
199.000000
20
547.000000
0
VERTEX
8
0
10
192.900000
20
546.200000
0
VERTEX
8
0
10
192.000000
20
546.000000
0
VERTEX
8
0
10
189.000000
20
540.000000
0
VERTEX
8
0
10
190.300000
20
535.100000
0
VERTEX
8
0
10
192.000000
20
532.000000
0
VERTEX
8
0
10
192.846154
20
531.769231
0
VERTEX
8
0
10
195.000000
20
530.000000
0
VERTEX
8
0
10
200.000000
20
530.000000
0
VERTEX
8
0
10
208.000000
20
536.000000
0
VERTEX
8
0
10
208.230769
20
536.846154
0
VERTEX
8
0
10
211.000000
20
542.000000
0
VERTEX
8
0
10
211.000000
20
546.000000
0
VERTEX
8
0
10
200.800000
20
561.900000
0
VERTEX
8
0
10
200.000000
20
563.000000
0
VERTEX
8
0
10
204.000000
20
566.000000
0
VERTEX
8
0
10
212.000000
20
566.000000
0
VERTEX
8
0
10
220.000000
20
561.000000
0
VERTEX
8
0
10
221.000000
20
559.000000
0
VERTEX
8
0
10
226.000000
20
563.000000
0
VERTEX
8
0
10
228.000000
20
566.000000
0
VERTEX
8
0
10
225.769231
20
570.846154
0
VERTEX
8
0
10
224.000000
20
573.000000
0
VERTEX
8
0
10
224.000000
20
575.000000
0
VERTEX
8
0
10
227.900000
20
577.200000
0
VERTEX
8
0
10
229.100000
20
577.800000
0
VERTEX
8
0
10
238.795082
20
583.245902
0
VERTEX
8
0
10
244.204918
20
587.754098
0
VERTEX
8
0
10
252.000000
20
595.000000
0
VERTEX
8
0
10
266.760000
20
617.180000
0
VERTEX
8
0
10
267.000000
20
618.000000
0
VERTEX
8
0
10
273.804878
20
624.243902
0
VERTEX
8
0
10
285.000000
20
633.000000
0
VERTEX
8
0
10
286.000000
20
636.000000
0
VERTEX
8
0
10
284.000000
20
638.000000
0
VERTEX
8
0
10
281.923077
20
638.615385
0
VERTEX
8
0
10
276.000000
20
640.000000
0
VERTEX
8
0
10
275.000000
20
641.000000
0
VERTEX
8
0
10
275.250000
20
641.750000
0
VERTEX
8
0
10
288.000000
20
645.000000
0
VERTEX
8
0
10
289.500000
20
648.000000
0
VERTEX
8
0
10
289.000000
20
650.000000
0
VERTEX
8
0
10
282.846154
20
654.769231
0
VERTEX
8
0
10
282.000000
20
655.000000
0
VERTEX
8
0
10
280.000000
20
657.000000
0
VERTEX
8
0
10
280.000000
20
658.000000
0
VERTEX
8
0
10
288.000000
20
668.000000
0
VERTEX
8
0
10
292.180000
20
670.760000
0
VERTEX
8
0
10
299.100000
20
673.700000
0
VERTEX
8
0
10
300.900000
20
674.300000
0
VERTEX
8
0
10
302.000000
20
675.000000
0
VERTEX
8
0
10
311.000000
20
675.000000
0
VERTEX
8
0
10
314.000000
20
672.000000
0
VERTEX
8
0
10
303.100000
20
668.800000
0
VERTEX
8
0
10
301.000000
20
668.000000
0
VERTEX
8
0
10
298.700000
20
663.100000
0
VERTEX
8
0
10
298.000000
20
662.000000
0
VERTEX
8
0
10
298.700000
20
658.900000
0
VERTEX
8
0
10
300.000000
20
655.000000
0
VERTEX
8
0
10
305.000000
20
652.000000
0
VERTEX
8
0
10
313.000000
20
653.000000
0
VERTEX
8
0
10
319.000000
20
659.000000
0
VERTEX
8
0
10
322.000000
20
666.000000
0
VERTEX
8
0
10
322.000000
20
670.000000
0
VERTEX
8
0
10
319.000000
20
680.000000
0
VERTEX
8
0
10
322.000000
20
682.000000
0
VERTEX
8
0
10
327.088235
20
681.352941
0
VERTEX
8
0
10
331.100000
20
680.200000
0
VERTEX
8
0
10
335.000000
20
677.000000
0
VERTEX
8
0
10
336.594595
20
672.932432
0
VERTEX
8
0
10
337.000000
20
668.000000
0
VERTEX
8
0
10
339.000000
20
666.000000
0
VERTEX
8
0
10
342.100000
20
666.800000
0
VERTEX
8
0
10
343.000000
20
667.000000
0
VERTEX
8
0
10
346.200000
20
671.900000
0
VERTEX
8
0
10
349.000000
20
676.000000
0
VERTEX
8
0
10
351.067568
20
676.594595
0
VERTEX
8
0
10
364.951220
20
678.439024
0
VERTEX
8
0
10
377.900000
20
681.300000
0
VERTEX
8
0
10
394.900000
20
690.200000
0
VERTEX
8
0
10
406.088235
20
695.647059
0
VERTEX
8
0
10
428.900000
20
699.200000
0
VERTEX
8
0
10
433.000000
20
702.000000
0
VERTEX
8
0
10
429.000000
20
706.000000
0
VERTEX
8
0
10
424.153846
20
708.230769
0
VERTEX
8
0
10
422.000000
20
710.000000
0
SEQEND
0
POLYLINE
8
0
6
CONTINUOUS
66
1
62
7
10
0.0
20
0.0
30
0.000000
0
VERTEX
8
0
10
789.000000
20
420.000000
0
VERTEX
8
0
10
788.000000
20
423.000000
0
SEQEND
0
POLYLINE
8
0
6
CONTINUOUS
66
1
62
7
10
0.0
20
0.0
30
0.000000
0
VERTEX
8
0
10
193.000000
20
416.000000
0
VERTEX
8
0
10
195.000000
20
420.000000
0
VERTEX
8
0
10
196.900000
20
421.200000
0
VERTEX
8
0
10
204.000000
20
423.000000
0
VERTEX
8
0
10
204.200000
20
423.900000
0
VERTEX
8
0
10
204.000000
20
427.000000
0
VERTEX
8
0
10
201.100000
20
429.200000
0
VERTEX
8
0
10
193.000000
20
434.000000
0
VERTEX
8
0
10
192.000000
20
433.000000
0
VERTEX
8
0
10
192.000000
20
417.000000
0
VERTEX
8
0
10
193.000000
20
416.000000
0
SEQEND
0
POLYLINE
8
0
6
CONTINUOUS
66
1
62
7
10
0.0
20
0.0
30
0.000000
0
VERTEX
8
0
10
764.000000
20
415.000000
0
VERTEX
8
0
10
766.000000
20
417.000000
0
VERTEX
8
0
10
765.000000
20
422.000000
0
VERTEX
8
0
10
764.000000
20
423.000000
0
VERTEX
8
0
10
762.000000
20
423.000000
0
VERTEX
8
0
10
760.000000
20
421.000000
0
VERTEX
8
0
10
760.000000
20
420.000000
0
VERTEX
8
0
10
763.000000
20
415.000000
0
VERTEX
8
0
10
764.000000
20
415.000000
0
SEQEND
0
POLYLINE
8
0
6
CONTINUOUS
66
1
62
7
10
0.0
20
0.0
30
0.000000
0
VERTEX
8
0
10
204.000000
20
412.000000
0
VERTEX
8
0
10
204.000000
20
418.000000
0
SEQEND
0
POLYLINE
8
0
6
CONTINUOUS
66
1
62
7
10
0.0
20
0.0
30
0.000000
0
VERTEX
8
0
10
863.000000
20
408.000000
0
VERTEX
8
0
10
864.000000
20
410.000000
0
SEQEND
0
POLYLINE
8
0
6
CONTINUOUS
66
1
62
7
10
0.0
20
0.0
30
0.000000
0
VERTEX
8
0
10
98.000000
20
407.000000
0
VERTEX
8
0
10
98.000000
20
410.000000
0
SEQEND
0
POLYLINE
8
0
6
CONTINUOUS
66
1
62
7
10
0.0
20
0.0
30
0.000000
0
VERTEX
8
0
10
168.000000
20
535.000000
0
VERTEX
8
0
10
167.529231
20
517.026154
0
VERTEX
8
0
10
164.569231
20
487.053846
0
VERTEX
8
0
10
163.615385
20
482.076923
0
VERTEX
8
0
10
161.800000
20
478.100000
0
VERTEX
8
0
10
160.000000
20
474.000000
0
VERTEX
8
0
10
158.100000
20
472.800000
0
VERTEX
8
0
10
155.000000
20
471.000000
0
VERTEX
8
0
10
153.000000
20
471.000000
0
VERTEX
8
0
10
149.000000
20
473.000000
0
VERTEX
8
0
10
148.554455
20
481.955446
0
VERTEX
8
0
10
147.000000
20
486.000000
0
VERTEX
8
0
10
145.153846
20
487.230769
0
VERTEX
8
0
10
139.100000
20
490.300000
0
VERTEX
8
0
10
138.000000
20
491.000000
0
VERTEX
8
0
10
134.000000
20
491.000000
0
VERTEX
8
0
10
131.100000
20
489.700000
0
VERTEX
8
0
10
129.900000
20
489.300000
0
VERTEX
8
0
10
126.000000
20
488.000000
0
VERTEX
8
0
10
119.000000
20
481.000000
0
VERTEX
8
0
10
118.200000
20
478.900000
0
VERTEX
8
0
10
117.800000
20
478.100000
0
VERTEX
8
0
10
114.430769
20
470.946154
0
VERTEX
8
0
10
112.420000
20
449.940000
0
VERTEX
8
0
10
112.000000
20
444.000000
0
VERTEX
8
0
10
111.000000
20
443.000000
0
VERTEX
8
0
10
107.000000
20
445.000000
0
VERTEX
8
0
10
102.900000
20
443.200000
0
VERTEX
8
0
10
100.000000
20
441.000000
0
VERTEX
8
0
10
97.200000
20
434.900000
0
VERTEX
8
0
10
96.000000
20
433.000000
0
VERTEX
8
0
10
93.000000
20
434.000000
0
VERTEX
8
0
10
84.000000
20
443.000000
0
VERTEX
8
0
10
77.200000
20
453.100000
0
VERTEX
8
0
10
76.800000
20
453.900000
0
VERTEX
8
0
10
73.000000
20
463.000000
0
VERTEX
8
0
10
68.000000
20
464.000000
0
VERTEX
8
0
10
63.100000
20
460.800000
0
VERTEX
8
0
10
61.100000
20
459.800000
0
VERTEX
8
0
10
57.940000
20
458.420000
0
VERTEX
8
0
10
52.000000
20
458.000000
0
VERTEX
8
0
10
50.000000
20
456.000000
0
VERTEX
8
0
10
48.000000
20
449.000000
0
VERTEX
8
0
10
48.000000
20
443.000000
0
VERTEX
8
0
10
51.200000
20
433.100000
0
VERTEX
8
0
10
56.527027
20
425.662162
0
VERTEX
8
0
10
57.700000
20
422.900000
0
VERTEX
8
0
10
58.000000
20
421.000000
0
VERTEX
8
0
10
61.000000
20
418.000000
0
VERTEX
8
0
10
76.100000
20
412.200000
0
VERTEX
8
0
10
86.153846
20
406.230769
0
VERTEX
8
0
10
90.000000
20
405.000000
0
VERTEX
8
0
10
91.000000
20
406.000000
0
VERTEX
8
0
10
87.752212
20
409.783186
0
VERTEX
8
0
10
76.000000
20
423.000000
0
VERTEX
8
0
10
69.153846
20
428.230769
0
VERTEX
8
0
10
60.000000
20
435.000000
0
VERTEX
8
0
10
56.000000
20
448.000000
0
VERTEX
8
0
10
56.250000
20
448.750000
0
VERTEX
8
0
10
63.000000
20
449.000000
0
VERTEX
8
0
10
65.800000
20
453.100000
0
VERTEX
8
0
10
66.000000
20
454.000000
0
VERTEX
8
0
10
68.000000
20
455.000000
0
VERTEX
8
0
10
69.800000
20
451.900000
0
VERTEX
8
0
10
76.248276
20
441.220690
0
VERTEX
8
0
10
87.756098
20
427.804878
0
VERTEX
8
0
10
95.800000
20
411.900000
0
VERTEX
8
0
10
96.000000
20
411.000000
0
VERTEX
8
0
10
98.000000
20
410.000000
0
SEQEND
0
POLYLINE
8
0
6
CONTINUOUS
66
1
62
7
10
0.0
20
0.0
30
0.000000
0
VERTEX
8
0
10
192.000000
20
405.000000
0
VERTEX
8
0
10
192.000000
20
407.000000
0
SEQEND
0
POLYLINE
8
0
6
CONTINUOUS
66
1
62
7
10
0.0
20
0.0
30
0.000000
0
VERTEX
8
0
10
758.000000
20
405.000000
0
VERTEX
8
0
10
756.000000
20
411.000000
0
VERTEX
8
0
10
757.000000
20
427.000000
0
VERTEX
8
0
10
760.000000
20
430.000000
0
VERTEX
8
0
10
763.100000
20
430.800000
0
VERTEX
8
0
10
766.000000
20
433.000000
0
VERTEX
8
0
10
766.000000
20
436.000000
0
VERTEX
8
0
10
765.000000
20
437.000000
0
VERTEX
8
0
10
760.000000
20
438.000000
0
VERTEX
8
0
10
758.000000
20
436.000000
0
VERTEX
8
0
10
757.000000
20
436.000000
0
VERTEX
8
0
10
755.000000
20
438.000000
0
VERTEX
8
0
10
748.352941
20
463.088235
0
VERTEX
8
0
10
744.000000
20
479.000000
0
VERTEX
8
0
10
744.000000
20
486.000000
0
VERTEX
8
0
10
747.100000
20
487.800000
0
VERTEX
8
0
10
751.000000
20
489.000000
0
VERTEX
8
0
10
754.000000
20
492.000000
0
VERTEX
8
0
10
755.000000
20
495.000000
0
SEQEND
0
POLYLINE
8
0
6
CONTINUOUS
66
1
62
7
10
0.0
20
0.0
30
0.000000
0
VERTEX
8
0
10
758.000000
20
405.000000
0
VERTEX
8
0
10
760.153846
20
406.769231
0
VERTEX
8
0
10
767.750000
20
408.250000
0
VERTEX
8
0
10
769.000000
20
411.000000
0
VERTEX
8
0
10
769.000000
20
432.000000
0
VERTEX
8
0
10
766.569231
20
447.946154
0
VERTEX
8
0
10
761.647059
20
471.911765
0
VERTEX
8
0
10
755.000000
20
495.000000
0
SEQEND
0
POLYLINE
8
0
6
CONTINUOUS
66
1
62
7
10
0.0
20
0.0
30
0.000000
0
VERTEX
8
0
10
758.000000
20
404.000000
0
VERTEX
8
0
10
758.000000
20
405.000000
0
SEQEND
0
POLYLINE
8
0
6
CONTINUOUS
66
1
62
7
10
0.0
20
0.0
30
0.000000
0
VERTEX
8
0
10
864.000000
20
410.000000
0
VERTEX
8
0
10
864.800000
20
411.100000
0
VERTEX
8
0
10
874.000000
20
429.000000
0
VERTEX
8
0
10
882.000000
20
437.000000
0
VERTEX
8
0
10
883.000000
20
437.000000
0
VERTEX
8
0
10
886.300000
20
443.900000
0
VERTEX
8
0
10
886.800000
20
445.100000
0
VERTEX
8
0
10
893.000000
20
452.000000
0
VERTEX
8
0
10
895.000000
20
452.000000
0
VERTEX
8
0
10
896.000000
20
450.000000
0
VERTEX
8
0
10
905.000000
20
448.000000
0
VERTEX
8
0
10
904.300000
20
445.900000
0
VERTEX
8
0
10
903.700000
20
444.100000
0
VERTEX
8
0
10
897.000000
20
433.000000
0
VERTEX
8
0
10
876.795082
20
415.245902
0
VERTEX
8
0
10
876.000000
20
415.000000
0
VERTEX
8
0
10
869.000000
20
406.000000
0
VERTEX
8
0
10
870.000000
20
404.000000
0
VERTEX
8
0
10
874.900000
20
407.200000
0
VERTEX
8
0
10
883.100000
20
411.800000
0
VERTEX
8
0
10
894.100000
20
415.700000
0
VERTEX
8
0
10
901.000000
20
418.000000
0
VERTEX
8
0
10
909.200000
20
432.900000
0
VERTEX
8
0
10
911.300000
20
437.900000
0
VERTEX
8
0
10
913.000000
20
443.000000
0
VERTEX
8
0
10
911.000000
20
455.000000
0
VERTEX
8
0
10
899.900000
20
460.700000
0
VERTEX
8
0
10
890.000000
20
464.000000
0
VERTEX
8
0
10
887.000000
20
463.000000
0
VERTEX
8
0
10
886.000000
20
462.000000
0
VERTEX
8
0
10
885.594595
20
457.067568
0
VERTEX
8
0
10
880.760000
20
448.180000
0
VERTEX
8
0
10
878.240000
20
444.820000
0
VERTEX
8
0
10
869.000000
20
435.000000
0
VERTEX
8
0
10
866.000000
20
434.000000
0
VERTEX
8
0
10
857.000000
20
442.000000
0
VERTEX
8
0
10
857.000000
20
443.000000
0
VERTEX
8
0
10
855.000000
20
445.000000
0
VERTEX
8
0
10
853.000000
20
445.000000
0
VERTEX
8
0
10
850.000000
20
442.000000
0
VERTEX
8
0
10
849.000000
20
443.000000
0
VERTEX
8
0
10
846.384615
20
468.076923
0
VERTEX
8
0
10
842.000000
20
482.000000
0
VERTEX
8
0
10
838.000000
20
486.000000
0
VERTEX
8
0
10
829.000000
20
490.000000
0
VERTEX
8
0
10
824.000000
20
490.000000
0
VERTEX
8
0
10
815.000000
20
486.000000
0
VERTEX
8
0
10
812.200000
20
481.900000
0
VERTEX
8
0
10
811.000000
20
478.000000
0
VERTEX
8
0
10
815.000000
20
473.000000
0
VERTEX
8
0
10
818.000000
20
472.000000
0
VERTEX
8
0
10
827.000000
20
480.000000
0
VERTEX
8
0
10
833.911765
20
478.647059
0
VERTEX
8
0
10
837.000000
20
477.000000
0
SEQEND
0
POLYLINE
8
0
6
CONTINUOUS
66
1
62
7
10
0.0
20
0.0
30
0.000000
0
VERTEX
8
0
10
192.000000
20
405.000000
0
VERTEX
8
0
10
193.000000
20
405.000000
0
VERTEX
8
0
10
195.000000
20
401.000000
0
VERTEX
8
0
10
196.000000
20
400.000000
0
VERTEX
8
0
10
200.000000
20
401.000000
0
VERTEX
8
0
10
203.000000
20
412.000000
0
VERTEX
8
0
10
204.000000
20
412.000000
0
SEQEND
0
POLYLINE
8
0
6
CONTINUOUS
66
1
62
7
10
0.0
20
0.0
30
0.000000
0
VERTEX
8
0
10
771.000000
20
400.000000
0
VERTEX
8
0
10
770.000000
20
401.000000
0
SEQEND
0
POLYLINE
8
0
6
CONTINUOUS
66
1
62
7
10
0.0
20
0.0
30
0.000000
0
VERTEX
8
0
10
771.000000
20
400.000000
0
VERTEX
8
0
10
772.000000
20
401.000000
0
VERTEX
8
0
10
771.000000
20
402.000000
0
VERTEX
8
0
10
770.000000
20
401.000000
0
SEQEND
0
POLYLINE
8
0
6
CONTINUOUS
66
1
62
7
10
0.0
20
0.0
30
0.000000
0
VERTEX
8
0
10
117.000000
20
385.000000
0
VERTEX
8
0
10
115.000000
20
385.000000
0
SEQEND
0
POLYLINE
8
0
6
CONTINUOUS
66
1
62
7
10
0.0
20
0.0
30
0.000000
0
VERTEX
8
0
10
845.000000
20
385.000000
0
VERTEX
8
0
10
843.000000
20
385.000000
0
SEQEND
0
POLYLINE
8
0
6
CONTINUOUS
66
1
62
7
10
0.0
20
0.0
30
0.000000
0
VERTEX
8
0
10
115.000000
20
385.000000
0
VERTEX
8
0
10
111.100000
20
387.300000
0
VERTEX
8
0
10
97.000000
20
392.000000
0
VERTEX
8
0
10
92.900000
20
391.300000
0
VERTEX
8
0
10
89.000000
20
390.000000
0
VERTEX
8
0
10
87.000000
20
388.000000
0
VERTEX
8
0
10
87.000000
20
384.000000
0
VERTEX
8
0
10
92.000000
20
382.000000
0
VERTEX
8
0
10
106.000000
20
382.000000
0
VERTEX
8
0
10
113.911765
20
384.352941
0
VERTEX
8
0
10
115.000000
20
385.000000
0
SEQEND
0
POLYLINE
8
0
6
CONTINUOUS
66
1
62
7
10
0.0
20
0.0
30
0.000000
0
VERTEX
8
0
10
845.000000
20
385.000000
0
VERTEX
8
0
10
854.000000
20
382.000000
0
VERTEX
8
0
10
870.000000
20
382.000000
0
VERTEX
8
0
10
873.000000
20
383.000000
0
VERTEX
8
0
10
875.000000
20
385.000000
0
VERTEX
8
0
10
874.000000
20
388.000000
0
VERTEX
8
0
10
871.000000
20
391.000000
0
VERTEX
8
0
10
865.000000
20
392.000000
0
VERTEX
8
0
10
859.911765
20
390.352941
0
VERTEX
8
0
10
848.100000
20
386.800000
0
VERTEX
8
0
10
845.000000
20
385.000000
0
SEQEND
0
POLYLINE
8
0
6
CONTINUOUS
66
1
62
7
10
0.0
20
0.0
30
0.000000
0
VERTEX
8
0
10
770.000000
20
379.000000
0
VERTEX
8
0
10
770.000000
20
385.000000
0
VERTEX
8
0
10
769.000000
20
386.000000
0
VERTEX
8
0
10
767.000000
20
386.000000
0
VERTEX
8
0
10
766.000000
20
385.000000
0
VERTEX
8
0
10
766.250000
20
379.250000
0
VERTEX
8
0
10
769.000000
20
379.000000
0
VERTEX
8
0
10
770.000000
20
379.000000
0
SEQEND
0
POLYLINE
8
0
6
CONTINUOUS
66
1
62
7
10
0.0
20
0.0
30
0.000000
0
VERTEX
8
0
10
198.000000
20
369.000000
0
VERTEX
8
0
10
201.000000
20
373.000000
0
VERTEX
8
0
10
201.000000
20
375.000000
0
VERTEX
8
0
10
198.000000
20
379.000000
0
VERTEX
8
0
10
196.000000
20
377.000000
0
VERTEX
8
0
10
195.000000
20
372.000000
0
VERTEX
8
0
10
198.000000
20
369.000000
0
SEQEND
0
POLYLINE
8
0
6
CONTINUOUS
66
1
62
7
10
0.0
20
0.0
30
0.000000
0
VERTEX
8
0
10
787.000000
20
367.000000
0
VERTEX
8
0
10
786.000000
20
368.000000
0
SEQEND
0
POLYLINE
8
0
6
CONTINUOUS
66
1
62
7
10
0.0
20
0.0
30
0.000000
0
VERTEX
8
0
10
787.000000
20
367.000000
0
VERTEX
8
0
10
788.000000
20
369.000000
0
VERTEX
8
0
10
787.000000
20
370.000000
0
VERTEX
8
0
10
786.000000
20
368.000000
0
SEQEND
0
POLYLINE
8
0
6
CONTINUOUS
66
1
62
7
10
0.0
20
0.0
30
0.000000
0
VERTEX
8
0
10
192.000000
20
405.000000
0
VERTEX
8
0
10
193.000000
20
395.000000
0
VERTEX
8
0
10
201.000000
20
389.000000
0
VERTEX
8
0
10
199.000000
20
387.000000
0
VERTEX
8
0
10
193.000000
20
387.000000
0
VERTEX
8
0
10
192.000000
20
386.000000
0
VERTEX
8
0
10
191.000000
20
381.000000
0
VERTEX
8
0
10
192.000000
20
368.000000
0
VERTEX
8
0
10
197.000000
20
365.000000
0
VERTEX
8
0
10
202.000000
20
366.000000
0
VERTEX
8
0
10
203.000000
20
367.000000
0
VERTEX
8
0
10
204.000000
20
412.000000
0
SEQEND
0
POLYLINE
8
0
6
CONTINUOUS
66
1
62
7
10
0.0
20
0.0
30
0.000000
0
VERTEX
8
0
10
132.000000
20
355.000000
0
VERTEX
8
0
10
140.100000
20
357.800000
0
VERTEX
8
0
10
149.000000
20
363.000000
0
VERTEX
8
0
10
154.000000
20
368.000000
0
VERTEX
8
0
10
158.700000
20
375.100000
0
VERTEX
8
0
10
159.300000
20
376.900000
0
VERTEX
8
0
10
159.750000
20
379.750000
0
VERTEX
8
0
10
155.900000
20
379.200000
0
VERTEX
8
0
10
155.100000
20
378.800000
0
VERTEX
8
0
10
141.000000
20
373.000000
0
VERTEX
8
0
10
113.026154
20
374.470769
0
VERTEX
8
0
10
112.000000
20
375.000000
0
VERTEX
8
0
10
102.000000
20
375.000000
0
VERTEX
8
0
10
100.900000
20
374.200000
0
VERTEX
8
0
10
93.000000
20
366.000000
0
VERTEX
8
0
10
78.900000
20
370.800000
0
VERTEX
8
0
10
75.000000
20
372.000000
0
VERTEX
8
0
10
73.000000
20
370.000000
0
VERTEX
8
0
10
76.000000
20
366.000000
0
VERTEX
8
0
10
84.100000
20
361.300000
0
VERTEX
8
0
10
98.088235
20
357.352941
0
VERTEX
8
0
10
100.911765
20
356.647059
0
VERTEX
8
0
10
112.022624
20
355.475113
0
VERTEX
8
0
10
132.000000
20
355.000000
0
SEQEND
0
POLYLINE
8
0
6
CONTINUOUS
66
1
62
7
10
0.0
20
0.0
30
0.000000
0
VERTEX
8
0
10
195.000000
20
355.000000
0
VERTEX
8
0
10
195.000000
20
361.000000
0
VERTEX
8
0
10
194.000000
20
362.000000
0
VERTEX
8
0
10
192.000000
20
362.000000
0
VERTEX
8
0
10
191.000000
20
361.000000
0
VERTEX
8
0
10
191.250000
20
355.250000
0
VERTEX
8
0
10
194.000000
20
355.000000
0
VERTEX
8
0
10
195.000000
20
355.000000
0
SEQEND
0
POLYLINE
8
0
6
CONTINUOUS
66
1
62
7
10
0.0
20
0.0
30
0.000000
0
VERTEX
8
0
10
849.000000
20
355.000000
0
VERTEX
8
0
10
864.076923
20
357.615385
0
VERTEX
8
0
10
877.100000
20
361.700000
0
VERTEX
8
0
10
881.000000
20
363.000000
0
VERTEX
8
0
10
886.000000
20
368.000000
0
VERTEX
8
0
10
885.750000
20
370.750000
0
VERTEX
8
0
10
880.900000
20
370.300000
0
VERTEX
8
0
10
868.000000
20
366.000000
0
VERTEX
8
0
10
860.100000
20
374.200000
0
VERTEX
8
0
10
859.000000
20
375.000000
0
VERTEX
8
0
10
822.000000
20
373.000000
0
VERTEX
8
0
10
813.100000
20
376.300000
0
VERTEX
8
0
10
806.900000
20
378.700000
0
VERTEX
8
0
10
803.000000
20
380.000000
0
VERTEX
8
0
10
801.000000
20
378.000000
0
VERTEX
8
0
10
803.000000
20
373.000000
0
VERTEX
8
0
10
817.000000
20
359.000000
0
VERTEX
8
0
10
819.100000
20
358.200000
0
VERTEX
8
0
10
821.100000
20
357.200000
0
VERTEX
8
0
10
835.030973
20
355.464602
0
VERTEX
8
0
10
849.000000
20
355.000000
0
SEQEND
0
POLYLINE
8
0
6
CONTINUOUS
66
1
62
7
10
0.0
20
0.0
30
0.000000
0
VERTEX
8
0
10
108.000000
20
346.000000
0
VERTEX
8
0
10
104.000000
20
346.000000
0
SEQEND
0
POLYLINE
8
0
6
CONTINUOUS
66
1
62
7
10
0.0
20
0.0
30
0.000000
0
VERTEX
8
0
10
104.000000
20
346.000000
0
VERTEX
8
0
10
82.900000
20
353.800000
0
VERTEX
8
0
10
74.204918
20
358.245902
0
VERTEX
8
0
10
64.000000
20
367.000000
0
VERTEX
8
0
10
54.000000
20
382.000000
0
VERTEX
8
0
10
49.000000
20
387.000000
0
VERTEX
8
0
10
47.000000
20
386.000000
0
VERTEX
8
0
10
45.700000
20
383.100000
0
VERTEX
8
0
10
45.000000
20
382.000000
0
VERTEX
8
0
10
45.000000
20
377.000000
0
VERTEX
8
0
10
46.300000
20
374.100000
0
VERTEX
8
0
10
46.800000
20
372.900000
0
VERTEX
8
0
10
52.000000
20
366.000000
0
VERTEX
8
0
10
61.195122
20
359.243902
0
VERTEX
8
0
10
77.100000
20
350.200000
0
VERTEX
8
0
10
79.100000
20
349.200000
0
VERTEX
8
0
10
96.000000
20
345.000000
0
VERTEX
8
0
10
103.000000
20
345.000000
0
VERTEX
8
0
10
104.000000
20
346.000000
0
SEQEND
0
POLYLINE
8
0
6
CONTINUOUS
66
1
62
7
10
0.0
20
0.0
30
0.000000
0
VERTEX
8
0
10
864.000000
20
345.000000
0
VERTEX
8
0
10
874.911765
20
347.352941
0
VERTEX
8
0
10
884.100000
20
350.800000
0
VERTEX
8
0
10
888.100000
20
352.800000
0
VERTEX
8
0
10
899.804878
20
359.243902
0
VERTEX
8
0
10
912.000000
20
369.000000
0
VERTEX
8
0
10
916.000000
20
377.000000
0
VERTEX
8
0
10
915.000000
20
383.000000
0
VERTEX
8
0
10
912.000000
20
386.000000
0
VERTEX
8
0
10
910.000000
20
386.000000
0
VERTEX
8
0
10
905.000000
20
381.000000
0
VERTEX
8
0
10
904.200000
20
378.900000
0
VERTEX
8
0
10
898.000000
20
367.000000
0
VERTEX
8
0
10
888.804878
20
359.243902
0
VERTEX
8
0
10
878.911765
20
353.352941
0
VERTEX
8
0
10
874.900000
20
352.300000
0
VERTEX
8
0
10
860.000000
20
347.000000
0
VERTEX
8
0
10
859.000000
20
346.000000
0
VERTEX
8
0
10
860.000000
20
345.000000
0
VERTEX
8
0
10
864.000000
20
345.000000
0
SEQEND
0
POLYLINE
8
0
6
CONTINUOUS
66
1
62
7
10
0.0
20
0.0
30
0.000000
0
VERTEX
8
0
10
202.000000
20
341.000000
0
VERTEX
8
0
10
205.000000
20
344.000000
0
VERTEX
8
0
10
205.000000
20
345.000000
0
VERTEX
8
0
10
202.000000
20
348.000000
0
VERTEX
8
0
10
200.000000
20
348.000000
0
VERTEX
8
0
10
198.000000
20
346.000000
0
VERTEX
8
0
10
198.000000
20
344.000000
0
VERTEX
8
0
10
201.000000
20
341.000000
0
VERTEX
8
0
10
202.000000
20
341.000000
0
SEQEND
0
POLYLINE
8
0
6
CONTINUOUS
66
1
62
7
10
0.0
20
0.0
30
0.000000
0
VERTEX
8
0
10
760.000000
20
341.000000
0
VERTEX
8
0
10
761.600000
20
343.200000
0
VERTEX
8
0
10
763.000000
20
348.000000
0
VERTEX
8
0
10
761.000000
20
350.000000
0
VERTEX
8
0
10
760.000000
20
350.000000
0
VERTEX
8
0
10
758.000000
20
348.000000
0
VERTEX
8
0
10
756.000000
20
344.000000
0
VERTEX
8
0
10
759.000000
20
341.000000
0
VERTEX
8
0
10
760.000000
20
341.000000
0
SEQEND
0
POLYLINE
8
0
6
CONTINUOUS
66
1
62
7
10
0.0
20
0.0
30
0.000000
0
VERTEX
8
0
10
137.000000
20
338.000000
0
VERTEX
8
0
10
137.000000
20
344.000000
0
VERTEX
8
0
10
136.000000
20
345.000000
0
VERTEX
8
0
10
134.000000
20
345.000000
0
VERTEX
8
0
10
133.000000
20
344.000000
0
VERTEX
8
0
10
133.250000
20
338.250000
0
VERTEX
8
0
10
136.000000
20
338.000000
0
VERTEX
8
0
10
137.000000
20
338.000000
0
SEQEND
0
POLYLINE
8
0
6
CONTINUOUS
66
1
62
7
10
0.0
20
0.0
30
0.000000
0
VERTEX
8
0
10
828.000000
20
338.000000
0
VERTEX
8
0
10
828.000000
20
344.000000
0
VERTEX
8
0
10
827.000000
20
345.000000
0
VERTEX
8
0
10
825.000000
20
345.000000
0
VERTEX
8
0
10
824.000000
20
344.000000
0
VERTEX
8
0
10
824.250000
20
338.250000
0
VERTEX
8
0
10
827.000000
20
338.000000
0
VERTEX
8
0
10
828.000000
20
338.000000
0
SEQEND
0
POLYLINE
8
0
6
CONTINUOUS
66
1
62
7
10
0.0
20
0.0
30
0.000000
0
VERTEX
8
0
10
205.000000
20
328.000000
0
VERTEX
8
0
10
208.000000
20
331.000000
0
VERTEX
8
0
10
207.000000
20
334.000000
0
VERTEX
8
0
10
206.000000
20
335.000000
0
VERTEX
8
0
10
204.000000
20
335.000000
0
VERTEX
8
0
10
201.000000
20
332.000000
0
VERTEX
8
0
10
201.000000
20
330.000000
0
VERTEX
8
0
10
202.900000
20
328.800000
0
VERTEX
8
0
10
205.000000
20
328.000000
0
SEQEND
0
POLYLINE
8
0
6
CONTINUOUS
66
1
62
7
10
0.0
20
0.0
30
0.000000
0
VERTEX
8
0
10
757.000000
20
328.000000
0
VERTEX
8
0
10
760.000000
20
331.000000
0
VERTEX
8
0
10
760.000000
20
332.000000
0
VERTEX
8
0
10
757.000000
20
335.000000
0
VERTEX
8
0
10
755.000000
20
335.000000
0
VERTEX
8
0
10
753.000000
20
332.000000
0
VERTEX
8
0
10
753.000000
20
330.000000
0
VERTEX
8
0
10
757.000000
20
328.000000
0
SEQEND
0
POLYLINE
8
0
6
CONTINUOUS
66
1
62
7
10
0.0
20
0.0
30
0.000000
0
VERTEX
8
0
10
204.000000
20
314.000000
0
VERTEX
8
0
10
204.000000
20
316.000000
0
SEQEND
0
POLYLINE
8
0
6
CONTINUOUS
66
1
62
7
10
0.0
20
0.0
30
0.000000
0
VERTEX
8
0
10
204.000000
20
316.000000
0
VERTEX
8
0
10
208.000000
20
321.000000
0
VERTEX
8
0
10
209.000000
20
321.000000
0
VERTEX
8
0
10
211.200000
20
317.100000
0
VERTEX
8
0
10
212.000000
20
316.000000
0
VERTEX
8
0
10
211.200000
20
313.900000
0
VERTEX
8
0
10
205.800000
20
308.100000
0
VERTEX
8
0
10
205.000000
20
303.000000
0
VERTEX
8
0
10
206.000000
20
302.000000
0
VERTEX
8
0
10
206.804878
20
302.243902
0
VERTEX
8
0
10
211.000000
20
306.000000
0
VERTEX
8
0
10
216.000000
20
306.000000
0
VERTEX
8
0
10
217.000000
20
305.000000
0
VERTEX
8
0
10
218.000000
20
306.000000
0
VERTEX
8
0
10
217.405405
20
310.067568
0
VERTEX
8
0
10
206.000000
20
357.000000
0
VERTEX
8
0
10
204.000000
20
359.000000
0
VERTEX
8
0
10
201.900000
20
358.200000
0
VERTEX
8
0
10
201.000000
20
358.000000
0
VERTEX
8
0
10
196.800000
20
352.100000
0
VERTEX
8
0
10
195.000000
20
347.000000
0
VERTEX
8
0
10
195.000000
20
342.000000
0
VERTEX
8
0
10
197.352941
20
334.088235
0
VERTEX
8
0
10
197.647059
20
332.911765
0
VERTEX
8
0
10
202.000000
20
317.000000
0
VERTEX
8
0
10
204.000000
20
316.000000
0
SEQEND
0
POLYLINE
8
0
6
CONTINUOUS
66
1
62
7
10
0.0
20
0.0
30
0.000000
0
VERTEX
8
0
10
754.000000
20
299.000000
0
VERTEX
8
0
10
752.000000
20
305.000000
0
VERTEX
8
0
10
751.000000
20
306.000000
0
VERTEX
8
0
10
743.250000
20
305.250000
0
VERTEX
8
0
10
749.352941
20
331.911765
0
VERTEX
8
0
10
753.700000
20
347.100000
0
VERTEX
8
0
10
756.000000
20
353.000000
0
VERTEX
8
0
10
766.000000
20
359.000000
0
VERTEX
8
0
10
765.200000
20
362.100000
0
VERTEX
8
0
10
765.000000
20
363.000000
0
VERTEX
8
0
10
758.000000
20
365.000000
0
VERTEX
8
0
10
757.800000
20
365.900000
0
VERTEX
8
0
10
756.000000
20
373.000000
0
VERTEX
8
0
10
756.000000
20
382.000000
0
VERTEX
8
0
10
758.352941
20
391.911765
0
VERTEX
8
0
10
758.800000
20
393.100000
0
VERTEX
8
0
10
760.000000
20
396.000000
0
VERTEX
8
0
10
763.000000
20
399.000000
0
VERTEX
8
0
10
768.100000
20
400.700000
0
VERTEX
8
0
10
770.000000
20
401.000000
0
SEQEND
0
POLYLINE
8
0
6
CONTINUOUS
66
1
62
7
10
0.0
20
0.0
30
0.000000
0
VERTEX
8
0
10
754.000000
20
299.000000
0
VERTEX
8
0
10
756.647059
20
304.088235
0
VERTEX
8
0
10
759.000000
20
312.000000
0
VERTEX
8
0
10
758.000000
20
313.000000
0
VERTEX
8
0
10
756.000000
20
312.000000
0
VERTEX
8
0
10
751.000000
20
312.000000
0
VERTEX
8
0
10
749.800000
20
313.900000
0
VERTEX
8
0
10
749.000000
20
315.000000
0
VERTEX
8
0
10
750.000000
20
319.000000
0
VERTEX
8
0
10
751.000000
20
320.000000
0
VERTEX
8
0
10
753.000000
20
320.000000
0
VERTEX
8
0
10
754.000000
20
319.000000
0
VERTEX
8
0
10
761.000000
20
320.000000
0
VERTEX
8
0
10
762.000000
20
321.000000
0
VERTEX
8
0
10
765.615385
20
336.076923
0
VERTEX
8
0
10
766.580000
20
341.060000
0
VERTEX
8
0
10
770.000000
20
365.000000
0
VERTEX
8
0
10
769.000000
20
367.000000
0
VERTEX
8
0
10
766.000000
20
370.000000
0
VERTEX
8
0
10
762.000000
20
370.000000
0
VERTEX
8
0
10
761.000000
20
371.000000
0
VERTEX
8
0
10
761.000000
20
382.000000
0
VERTEX
8
0
10
764.240000
20
391.820000
0
VERTEX
8
0
10
771.000000
20
400.000000
0
SEQEND
0
POLYLINE
8
0
6
CONTINUOUS
66
1
62
7
10
0.0
20
0.0
30
0.000000
0
VERTEX
8
0
10
754.000000
20
297.000000
0
VERTEX
8
0
10
754.000000
20
299.000000
0
SEQEND
0
POLYLINE
8
0
6
CONTINUOUS
66
1
62
7
10
0.0
20
0.0
30
0.000000
0
VERTEX
8
0
10
126.000000
20
292.000000
0
VERTEX
8
0
10
132.000000
20
301.000000
0
VERTEX
8
0
10
132.000000
20
331.000000
0
VERTEX
8
0
10
130.000000
20
334.000000
0
VERTEX
8
0
10
128.000000
20
334.000000
0
VERTEX
8
0
10
115.800000
20
318.100000
0
VERTEX
8
0
10
114.000000
20
315.000000
0
VERTEX
8
0
10
115.700000
20
308.900000
0
VERTEX
8
0
10
122.000000
20
294.000000
0
VERTEX
8
0
10
126.000000
20
292.000000
0
SEQEND
0
POLYLINE
8
0
6
CONTINUOUS
66
1
62
7
10
0.0
20
0.0
30
0.000000
0
VERTEX
8
0
10
837.000000
20
291.000000
0
VERTEX
8
0
10
837.800000
20
292.100000
0
VERTEX
8
0
10
847.000000
20
312.000000
0
VERTEX
8
0
10
847.000000
20
314.000000
0
VERTEX
8
0
10
832.000000
20
335.000000
0
VERTEX
8
0
10
831.000000
20
334.000000
0
VERTEX
8
0
10
828.000000
20
322.000000
0
VERTEX
8
0
10
828.000000
20
314.000000
0
VERTEX
8
0
10
830.405405
20
298.067568
0
VERTEX
8
0
10
831.200000
20
296.100000
0
VERTEX
8
0
10
834.000000
20
292.000000
0
VERTEX
8
0
10
837.000000
20
291.000000
0
SEQEND
0
POLYLINE
8
0
6
CONTINUOUS
66
1
62
7
10
0.0
20
0.0
30
0.000000
0
VERTEX
8
0
10
750.000000
20
289.000000
0
VERTEX
8
0
10
752.000000
20
292.000000
0
VERTEX
8
0
10
750.000000
20
297.000000
0
VERTEX
8
0
10
747.900000
20
297.700000
0
VERTEX
8
0
10
741.000000
20
300.000000
0
VERTEX
8
0
10
740.000000
20
299.000000
0
VERTEX
8
0
10
740.800000
20
296.900000
0
VERTEX
8
0
10
741.000000
20
296.000000
0
VERTEX
8
0
10
746.900000
20
290.800000
0
VERTEX
8
0
10
750.000000
20
289.000000
0
SEQEND
0
POLYLINE
8
0
6
CONTINUOUS
66
1
62
7
10
0.0
20
0.0
30
0.000000
0
VERTEX
8
0
10
812.000000
20
286.000000
0
VERTEX
8
0
10
812.000000
20
289.000000
0
SEQEND
0
POLYLINE
8
0
6
CONTINUOUS
66
1
62
7
10
0.0
20
0.0
30
0.000000
0
VERTEX
8
0
10
837.000000
20
477.000000
0
VERTEX
8
0
10
832.846154
20
474.230769
0
VERTEX
8
0
10
830.000000
20
473.000000
0
VERTEX
8
0
10
826.000000
20
469.000000
0
VERTEX
8
0
10
826.000000
20
467.000000
0
VERTEX
8
0
10
828.000000
20
465.000000
0
VERTEX
8
0
10
830.088235
20
464.352941
0
VERTEX
8
0
10
836.911765
20
462.647059
0
VERTEX
8
0
10
840.000000
20
461.000000
0
VERTEX
8
0
10
840.000000
20
459.000000
0
VERTEX
8
0
10
836.000000
20
455.000000
0
VERTEX
8
0
10
835.523711
20
434.021649
0
VERTEX
8
0
10
831.800000
20
426.100000
0
VERTEX
8
0
10
831.200000
20
424.900000
0
VERTEX
8
0
10
830.000000
20
422.000000
0
VERTEX
8
0
10
820.100000
20
412.800000
0
VERTEX
8
0
10
811.000000
20
409.000000
0
VERTEX
8
0
10
807.000000
20
410.000000
0
VERTEX
8
0
10
805.000000
20
412.000000
0
VERTEX
8
0
10
806.000000
20
424.000000
0
VERTEX
8
0
10
804.000000
20
426.000000
0
VERTEX
8
0
10
801.000000
20
426.000000
0
VERTEX
8
0
10
795.000000
20
423.000000
0
VERTEX
8
0
10
795.000000
20
417.000000
0
VERTEX
8
0
10
795.800000
20
415.900000
0
VERTEX
8
0
10
797.000000
20
413.000000
0
VERTEX
8
0
10
803.000000
20
407.000000
0
VERTEX
8
0
10
808.000000
20
406.000000
0
VERTEX
8
0
10
813.000000
20
406.000000
0
VERTEX
8
0
10
819.911765
20
408.352941
0
VERTEX
8
0
10
830.795082
20
414.245902
0
VERTEX
8
0
10
839.000000
20
421.000000
0
VERTEX
8
0
10
841.000000
20
420.000000
0
VERTEX
8
0
10
842.200000
20
417.100000
0
VERTEX
8
0
10
844.000000
20
410.000000
0
VERTEX
8
0
10
844.000000
20
404.000000
0
VERTEX
8
0
10
840.769231
20
393.153846
0
VERTEX
8
0
10
839.230769
20
390.846154
0
VERTEX
8
0
10
835.000000
20
386.000000
0
VERTEX
8
0
10
826.000000
20
381.000000
0
VERTEX
8
0
10
818.000000
20
381.000000
0
VERTEX
8
0
10
815.100000
20
382.300000
0
VERTEX
8
0
10
807.000000
20
387.000000
0
VERTEX
8
0
10
806.000000
20
388.000000
0
VERTEX
8
0
10
806.750000
20
400.750000
0
VERTEX
8
0
10
806.000000
20
401.000000
0
VERTEX
8
0
10
801.000000
20
402.000000
0
VERTEX
8
0
10
799.000000
20
401.000000
0
VERTEX
8
0
10
795.700000
20
394.100000
0
VERTEX
8
0
10
794.647059
20
390.088235
0
VERTEX
8
0
10
794.000000
20
389.000000
0
VERTEX
8
0
10
794.000000
20
379.000000
0
VERTEX
8
0
10
795.352941
20
375.088235
0
VERTEX
8
0
10
805.200000
20
357.100000
0
VERTEX
8
0
10
816.200000
20
338.100000
0
VERTEX
8
0
10
820.000000
20
328.000000
0
VERTEX
8
0
10
820.000000
20
319.000000
0
VERTEX
8
0
10
812.100000
20
313.800000
0
VERTEX
8
0
10
809.000000
20
312.000000
0
VERTEX
8
0
10
808.000000
20
310.000000
0
VERTEX
8
0
10
809.200000
20
306.100000
0
VERTEX
8
0
10
810.000000
20
304.000000
0
VERTEX
8
0
10
835.900000
20
283.700000
0
VERTEX
8
0
10
837.000000
20
283.000000
0
VERTEX
8
0
10
840.100000
20
283.800000
0
VERTEX
8
0
10
841.000000
20
284.000000
0
VERTEX
8
0
10
845.200000
20
290.900000
0
VERTEX
8
0
10
848.200000
20
295.900000
0
VERTEX
8
0
10
857.000000
20
315.000000
0
VERTEX
8
0
10
854.750594
20
319.767221
0
VERTEX
8
0
10
836.000000
20
340.000000
0
VERTEX
8
0
10
837.000000
20
341.000000
0
VERTEX
8
0
10
852.017808
20
342.519178
0
VERTEX
8
0
10
877.982192
20
343.480822
0
VERTEX
8
0
10
888.900000
20
346.200000
0
VERTEX
8
0
10
895.100000
20
348.800000
0
VERTEX
8
0
10
901.783186
20
352.247788
0
VERTEX
8
0
10
909.216814
20
358.752212
0
VERTEX
8
0
10
917.240000
20
366.820000
0
VERTEX
8
0
10
920.230769
20
370.846154
0
VERTEX
8
0
10
926.700000
20
381.100000
0
VERTEX
8
0
10
927.300000
20
382.900000
0
VERTEX
8
0
10
930.560976
20
392.048780
0
VERTEX
8
0
10
931.439024
20
399.951220
0
VERTEX
8
0
10
932.000000
20
410.000000
0
VERTEX
8
0
10
931.352941
20
411.088235
0
VERTEX
8
0
10
928.760000
20
418.820000
0
VERTEX
8
0
10
926.000000
20
423.000000
0
VERTEX
8
0
10
920.000000
20
428.000000
0
VERTEX
8
0
10
914.000000
20
428.000000
0
VERTEX
8
0
10
912.000000
20
426.000000
0
VERTEX
8
0
10
910.000000
20
418.000000
0
VERTEX
8
0
10
911.200000
20
416.100000
0
VERTEX
8
0
10
913.000000
20
413.000000
0
VERTEX
8
0
10
921.932432
20
411.594595
0
VERTEX
8
0
10
924.750000
20
410.750000
0
VERTEX
8
0
10
926.000000
20
408.000000
0
VERTEX
8
0
10
923.200000
20
396.900000
0
VERTEX
8
0
10
921.000000
20
394.000000
0
VERTEX
8
0
10
914.900000
20
396.800000
0
VERTEX
8
0
10
914.100000
20
397.200000
0
VERTEX
8
0
10
913.000000
20
398.000000
0
VERTEX
8
0
10
902.000000
20
398.000000
0
VERTEX
8
0
10
899.100000
20
396.700000
0
VERTEX
8
0
10
896.000000
20
395.000000
0
VERTEX
8
0
10
894.200000
20
376.900000
0
VERTEX
8
0
10
892.000000
20
374.000000
0
VERTEX
8
0
10
890.000000
20
374.000000
0
VERTEX
8
0
10
889.000000
20
375.000000
0
VERTEX
8
0
10
888.445545
20
383.044554
0
VERTEX
8
0
10
888.000000
20
392.000000
0
VERTEX
8
0
10
877.000000
20
398.000000
0
VERTEX
8
0
10
863.000000
20
398.000000
0
VERTEX
8
0
10
854.088235
20
395.647059
0
VERTEX
8
0
10
849.250000
20
394.250000
0
VERTEX
8
0
10
849.000000
20
395.000000
0
VERTEX
8
0
10
851.615385
20
412.076923
0
VERTEX
8
0
10
855.000000
20
425.000000
0
VERTEX
8
0
10
856.000000
20
426.000000
0
VERTEX
8
0
10
858.000000
20
426.000000
0
VERTEX
8
0
10
861.000000
20
423.000000
0
VERTEX
8
0
10
861.580000
20
417.940000
0
VERTEX
8
0
10
862.705882
20
412.176471
0
VERTEX
8
0
10
864.000000
20
410.000000
0
SEQEND
0
POLYLINE
8
0
6
CONTINUOUS
66
1
62
7
10
0.0
20
0.0
30
0.000000
0
VERTEX
8
0
10
98.000000
20
410.000000
0
VERTEX
8
0
10
98.569231
20
412.053846
0
VERTEX
8
0
10
100.000000
20
423.000000
0
VERTEX
8
0
10
103.000000
20
426.000000
0
VERTEX
8
0
10
104.000000
20
426.000000
0
VERTEX
8
0
10
106.000000
20
424.000000
0
VERTEX
8
0
10
107.647059
20
418.911765
0
VERTEX
8
0
10
108.352941
20
416.088235
0
VERTEX
8
0
10
110.544828
20
406.962069
0
VERTEX
8
0
10
110.750000
20
395.250000
0
VERTEX
8
0
10
104.076923
20
396.384615
0
VERTEX
8
0
10
98.000000
20
398.000000
0
VERTEX
8
0
10
84.000000
20
398.000000
0
VERTEX
8
0
10
73.000000
20
392.000000
0
VERTEX
8
0
10
72.430769
20
382.946154
0
VERTEX
8
0
10
72.000000
20
376.000000
0
VERTEX
8
0
10
70.000000
20
374.000000
0
VERTEX
8
0
10
68.000000
20
374.000000
0
VERTEX
8
0
10
66.468966
20
377.027586
0
VERTEX
8
0
10
66.000000
20
393.000000
0
VERTEX
8
0
10
63.000000
20
396.000000
0
VERTEX
8
0
10
57.000000
20
398.000000
0
VERTEX
8
0
10
48.000000
20
398.000000
0
VERTEX
8
0
10
40.000000
20
394.000000
0
VERTEX
8
0
10
38.000000
20
396.000000
0
VERTEX
8
0
10
36.352941
20
400.088235
0
VERTEX
8
0
10
35.647059
20
402.911765
0
VERTEX
8
0
10
35.000000
20
409.000000
0
VERTEX
8
0
10
37.000000
20
411.000000
0
VERTEX
8
0
10
48.000000
20
414.000000
0
VERTEX
8
0
10
49.230769
20
415.846154
0
VERTEX
8
0
10
51.000000
20
418.000000
0
VERTEX
8
0
10
51.000000
20
424.000000
0
VERTEX
8
0
10
48.153846
20
426.230769
0
VERTEX
8
0
10
43.000000
20
429.000000
0
VERTEX
8
0
10
38.000000
20
428.000000
0
VERTEX
8
0
10
33.000000
20
423.000000
0
VERTEX
8
0
10
29.000000
20
405.000000
0
VERTEX
8
0
10
29.000000
20
400.000000
0
VERTEX
8
0
10
32.352941
20
387.088235
0
VERTEX
8
0
10
35.200000
20
379.100000
0
VERTEX
8
0
10
40.769231
20
369.846154
0
VERTEX
8
0
10
43.000000
20
366.000000
0
VERTEX
8
0
10
53.000000
20
356.000000
0
VERTEX
8
0
10
60.153846
20
351.230769
0
VERTEX
8
0
10
72.100000
20
346.300000
0
VERTEX
8
0
10
78.900000
20
343.700000
0
VERTEX
8
0
10
88.013139
20
342.486131
0
VERTEX
8
0
10
124.750000
20
341.750000
0
VERTEX
8
0
10
124.769231
20
340.153846
0
VERTEX
8
0
10
122.769231
20
337.153846
0
VERTEX
8
0
10
116.000000
20
328.000000
0
VERTEX
8
0
10
109.000000
20
323.000000
0
VERTEX
8
0
10
104.800000
20
318.100000
0
VERTEX
8
0
10
104.000000
20
317.000000
0
VERTEX
8
0
10
104.000000
20
314.000000
0
VERTEX
8
0
10
108.200000
20
303.100000
0
VERTEX
8
0
10
108.800000
20
301.900000
0
VERTEX
8
0
10
119.000000
20
284.000000
0
VERTEX
8
0
10
121.900000
20
281.800000
0
VERTEX
8
0
10
152.000000
20
304.000000
0
VERTEX
8
0
10
153.000000
20
307.000000
0
VERTEX
8
0
10
153.000000
20
310.000000
0
VERTEX
8
0
10
150.000000
20
314.000000
0
VERTEX
8
0
10
146.900000
20
314.800000
0
VERTEX
8
0
10
144.900000
20
315.800000
0
VERTEX
8
0
10
141.000000
20
319.000000
0
VERTEX
8
0
10
141.000000
20
330.000000
0
VERTEX
8
0
10
149.769231
20
348.153846
0
VERTEX
8
0
10
159.230769
20
363.846154
0
VERTEX
8
0
10
165.647059
20
375.088235
0
VERTEX
8
0
10
167.000000
20
379.000000
0
VERTEX
8
0
10
167.000000
20
388.000000
0
VERTEX
8
0
10
165.352941
20
393.088235
0
VERTEX
8
0
10
163.000000
20
400.000000
0
VERTEX
8
0
10
160.000000
20
402.000000
0
VERTEX
8
0
10
157.000000
20
402.000000
0
VERTEX
8
0
10
154.250000
20
400.750000
0
VERTEX
8
0
10
154.384615
20
390.923077
0
VERTEX
8
0
10
154.000000
20
387.000000
0
VERTEX
8
0
10
149.000000
20
382.000000
0
VERTEX
8
0
10
144.000000
20
381.000000
0
VERTEX
8
0
10
139.000000
20
381.000000
0
VERTEX
8
0
10
137.900000
20
381.700000
0
VERTEX
8
0
10
128.180000
20
385.240000
0
VERTEX
8
0
10
124.000000
20
388.000000
0
VERTEX
8
0
10
121.760000
20
390.820000
0
VERTEX
8
0
10
118.800000
20
394.900000
0
VERTEX
8
0
10
117.000000
20
401.000000
0
VERTEX
8
0
10
117.580000
20
411.060000
0
VERTEX
8
0
10
119.000000
20
420.000000
0
VERTEX
8
0
10
121.000000
20
422.000000
0
VERTEX
8
0
10
124.180000
20
419.240000
0
VERTEX
8
0
10
135.900000
20
410.800000
0
VERTEX
8
0
10
146.900000
20
406.700000
0
VERTEX
8
0
10
148.000000
20
406.000000
0
VERTEX
8
0
10
158.000000
20
407.000000
0
VERTEX
8
0
10
164.000000
20
413.000000
0
VERTEX
8
0
10
164.800000
20
415.100000
0
VERTEX
8
0
10
165.200000
20
415.900000
0
VERTEX
8
0
10
166.000000
20
417.000000
0
VERTEX
8
0
10
166.000000
20
423.000000
0
VERTEX
8
0
10
160.000000
20
426.000000
0
VERTEX
8
0
10
157.000000
20
426.000000
0
VERTEX
8
0
10
155.000000
20
424.000000
0
VERTEX
8
0
10
155.000000
20
416.000000
0
VERTEX
8
0
10
155.647059
20
414.911765
0
VERTEX
8
0
10
155.750000
20
411.250000
0
VERTEX
8
0
10
151.000000
20
410.000000
0
VERTEX
8
0
10
147.000000
20
410.000000
0
VERTEX
8
0
10
145.900000
20
410.800000
0
VERTEX
8
0
10
138.000000
20
414.000000
0
VERTEX
8
0
10
134.000000
20
418.000000
0
VERTEX
8
0
10
129.200000
20
425.100000
0
VERTEX
8
0
10
128.800000
20
425.900000
0
VERTEX
8
0
10
125.476289
20
433.021649
0
VERTEX
8
0
10
124.523711
20
453.978351
0
VERTEX
8
0
10
123.760000
20
455.820000
0
VERTEX
8
0
10
121.000000
20
459.000000
0
VERTEX
8
0
10
121.000000
20
461.000000
0
VERTEX
8
0
10
122.000000
20
462.000000
0
VERTEX
8
0
10
128.088235
20
463.647059
0
VERTEX
8
0
10
133.000000
20
465.000000
0
VERTEX
8
0
10
134.000000
20
466.000000
0
VERTEX
8
0
10
135.000000
20
469.000000
0
VERTEX
8
0
10
131.000000
20
473.000000
0
VERTEX
8
0
10
128.900000
20
473.800000
0
VERTEX
8
0
10
124.000000
20
477.000000
0
SEQEND
0
POLYLINE
8
0
6
CONTINUOUS
66
1
62
7
10
0.0
20
0.0
30
0.000000
0
VERTEX
8
0
10
218.000000
20
276.000000
0
VERTEX
8
0
10
226.000000
20
281.000000
0
VERTEX
8
0
10
228.000000
20
283.000000
0
VERTEX
8
0
10
225.000000
20
290.000000
0
VERTEX
8
0
10
223.000000
20
292.000000
0
VERTEX
8
0
10
222.000000
20
291.000000
0
VERTEX
8
0
10
221.647059
20
288.088235
0
VERTEX
8
0
10
220.000000
20
284.000000
0
VERTEX
8
0
10
218.000000
20
283.000000
0
VERTEX
8
0
10
215.800000
20
285.900000
0
VERTEX
8
0
10
215.000000
20
287.000000
0
VERTEX
8
0
10
216.000000
20
292.000000
0
VERTEX
8
0
10
218.000000
20
294.000000
0
VERTEX
8
0
10
219.000000
20
294.000000
0
VERTEX
8
0
10
222.000000
20
298.000000
0
VERTEX
8
0
10
221.000000
20
302.000000
0
VERTEX
8
0
10
220.000000
20
303.000000
0
VERTEX
8
0
10
214.100000
20
299.800000
0
VERTEX
8
0
10
208.000000
20
298.000000
0
VERTEX
8
0
10
209.647059
20
291.911765
0
VERTEX
8
0
10
210.700000
20
287.900000
0
VERTEX
8
0
10
215.000000
20
277.000000
0
VERTEX
8
0
10
216.000000
20
276.000000
0
VERTEX
8
0
10
218.000000
20
276.000000
0
SEQEND
0
POLYLINE
8
0
6
CONTINUOUS
66
1
62
7
10
0.0
20
0.0
30
0.000000
0
VERTEX
8
0
10
744.000000
20
275.000000
0
VERTEX
8
0
10
747.800000
20
281.100000
0
VERTEX
8
0
10
749.000000
20
284.000000
0
VERTEX
8
0
10
748.000000
20
285.000000
0
VERTEX
8
0
10
741.000000
20
285.000000
0
VERTEX
8
0
10
739.000000
20
287.000000
0
VERTEX
8
0
10
739.000000
20
290.000000
0
VERTEX
8
0
10
737.000000
20
291.000000
0
VERTEX
8
0
10
735.700000
20
288.100000
0
VERTEX
8
0
10
733.000000
20
279.000000
0
VERTEX
8
0
10
734.000000
20
278.000000
0
VERTEX
8
0
10
744.000000
20
275.000000
0
SEQEND
0
POLYLINE
8
0
6
CONTINUOUS
66
1
62
7
10
0.0
20
0.0
30
0.000000
0
VERTEX
8
0
10
223.000000
20
261.000000
0
VERTEX
8
0
10
228.820000
20
264.240000
0
VERTEX
8
0
10
235.000000
20
269.000000
0
VERTEX
8
0
10
232.000000
20
277.000000
0
VERTEX
8
0
10
230.000000
20
279.000000
0
VERTEX
8
0
10
228.200000
20
273.900000
0
VERTEX
8
0
10
226.000000
20
271.000000
0
VERTEX
8
0
10
222.000000
20
271.000000
0
VERTEX
8
0
10
220.900000
20
271.800000
0
VERTEX
8
0
10
219.250000
20
271.750000
0
VERTEX
8
0
10
219.000000
20
271.000000
0
VERTEX
8
0
10
223.000000
20
261.000000
0
SEQEND
0
POLYLINE
8
0
6
CONTINUOUS
66
1
62
7
10
0.0
20
0.0
30
0.000000
0
VERTEX
8
0
10
737.000000
20
261.000000
0
VERTEX
8
0
10
739.700000
20
265.100000
0
VERTEX
8
0
10
742.000000
20
271.000000
0
VERTEX
8
0
10
741.000000
20
272.000000
0
VERTEX
8
0
10
739.000000
20
271.000000
0
VERTEX
8
0
10
734.000000
20
271.000000
0
VERTEX
8
0
10
731.000000
20
275.000000
0
VERTEX
8
0
10
727.200000
20
268.900000
0
VERTEX
8
0
10
726.000000
20
266.000000
0
VERTEX
8
0
10
727.000000
20
265.000000
0
VERTEX
8
0
10
734.000000
20
265.000000
0
VERTEX
8
0
10
736.200000
20
262.100000
0
VERTEX
8
0
10
737.000000
20
261.000000
0
SEQEND
0
POLYLINE
8
0
6
CONTINUOUS
66
1
62
7
10
0.0
20
0.0
30
0.000000
0
VERTEX
8
0
10
232.000000
20
249.000000
0
VERTEX
8
0
10
239.000000
20
253.000000
0
VERTEX
8
0
10
241.000000
20
257.000000
0
VERTEX
8
0
10
239.200000
20
261.100000
0
VERTEX
8
0
10
236.000000
20
265.000000
0
VERTEX
8
0
10
235.000000
20
264.000000
0
VERTEX
8
0
10
234.647059
20
261.088235
0
VERTEX
8
0
10
233.750000
20
258.250000
0
VERTEX
8
0
10
231.000000
20
257.000000
0
VERTEX
8
0
10
229.000000
20
257.000000
0
VERTEX
8
0
10
228.000000
20
258.000000
0
VERTEX
8
0
10
226.000000
20
258.000000
0
VERTEX
8
0
10
225.000000
20
257.000000
0
VERTEX
8
0
10
226.800000
20
252.900000
0
VERTEX
8
0
10
227.000000
20
252.000000
0
VERTEX
8
0
10
230.900000
20
249.800000
0
VERTEX
8
0
10
232.000000
20
249.000000
0
SEQEND
0
POLYLINE
8
0
6
CONTINUOUS
66
1
62
7
10
0.0
20
0.0
30
0.000000
0
VERTEX
8
0
10
730.000000
20
247.000000
0
VERTEX
8
0
10
732.200000
20
249.900000
0
VERTEX
8
0
10
736.000000
20
257.000000
0
VERTEX
8
0
10
734.000000
20
259.000000
0
VERTEX
8
0
10
732.000000
20
258.000000
0
VERTEX
8
0
10
729.900000
20
258.800000
0
VERTEX
8
0
10
724.000000
20
261.000000
0
VERTEX
8
0
10
721.000000
20
258.000000
0
VERTEX
8
0
10
721.000000
20
255.000000
0
VERTEX
8
0
10
723.000000
20
253.000000
0
VERTEX
8
0
10
726.000000
20
253.000000
0
VERTEX
8
0
10
729.000000
20
250.000000
0
VERTEX
8
0
10
730.000000
20
247.000000
0
SEQEND
0
POLYLINE
8
0
6
CONTINUOUS
66
1
62
7
10
0.0
20
0.0
30
0.000000
0
VERTEX
8
0
10
201.000000
20
240.000000
0
VERTEX
8
0
10
199.000000
20
240.000000
0
SEQEND
0
POLYLINE
8
0
6
CONTINUOUS
66
1
62
7
10
0.0
20
0.0
30
0.000000
0
VERTEX
8
0
10
762.000000
20
240.000000
0
VERTEX
8
0
10
760.000000
20
240.000000
0
SEQEND
0
POLYLINE
8
0
6
CONTINUOUS
66
1
62
7
10
0.0
20
0.0
30
0.000000
0
VERTEX
8
0
10
762.000000
20
240.000000
0
VERTEX
8
0
10
763.000000
20
239.000000
0
VERTEX
8
0
10
768.088235
20
239.647059
0
VERTEX
8
0
10
775.000000
20
242.000000
0
VERTEX
8
0
10
780.230769
20
248.846154
0
VERTEX
8
0
10
782.647059
20
254.088235
0
VERTEX
8
0
10
785.000000
20
262.000000
0
VERTEX
8
0
10
783.384615
20
274.076923
0
VERTEX
8
0
10
781.300000
20
281.100000
0
VERTEX
8
0
10
779.000000
20
287.000000
0
VERTEX
8
0
10
776.000000
20
290.000000
0
VERTEX
8
0
10
769.000000
20
291.000000
0
VERTEX
8
0
10
767.000000
20
293.000000
0
VERTEX
8
0
10
768.594595
20
302.067568
0
VERTEX
8
0
10
770.000000
20
311.000000
0
VERTEX
8
0
10
772.000000
20
313.000000
0
VERTEX
8
0
10
777.000000
20
313.000000
0
VERTEX
8
0
10
779.000000
20
315.000000
0
VERTEX
8
0
10
779.527624
20
326.024862
0
VERTEX
8
0
10
780.472376
20
343.975138
0
VERTEX
8
0
10
782.647059
20
361.088235
0
VERTEX
8
0
10
784.230769
20
365.846154
0
VERTEX
8
0
10
786.000000
20
368.000000
0
SEQEND
0
POLYLINE
8
0
6
CONTINUOUS
66
1
62
7
10
0.0
20
0.0
30
0.000000
0
VERTEX
8
0
10
240.000000
20
234.000000
0
VERTEX
8
0
10
246.100000
20
238.700000
0
VERTEX
8
0
10
247.900000
20
239.300000
0
VERTEX
8
0
10
251.000000
20
241.000000
0
VERTEX
8
0
10
248.800000
20
245.900000
0
VERTEX
8
0
10
245.000000
20
252.000000
0
VERTEX
8
0
10
238.800000
20
244.100000
0
VERTEX
8
0
10
237.000000
20
241.000000
0
VERTEX
8
0
10
237.000000
20
238.000000
0
VERTEX
8
0
10
239.000000
20
234.000000
0
VERTEX
8
0
10
240.000000
20
234.000000
0
SEQEND
0
POLYLINE
8
0
6
CONTINUOUS
66
1
62
7
10
0.0
20
0.0
30
0.000000
0
VERTEX
8
0
10
716.000000
20
232.000000
0
VERTEX
8
0
10
719.000000
20
235.000000
0
VERTEX
8
0
10
719.000000
20
236.000000
0
VERTEX
8
0
10
716.000000
20
239.000000
0
VERTEX
8
0
10
714.000000
20
239.000000
0
VERTEX
8
0
10
712.000000
20
237.000000
0
VERTEX
8
0
10
712.000000
20
235.000000
0
VERTEX
8
0
10
715.000000
20
232.000000
0
VERTEX
8
0
10
716.000000
20
232.000000
0
SEQEND
0
POLYLINE
8
0
6
CONTINUOUS
66
1
62
7
10
0.0
20
0.0
30
0.000000
0
VERTEX
8
0
10
247.000000
20
224.000000
0
VERTEX
8
0
10
250.100000
20
225.800000
0
VERTEX
8
0
10
256.000000
20
231.000000
0
VERTEX
8
0
10
256.000000
20
235.000000
0
VERTEX
8
0
10
254.100000
20
236.200000
0
VERTEX
8
0
10
251.100000
20
235.800000
0
VERTEX
8
0
10
249.900000
20
235.200000
0
VERTEX
8
0
10
246.000000
20
232.000000
0
VERTEX
8
0
10
245.769231
20
231.153846
0
VERTEX
8
0
10
244.000000
20
229.000000
0
VERTEX
8
0
10
244.000000
20
226.000000
0
VERTEX
8
0
10
245.900000
20
224.800000
0
VERTEX
8
0
10
247.000000
20
224.000000
0
SEQEND
0
POLYLINE
8
0
6
CONTINUOUS
66
1
62
7
10
0.0
20
0.0
30
0.000000
0
VERTEX
8
0
10
714.000000
20
222.000000
0
VERTEX
8
0
10
721.700000
20
232.100000
0
VERTEX
8
0
10
724.000000
20
239.000000
0
VERTEX
8
0
10
723.352941
20
240.088235
0
VERTEX
8
0
10
722.000000
20
246.000000
0
VERTEX
8
0
10
718.000000
20
250.000000
0
VERTEX
8
0
10
717.000000
20
250.000000
0
VERTEX
8
0
10
707.769231
20
237.153846
0
VERTEX
8
0
10
702.000000
20
228.000000
0
VERTEX
8
0
10
704.000000
20
227.000000
0
VERTEX
8
0
10
705.000000
20
228.000000
0
VERTEX
8
0
10
710.000000
20
228.000000
0
VERTEX
8
0
10
713.200000
20
223.100000
0
VERTEX
8
0
10
714.000000
20
222.000000
0
SEQEND
0
POLYLINE
8
0
6
CONTINUOUS
66
1
62
7
10
0.0
20
0.0
30
0.000000
0
VERTEX
8
0
10
257.000000
20
211.000000
0
VERTEX
8
0
10
260.000000
20
213.000000
0
VERTEX
8
0
10
264.200000
20
219.900000
0
VERTEX
8
0
10
265.000000
20
223.000000
0
VERTEX
8
0
10
261.000000
20
228.000000
0
VERTEX
8
0
10
259.000000
20
226.000000
0
VERTEX
8
0
10
258.300000
20
222.900000
0
VERTEX
8
0
10
257.527027
20
221.337838
0
VERTEX
8
0
10
253.000000
20
216.000000
0
VERTEX
8
0
10
253.000000
20
214.000000
0
VERTEX
8
0
10
255.000000
20
211.000000
0
VERTEX
8
0
10
257.000000
20
211.000000
0
SEQEND
0
POLYLINE
8
0
6
CONTINUOUS
66
1
62
7
10
0.0
20
0.0
30
0.000000
0
VERTEX
8
0
10
704.000000
20
211.000000
0
VERTEX
8
0
10
708.000000
20
213.000000
0
VERTEX
8
0
10
711.200000
20
217.900000
0
VERTEX
8
0
10
712.000000
20
219.000000
0
VERTEX
8
0
10
710.000000
20
221.000000
0
VERTEX
8
0
10
708.000000
20
221.000000
0
VERTEX
8
0
10
707.000000
20
220.000000
0
VERTEX
8
0
10
704.900000
20
220.800000
0
VERTEX
8
0
10
704.180000
20
221.240000
0
VERTEX
8
0
10
701.000000
20
224.000000
0
VERTEX
8
0
10
699.000000
20
224.000000
0
VERTEX
8
0
10
697.000000
20
222.000000
0
VERTEX
8
0
10
698.800000
20
215.900000
0
VERTEX
8
0
10
699.000000
20
215.000000
0
VERTEX
8
0
10
703.000000
20
211.000000
0
VERTEX
8
0
10
704.000000
20
211.000000
0
SEQEND
0
POLYLINE
8
0
6
CONTINUOUS
66
1
62
7
10
0.0
20
0.0
30
0.000000
0
VERTEX
8
0
10
267.000000
20
200.000000
0
VERTEX
8
0
10
270.000000
20
202.000000
0
VERTEX
8
0
10
270.000000
20
203.000000
0
VERTEX
8
0
10
278.000000
20
206.000000
0
VERTEX
8
0
10
277.000000
20
209.000000
0
VERTEX
8
0
10
273.000000
20
213.000000
0
VERTEX
8
0
10
270.000000
20
214.000000
0
VERTEX
8
0
10
269.000000
20
212.000000
0
VERTEX
8
0
10
266.100000
20
209.800000
0
VERTEX
8
0
10
262.000000
20
209.000000
0
VERTEX
8
0
10
261.000000
20
208.000000
0
VERTEX
8
0
10
261.000000
20
206.000000
0
VERTEX
8
0
10
264.000000
20
202.000000
0
VERTEX
8
0
10
267.000000
20
200.000000
0
SEQEND
0
POLYLINE
8
0
6
CONTINUOUS
66
1
62
7
10
0.0
20
0.0
30
0.000000
0
VERTEX
8
0
10
689.000000
20
198.000000
0
VERTEX
8
0
10
692.000000
20
201.000000
0
VERTEX
8
0
10
692.000000
20
202.000000
0
VERTEX
8
0
10
689.000000
20
205.000000
0
VERTEX
8
0
10
687.000000
20
205.000000
0
VERTEX
8
0
10
685.000000
20
203.000000
0
VERTEX
8
0
10
685.000000
20
201.000000
0
VERTEX
8
0
10
688.000000
20
198.000000
0
VERTEX
8
0
10
689.000000
20
198.000000
0
SEQEND
0
POLYLINE
8
0
6
CONTINUOUS
66
1
62
7
10
0.0
20
0.0
30
0.000000
0
VERTEX
8
0
10
277.000000
20
190.000000
0
VERTEX
8
0
10
280.000000
20
192.000000
0
VERTEX
8
0
10
280.000000
20
193.000000
0
VERTEX
8
0
10
283.088235
20
194.647059
0
VERTEX
8
0
10
286.000000
20
195.000000
0
VERTEX
8
0
10
287.000000
20
196.000000
0
VERTEX
8
0
10
286.200000
20
198.100000
0
VERTEX
8
0
10
286.000000
20
199.000000
0
VERTEX
8
0
10
282.100000
20
202.200000
0
VERTEX
8
0
10
281.000000
20
203.000000
0
VERTEX
8
0
10
279.000000
20
201.000000
0
VERTEX
8
0
10
279.000000
20
200.000000
0
VERTEX
8
0
10
271.000000
20
197.000000
0
VERTEX
8
0
10
271.000000
20
195.000000
0
VERTEX
8
0
10
274.846154
20
191.769231
0
VERTEX
8
0
10
277.000000
20
190.000000
0
SEQEND
0
POLYLINE
8
0
6
CONTINUOUS
66
1
62
7
10
0.0
20
0.0
30
0.000000
0
VERTEX
8
0
10
677.000000
20
186.000000
0
VERTEX
8
0
10
679.000000
20
187.000000
0
VERTEX
8
0
10
681.000000
20
190.000000
0
VERTEX
8
0
10
681.000000
20
192.000000
0
VERTEX
8
0
10
679.000000
20
194.000000
0
VERTEX
8
0
10
674.000000
20
193.000000
0
VERTEX
8
0
10
672.000000
20
191.000000
0
VERTEX
8
0
10
672.000000
20
190.000000
0
VERTEX
8
0
10
674.000000
20
187.000000
0
VERTEX
8
0
10
677.000000
20
186.000000
0
SEQEND
0
POLYLINE
8
0
6
CONTINUOUS
66
1
62
7
10
0.0
20
0.0
30
0.000000
0
VERTEX
8
0
10
287.000000
20
180.000000
0
VERTEX
8
0
10
294.088235
20
184.647059
0
VERTEX
8
0
10
297.000000
20
185.000000
0
VERTEX
8
0
10
299.000000
20
187.000000
0
VERTEX
8
0
10
298.000000
20
189.000000
0
VERTEX
8
0
10
294.100000
20
192.200000
0
VERTEX
8
0
10
292.100000
20
193.200000
0
VERTEX
8
0
10
291.000000
20
194.000000
0
VERTEX
8
0
10
288.000000
20
189.000000
0
VERTEX
8
0
10
283.000000
20
188.000000
0
VERTEX
8
0
10
281.000000
20
186.000000
0
VERTEX
8
0
10
284.000000
20
182.000000
0
VERTEX
8
0
10
287.000000
20
180.000000
0
SEQEND
0
POLYLINE
8
0
6
CONTINUOUS
66
1
62
7
10
0.0
20
0.0
30
0.000000
0
VERTEX
8
0
10
673.000000
20
178.000000
0
VERTEX
8
0
10
691.000000
20
194.000000
0
VERTEX
8
0
10
691.245902
20
194.795082
0
VERTEX
8
0
10
699.000000
20
204.000000
0
VERTEX
8
0
10
699.000000
20
208.000000
0
VERTEX
8
0
10
693.000000
20
212.000000
0
VERTEX
8
0
10
691.000000
20
212.000000
0
VERTEX
8
0
10
677.000000
20
202.000000
0
VERTEX
8
0
10
664.000000
20
187.000000
0
VERTEX
8
0
10
664.000000
20
186.000000
0
VERTEX
8
0
10
669.000000
20
184.000000
0
VERTEX
8
0
10
673.000000
20
178.000000
0
SEQEND
0
POLYLINE
8
0
6
CONTINUOUS
66
1
62
7
10
0.0
20
0.0
30
0.000000
0
VERTEX
8
0
10
300.000000
20
168.000000
0
VERTEX
8
0
10
303.000000
20
170.000000
0
VERTEX
8
0
10
305.000000
20
180.000000
0
VERTEX
8
0
10
303.000000
20
183.000000
0
VERTEX
8
0
10
297.800000
20
177.100000
0
VERTEX
8
0
10
296.200000
20
173.900000
0
VERTEX
8
0
10
295.000000
20
171.000000
0
VERTEX
8
0
10
299.100000
20
168.200000
0
VERTEX
8
0
10
300.000000
20
168.000000
0
SEQEND
0
POLYLINE
8
0
6
CONTINUOUS
66
1
62
7
10
0.0
20
0.0
30
0.000000
0
VERTEX
8
0
10
649.000000
20
159.000000
0
VERTEX
8
0
10
652.100000
20
160.800000
0
VERTEX
8
0
10
657.000000
20
163.000000
0
VERTEX
8
0
10
665.000000
20
172.000000
0
VERTEX
8
0
10
665.000000
20
175.000000
0
VERTEX
8
0
10
659.000000
20
183.000000
0
VERTEX
8
0
10
657.100000
20
181.800000
0
VERTEX
8
0
10
653.000000
20
179.000000
0
VERTEX
8
0
10
652.800000
20
178.100000
0
VERTEX
8
0
10
652.000000
20
177.000000
0
VERTEX
8
0
10
655.088235
20
175.352941
0
VERTEX
8
0
10
658.000000
20
175.000000
0
VERTEX
8
0
10
659.000000
20
174.000000
0
VERTEX
8
0
10
659.000000
20
172.000000
0
VERTEX
8
0
10
656.000000
20
169.000000
0
VERTEX
8
0
10
654.384615
20
168.576923
0
VERTEX
8
0
10
648.795082
20
172.754098
0
VERTEX
8
0
10
646.000000
20
174.000000
0
VERTEX
8
0
10
642.000000
20
171.000000
0
VERTEX
8
0
10
642.000000
20
169.000000
0
VERTEX
8
0
10
646.000000
20
166.000000
0
VERTEX
8
0
10
647.400000
20
161.200000
0
VERTEX
8
0
10
649.000000
20
159.000000
0
SEQEND
0
POLYLINE
8
0
6
CONTINUOUS
66
1
62
7
10
0.0
20
0.0
30
0.000000
0
VERTEX
8
0
10
314.000000
20
158.000000
0
VERTEX
8
0
10
314.569231
20
159.053846
0
VERTEX
8
0
10
315.000000
20
166.000000
0
VERTEX
8
0
10
317.000000
20
168.000000
0
VERTEX
8
0
10
318.000000
20
168.000000
0
VERTEX
8
0
10
319.000000
20
170.000000
0
VERTEX
8
0
10
316.000000
20
174.000000
0
VERTEX
8
0
10
315.180000
20
174.240000
0
VERTEX
8
0
10
310.000000
20
178.000000
0
VERTEX
8
0
10
309.000000
20
177.000000
0
VERTEX
8
0
10
309.000000
20
170.000000
0
VERTEX
8
0
10
307.000000
20
168.000000
0
VERTEX
8
0
10
305.000000
20
167.000000
0
VERTEX
8
0
10
305.000000
20
165.000000
0
VERTEX
8
0
10
314.000000
20
158.000000
0
SEQEND
0
POLYLINE
8
0
6
CONTINUOUS
66
1
62
7
10
0.0
20
0.0
30
0.000000
0
VERTEX
8
0
10
602.000000
20
145.000000
0
VERTEX
8
0
10
600.000000
20
145.000000
0
SEQEND
0
POLYLINE
8
0
6
CONTINUOUS
66
1
62
7
10
0.0
20
0.0
30
0.000000
0
VERTEX
8
0
10
626.000000
20
144.000000
0
VERTEX
8
0
10
642.000000
20
153.000000
0
VERTEX
8
0
10
645.000000
20
156.000000
0
VERTEX
8
0
10
645.000000
20
157.000000
0
VERTEX
8
0
10
639.000000
20
161.000000
0
VERTEX
8
0
10
639.000000
20
167.000000
0
VERTEX
8
0
10
638.000000
20
168.000000
0
VERTEX
8
0
10
634.000000
20
167.000000
0
VERTEX
8
0
10
632.800000
20
165.100000
0
VERTEX
8
0
10
632.000000
20
162.000000
0
VERTEX
8
0
10
633.240000
20
160.180000
0
VERTEX
8
0
10
636.000000
20
157.000000
0
VERTEX
8
0
10
635.000000
20
154.000000
0
VERTEX
8
0
10
633.000000
20
152.000000
0
VERTEX
8
0
10
630.000000
20
151.000000
0
VERTEX
8
0
10
628.000000
20
153.000000
0
VERTEX
8
0
10
629.000000
20
159.000000
0
VERTEX
8
0
10
627.000000
20
161.000000
0
VERTEX
8
0
10
623.153846
20
158.769231
0
VERTEX
8
0
10
615.000000
20
153.000000
0
VERTEX
8
0
10
617.000000
20
151.000000
0
VERTEX
8
0
10
620.000000
20
151.000000
0
VERTEX
8
0
10
624.900000
20
144.800000
0
VERTEX
8
0
10
626.000000
20
144.000000
0
SEQEND
0
POLYLINE
8
0
6
CONTINUOUS
66
1
62
7
10
0.0
20
0.0
30
0.000000
0
VERTEX
8
0
10
349.000000
20
137.000000
0
VERTEX
8
0
10
351.000000
20
141.000000
0
VERTEX
8
0
10
353.900000
20
143.200000
0
VERTEX
8
0
10
355.088235
20
143.647059
0
VERTEX
8
0
10
358.000000
20
144.000000
0
VERTEX
8
0
10
360.000000
20
146.000000
0
VERTEX
8
0
10
358.100000
20
147.200000
0
VERTEX
8
0
10
354.900000
20
148.700000
0
VERTEX
8
0
10
351.000000
20
150.000000
0
VERTEX
8
0
10
345.000000
20
145.000000
0
VERTEX
8
0
10
343.000000
20
145.000000
0
VERTEX
8
0
10
341.000000
20
147.000000
0
VERTEX
8
0
10
342.000000
20
149.000000
0
VERTEX
8
0
10
343.000000
20
149.000000
0
VERTEX
8
0
10
344.200000
20
150.900000
0
VERTEX
8
0
10
344.000000
20
154.000000
0
VERTEX
8
0
10
339.180000
20
158.240000
0
VERTEX
8
0
10
335.820000
20
160.760000
0
VERTEX
8
0
10
326.911765
20
164.647059
0
VERTEX
8
0
10
322.000000
20
166.000000
0
VERTEX
8
0
10
321.000000
20
165.000000
0
VERTEX
8
0
10
322.400000
20
162.800000
0
VERTEX
8
0
10
318.800000
20
156.100000
0
VERTEX
8
0
10
318.000000
20
155.000000
0
VERTEX
8
0
10
321.000000
20
152.000000
0
VERTEX
8
0
10
324.000000
20
152.000000
0
VERTEX
8
0
10
325.804878
20
153.243902
0
VERTEX
8
0
10
330.000000
20
157.000000
0
VERTEX
8
0
10
331.000000
20
157.000000
0
VERTEX
8
0
10
333.000000
20
155.000000
0
VERTEX
8
0
10
331.760000
20
152.180000
0
VERTEX
8
0
10
329.000000
20
149.000000
0
VERTEX
8
0
10
329.000000
20
147.000000
0
VERTEX
8
0
10
349.000000
20
137.000000
0
SEQEND
0
POLYLINE
8
0
6
CONTINUOUS
66
1
62
7
10
0.0
20
0.0
30
0.000000
0
VERTEX
8
0
10
352.000000
20
136.000000
0
VERTEX
8
0
10
351.000000
20
136.000000
0
SEQEND
0
POLYLINE
8
0
6
CONTINUOUS
66
1
62
7
10
0.0
20
0.0
30
0.000000
0
VERTEX
8
0
10
602.000000
20
145.000000
0
VERTEX
8
0
10
608.000000
20
143.000000
0
VERTEX
8
0
10
609.000000
20
142.000000
0
VERTEX
8
0
10
608.000000
20
135.000000
0
VERTEX
8
0
10
609.000000
20
134.000000
0
VERTEX
8
0
10
618.100000
20
138.800000
0
VERTEX
8
0
10
622.000000
20
142.000000
0
VERTEX
8
0
10
622.000000
20
143.000000
0
VERTEX
8
0
10
614.000000
20
146.000000
0
VERTEX
8
0
10
614.000000
20
147.000000
0
VERTEX
8
0
10
612.000000
20
149.000000
0
VERTEX
8
0
10
609.000000
20
150.000000
0
VERTEX
8
0
10
602.000000
20
146.000000
0
VERTEX
8
0
10
602.000000
20
145.000000
0
SEQEND
0
POLYLINE
8
0
6
CONTINUOUS
66
1
62
7
10
0.0
20
0.0
30
0.000000
0
VERTEX
8
0
10
352.000000
20
136.000000
0
VERTEX
8
0
10
356.846154
20
132.769231
0
VERTEX
8
0
10
361.000000
20
130.000000
0
VERTEX
8
0
10
367.200000
20
137.900000
0
VERTEX
8
0
10
369.000000
20
141.000000
0
VERTEX
8
0
10
369.000000
20
143.000000
0
VERTEX
8
0
10
368.000000
20
144.000000
0
VERTEX
8
0
10
365.000000
20
144.000000
0
VERTEX
8
0
10
358.100000
20
137.800000
0
VERTEX
8
0
10
352.000000
20
136.000000
0
SEQEND
0
POLYLINE
8
0
6
CONTINUOUS
66
1
62
7
10
0.0
20
0.0
30
0.000000
0
VERTEX
8
0
10
489.000000
20
127.000000
0
VERTEX
8
0
10
517.959016
20
129.450820
0
VERTEX
8
0
10
530.911765
20
132.352941
0
VERTEX
8
0
10
539.911765
20
134.352941
0
VERTEX
8
0
10
557.100000
20
138.800000
0
VERTEX
8
0
10
577.900000
20
146.300000
0
VERTEX
8
0
10
593.900000
20
153.200000
0
VERTEX
8
0
10
603.100000
20
157.800000
0
VERTEX
8
0
10
621.820000
20
167.240000
0
VERTEX
8
0
10
641.180000
20
181.760000
0
VERTEX
8
0
10
653.766112
20
191.249480
0
VERTEX
8
0
10
685.000000
20
221.000000
0
VERTEX
8
0
10
687.760000
20
225.180000
0
VERTEX
8
0
10
689.769231
20
228.153846
0
VERTEX
8
0
10
709.200000
20
255.900000
0
VERTEX
8
0
10
713.769231
20
264.153846
0
VERTEX
8
0
10
728.200000
20
292.900000
0
VERTEX
8
0
10
732.300000
20
304.900000
0
VERTEX
8
0
10
739.615385
20
326.076923
0
VERTEX
8
0
10
744.405405
20
351.932432
0
VERTEX
8
0
10
748.000000
20
387.000000
0
VERTEX
8
0
10
748.000000
20
403.000000
0
VERTEX
8
0
10
745.549180
20
431.959016
0
VERTEX
8
0
10
742.615385
20
446.923077
0
VERTEX
8
0
10
740.615385
20
457.923077
0
VERTEX
8
0
10
737.200000
20
471.100000
0
VERTEX
8
0
10
729.300000
20
493.100000
0
VERTEX
8
0
10
721.200000
20
511.100000
0
VERTEX
8
0
10
714.200000
20
524.100000
0
VERTEX
8
0
10
703.240000
20
542.180000
0
VERTEX
8
0
10
688.230769
20
563.153846
0
VERTEX
8
0
10
685.000000
20
568.000000
0
VERTEX
8
0
10
654.000000
20
599.000000
0
VERTEX
8
0
10
631.820000
20
614.760000
0
VERTEX
8
0
10
617.100000
20
624.200000
0
VERTEX
8
0
10
602.100000
20
632.200000
0
VERTEX
8
0
10
585.900000
20
640.700000
0
VERTEX
8
0
10
568.100000
20
647.300000
0
VERTEX
8
0
10
548.923077
20
653.615385
0
VERTEX
8
0
10
545.076923
20
654.384615
0
VERTEX
8
0
10
517.959016
20
659.549180
0
VERTEX
8
0
10
508.040984
20
660.450820
0
VERTEX
8
0
10
472.000000
20
662.000000
0
VERTEX
8
0
10
443.040984
20
659.549180
0
VERTEX
8
0
10
422.076923
20
655.615385
0
VERTEX
8
0
10
412.076923
20
653.615385
0
VERTEX
8
0
10
400.100000
20
649.700000
0
VERTEX
8
0
10
378.900000
20
642.200000
0
VERTEX
8
0
10
363.153846
20
634.769231
0
VERTEX
8
0
10
345.900000
20
625.200000
0
VERTEX
8
0
10
336.180000
20
619.760000
0
VERTEX
8
0
10
307.820000
20
599.240000
0
VERTEX
8
0
10
291.750459
20
583.234862
0
VERTEX
8
0
10
276.249541
20
566.765138
0
VERTEX
8
0
10
258.240000
20
542.820000
0
VERTEX
8
0
10
247.230769
20
524.846154
0
VERTEX
8
0
10
239.800000
20
511.100000
0
VERTEX
8
0
10
233.300000
20
496.900000
0
VERTEX
8
0
10
225.700000
20
474.100000
0
VERTEX
8
0
10
220.615385
20
455.076923
0
VERTEX
8
0
10
218.615385
20
446.076923
0
VERTEX
8
0
10
215.450820
20
431.959016
0
VERTEX
8
0
10
213.000000
20
403.000000
0
VERTEX
8
0
10
213.529231
20
385.973846
0
VERTEX
8
0
10
215.450820
20
358.040984
0
VERTEX
8
0
10
220.384615
20
335.076923
0
VERTEX
8
0
10
221.384615
20
330.076923
0
VERTEX
8
0
10
226.300000
20
313.100000
0
VERTEX
8
0
10
233.300000
20
292.100000
0
VERTEX
8
0
10
240.230769
20
277.153846
0
VERTEX
8
0
10
249.800000
20
259.900000
0
VERTEX
8
0
10
255.240000
20
250.180000
0
VERTEX
8
0
10
257.760000
20
246.820000
0
VERTEX
8
0
10
276.000000
20
222.000000
0
VERTEX
8
0
10
307.000000
20
191.000000
0
VERTEX
8
0
10
319.180000
20
182.240000
0
VERTEX
8
0
10
339.180000
20
167.240000
0
VERTEX
8
0
10
359.100000
20
157.200000
0
VERTEX
8
0
10
367.900000
20
152.800000
0
VERTEX
8
0
10
383.100000
20
146.300000
0
VERTEX
8
0
10
403.900000
20
138.800000
0
VERTEX
8
0
10
423.911765
20
133.647059
0
VERTEX
8
0
10
432.911765
20
131.647059
0
VERTEX
8
0
10
443.037931
20
129.455172
0
VERTEX
8
0
10
453.962069
20
128.544828
0
VERTEX
8
0
10
489.000000
20
127.000000
0
SEQEND
0
POLYLINE
8
0
6
CONTINUOUS
66
1
62
7
10
0.0
20
0.0
30
0.000000
0
VERTEX
8
0
10
380.000000
20
124.000000
0
VERTEX
8
0
10
380.000000
20
125.000000
0
VERTEX
8
0
10
381.247059
20
129.788235
0
VERTEX
8
0
10
387.000000
20
136.000000
0
VERTEX
8
0
10
382.911765
20
137.647059
0
VERTEX
8
0
10
373.250000
20
139.750000
0
VERTEX
8
0
10
374.000000
20
133.000000
0
VERTEX
8
0
10
372.000000
20
131.000000
0
VERTEX
8
0
10
366.000000
20
129.000000
0
VERTEX
8
0
10
368.000000
20
127.000000
0
VERTEX
8
0
10
370.088235
20
126.352941
0
VERTEX
8
0
10
380.000000
20
124.000000
0
SEQEND
0
POLYLINE
8
0
6
CONTINUOUS
66
1
62
7
10
0.0
20
0.0
30
0.000000
0
VERTEX
8
0
10
584.000000
20
124.000000
0
VERTEX
8
0
10
592.100000
20
126.800000
0
VERTEX
8
0
10
595.000000
20
129.000000
0
VERTEX
8
0
10
589.900000
20
130.700000
0
VERTEX
8
0
10
588.000000
20
131.000000
0
VERTEX
8
0
10
586.000000
20
134.000000
0
VERTEX
8
0
10
590.000000
20
137.000000
0
VERTEX
8
0
10
593.000000
20
137.000000
0
VERTEX
8
0
10
598.000000
20
131.000000
0
VERTEX
8
0
10
603.000000
20
132.000000
0
VERTEX
8
0
10
604.000000
20
133.000000
0
VERTEX
8
0
10
602.000000
20
138.000000
0
VERTEX
8
0
10
597.000000
20
142.000000
0
VERTEX
8
0
10
587.900000
20
140.300000
0
VERTEX
8
0
10
584.100000
20
138.800000
0
VERTEX
8
0
10
578.000000
20
135.000000
0
VERTEX
8
0
10
578.000000
20
133.000000
0
VERTEX
8
0
10
580.200000
20
130.100000
0
VERTEX
8
0
10
581.000000
20
129.000000
0
VERTEX
8
0
10
580.300000
20
126.900000
0
VERTEX
8
0
10
580.000000
20
125.000000
0
VERTEX
8
0
10
581.000000
20
124.000000
0
VERTEX
8
0
10
584.000000
20
124.000000
0
SEQEND
0
POLYLINE
8
0
6
CONTINUOUS
66
1
62
7
10
0.0
20
0.0
30
0.000000
0
VERTEX
8
0
10
565.000000
20
120.000000
0
VERTEX
8
0
10
567.000000
20
121.000000
0
VERTEX
8
0
10
569.000000
20
123.000000
0
VERTEX
8
0
10
569.000000
20
124.000000
0
VERTEX
8
0
10
566.000000
20
127.000000
0
VERTEX
8
0
10
562.000000
20
127.000000
0
VERTEX
8
0
10
559.000000
20
124.000000
0
VERTEX
8
0
10
559.000000
20
122.000000
0
VERTEX
8
0
10
561.900000
20
120.700000
0
VERTEX
8
0
10
565.000000
20
120.000000
0
SEQEND
0
POLYLINE
8
0
6
CONTINUOUS
66
1
62
7
10
0.0
20
0.0
30
0.000000
0
VERTEX
8
0
10
413.000000
20
117.000000
0
VERTEX
8
0
10
416.000000
20
120.000000
0
VERTEX
8
0
10
413.000000
20
123.000000
0
VERTEX
8
0
10
411.000000
20
123.000000
0
VERTEX
8
0
10
409.000000
20
121.000000
0
VERTEX
8
0
10
409.000000
20
119.000000
0
VERTEX
8
0
10
413.000000
20
117.000000
0
SEQEND
0
POLYLINE
8
0
6
CONTINUOUS
66
1
62
7
10
0.0
20
0.0
30
0.000000
0
VERTEX
8
0
10
551.000000
20
117.000000
0
VERTEX
8
0
10
553.000000
20
118.000000
0
VERTEX
8
0
10
554.000000
20
119.000000
0
VERTEX
8
0
10
553.000000
20
121.000000
0
VERTEX
8
0
10
547.000000
20
123.000000
0
VERTEX
8
0
10
545.000000
20
121.000000
0
VERTEX
8
0
10
545.000000
20
120.000000
0
VERTEX
8
0
10
547.900000
20
117.800000
0
VERTEX
8
0
10
551.000000
20
117.000000
0
SEQEND
0
POLYLINE
8
0
6
CONTINUOUS
66
1
62
7
10
0.0
20
0.0
30
0.000000
0
VERTEX
8
0
10
429.000000
20
113.000000
0
VERTEX
8
0
10
431.000000
20
114.000000
0
VERTEX
8
0
10
433.000000
20
117.000000
0
VERTEX
8
0
10
429.000000
20
120.000000
0
VERTEX
8
0
10
426.000000
20
120.000000
0
VERTEX
8
0
10
423.000000
20
118.000000
0
VERTEX
8
0
10
423.000000
20
116.000000
0
VERTEX
8
0
10
425.000000
20
114.000000
0
VERTEX
8
0
10
427.100000
20
113.300000
0
VERTEX
8
0
10
429.000000
20
113.000000
0
SEQEND
0
POLYLINE
8
0
6
CONTINUOUS
66
1
62
7
10
0.0
20
0.0
30
0.000000
0
VERTEX
8
0
10
535.000000
20
113.000000
0
VERTEX
8
0
10
538.000000
20
116.000000
0
VERTEX
8
0
10
537.200000
20
118.100000
0
VERTEX
8
0
10
537.000000
20
119.000000
0
VERTEX
8
0
10
536.000000
20
120.000000
0
VERTEX
8
0
10
534.000000
20
120.000000
0
VERTEX
8
0
10
532.000000
20
118.000000
0
VERTEX
8
0
10
532.000000
20
116.000000
0
VERTEX
8
0
10
535.000000
20
113.000000
0
SEQEND
0
POLYLINE
8
0
6
CONTINUOUS
66
1
62
7
10
0.0
20
0.0
30
0.000000
0
VERTEX
8
0
10
505.000000
20
110.000000
0
VERTEX
8
0
10
508.000000
20
113.000000
0
VERTEX
8
0
10
508.000000
20
114.000000
0
VERTEX
8
0
10
505.000000
20
117.000000
0
VERTEX
8
0
10
503.000000
20
117.000000
0
VERTEX
8
0
10
501.000000
20
114.000000
0
VERTEX
8
0
10
501.000000
20
112.000000
0
VERTEX
8
0
10
505.000000
20
110.000000
0
SEQEND
0
POLYLINE
8
0
6
CONTINUOUS
66
1
62
7
10
0.0
20
0.0
30
0.000000
0
VERTEX
8
0
10
490.000000
20
108.000000
0
VERTEX
8
0
10
494.000000
20
113.000000
0
VERTEX
8
0
10
494.000000
20
114.000000
0
VERTEX
8
0
10
492.000000
20
116.000000
0
VERTEX
8
0
10
489.000000
20
116.000000
0
VERTEX
8
0
10
487.000000
20
115.000000
0
VERTEX
8
0
10
485.800000
20
113.100000
0
VERTEX
8
0
10
486.000000
20
110.000000
0
VERTEX
8
0
10
487.900000
20
108.800000
0
VERTEX
8
0
10
490.000000
20
108.000000
0
SEQEND
0
POLYLINE
8
0
6
CONTINUOUS
66
1
62
7
10
0.0
20
0.0
30
0.000000
0
VERTEX
8
0
10
474.000000
20
107.000000
0
VERTEX
8
0
10
475.769231
20
109.153846
0
VERTEX
8
0
10
477.000000
20
113.000000
0
VERTEX
8
0
10
474.000000
20
116.000000
0
VERTEX
8
0
10
473.000000
20
116.000000
0
VERTEX
8
0
10
470.000000
20
113.000000
0
VERTEX
8
0
10
471.000000
20
109.000000
0
VERTEX
8
0
10
473.000000
20
107.000000
0
VERTEX
8
0
10
474.000000
20
107.000000
0
SEQEND
0
POLYLINE
8
0
6
CONTINUOUS
66
1
62
7
10
0.0
20
0.0
30
0.000000
0
VERTEX
8
0
10
481.000000
20
103.000000
0
VERTEX
8
0
10
539.940000
20
110.420000
0
VERTEX
8
0
10
569.100000
20
117.800000
0
VERTEX
8
0
10
576.000000
20
121.000000
0
VERTEX
8
0
10
577.000000
20
122.000000
0
VERTEX
8
0
10
575.230769
20
124.153846
0
VERTEX
8
0
10
573.000000
20
133.000000
0
VERTEX
8
0
10
567.060000
20
132.580000
0
VERTEX
8
0
10
555.088235
20
129.647059
0
VERTEX
8
0
10
545.911765
20
127.352941
0
VERTEX
8
0
10
525.000000
20
122.000000
0
VERTEX
8
0
10
524.000000
20
121.000000
0
VERTEX
8
0
10
523.000000
20
112.000000
0
VERTEX
8
0
10
521.000000
20
110.000000
0
VERTEX
8
0
10
517.900000
20
110.800000
0
VERTEX
8
0
10
517.000000
20
111.000000
0
VERTEX
8
0
10
516.000000
20
112.000000
0
VERTEX
8
0
10
516.000000
20
116.000000
0
VERTEX
8
0
10
513.000000
20
119.000000
0
VERTEX
8
0
10
496.026154
20
119.470769
0
VERTEX
8
0
10
444.000000
20
120.000000
0
VERTEX
8
0
10
443.000000
20
119.000000
0
VERTEX
8
0
10
444.200000
20
117.100000
0
VERTEX
8
0
10
446.000000
20
112.000000
0
VERTEX
8
0
10
444.000000
20
110.000000
0
VERTEX
8
0
10
441.900000
20
110.700000
0
VERTEX
8
0
10
440.000000
20
111.000000
0
VERTEX
8
0
10
438.000000
20
113.000000
0
VERTEX
8
0
10
438.000000
20
116.000000
0
VERTEX
8
0
10
441.000000
20
120.000000
0
VERTEX
8
0
10
440.000000
20
121.000000
0
VERTEX
8
0
10
407.911765
20
129.647059
0
VERTEX
8
0
10
391.000000
20
133.000000
0
VERTEX
8
0
10
384.000000
20
122.000000
0
VERTEX
8
0
10
385.000000
20
120.000000
0
VERTEX
8
0
10
390.000000
20
121.000000
0
VERTEX
8
0
10
392.000000
20
123.000000
0
VERTEX
8
0
10
392.000000
20
124.000000
0
VERTEX
8
0
10
395.000000
20
127.000000
0
VERTEX
8
0
10
399.000000
20
127.000000
0
VERTEX
8
0
10
402.000000
20
124.000000
0
VERTEX
8
0
10
400.000000
20
121.000000
0
VERTEX
8
0
10
399.100000
20
120.800000
0
VERTEX
8
0
10
396.000000
20
119.000000
0
VERTEX
8
0
10
397.000000
20
118.000000
0
VERTEX
8
0
10
405.100000
20
115.300000
0
VERTEX
8
0
10
412.900000
20
112.700000
0
VERTEX
8
0
10
445.000000
20
106.000000
0
VERTEX
8
0
10
452.000000
20
107.000000
0
VERTEX
8
0
10
454.000000
20
109.000000
0
VERTEX
8
0
10
454.000000
20
115.000000
0
VERTEX
8
0
10
455.000000
20
116.000000
0
VERTEX
8
0
10
457.000000
20
116.000000
0
VERTEX
8
0
10
460.000000
20
113.000000
0
VERTEX
8
0
10
460.615385
20
109.923077
0
VERTEX
8
0
10
461.000000
20
106.000000
0
VERTEX
8
0
10
463.000000
20
104.000000
0
VERTEX
8
0
10
470.037931
20
103.455172
0
VERTEX
8
0
10
481.000000
20
103.000000
0
SEQEND
0
POLYLINE
8
0
6
CONTINUOUS
66
1
62
7
10
0.0
20
0.0
30
0.000000
0
VERTEX
8
0
10
704.000000
20
597.000000
0
VERTEX
8
0
10
702.195122
20
597.243902
0
VERTEX
8
0
10
671.204918
20
622.245902
0
VERTEX
8
0
10
665.204918
20
627.245902
0
VERTEX
8
0
10
649.846154
20
638.769231
0
VERTEX
8
0
10
627.846154
20
652.769231
0
VERTEX
8
0
10
602.900000
20
665.800000
0
VERTEX
8
0
10
596.900000
20
668.800000
0
VERTEX
8
0
10
558.088235
20
682.352941
0
VERTEX
8
0
10
544.088235
20
685.352941
0
VERTEX
8
0
10
524.962069
20
688.544828
0
VERTEX
8
0
10
514.037931
20
689.455172
0
VERTEX
8
0
10
501.000000
20
691.000000
0
VERTEX
8
0
10
454.000000
20
691.000000
0
VERTEX
8
0
10
444.044554
20
689.554455
0
VERTEX
8
0
10
427.060000
20
687.580000
0
VERTEX
8
0
10
404.100000
20
681.700000
0
VERTEX
8
0
10
384.900000
20
676.300000
0
VERTEX
8
0
10
345.900000
20
659.200000
0
VERTEX
8
0
10
341.100000
20
656.800000
0
VERTEX
8
0
10
309.153846
20
636.769231
0
VERTEX
8
0
10
296.795082
20
627.245902
0
VERTEX
8
0
10
275.000000
20
609.000000
0
VERTEX
8
0
10
263.000000
20
597.000000
0
VERTEX
8
0
10
255.248276
20
587.779310
0
VERTEX
8
0
10
239.240000
20
565.820000
0
VERTEX
8
0
10
236.240000
20
561.820000
0
VERTEX
8
0
10
227.200000
20
547.900000
0
VERTEX
8
0
10
216.200000
20
528.900000
0
VERTEX
8
0
10
206.700000
20
508.100000
0
VERTEX
8
0
10
200.300000
20
490.900000
0
VERTEX
8
0
10
191.384615
20
459.923077
0
VERTEX
8
0
10
185.000000
20
418.000000
0
VERTEX
8
0
10
185.000000
20
373.000000
0
VERTEX
8
0
10
187.439024
20
355.048780
0
VERTEX
8
0
10
190.647059
20
333.911765
0
VERTEX
8
0
10
192.615385
20
325.923077
0
VERTEX
8
0
10
198.200000
20
304.100000
0
VERTEX
8
0
10
206.300000
20
283.100000
0
VERTEX
8
0
10
217.200000
20
260.100000
0
VERTEX
8
0
10
223.800000
20
246.900000
0
VERTEX
8
0
10
239.769231
20
222.846154
0
VERTEX
8
0
10
242.230769
20
219.153846
0
VERTEX
8
0
10
262.249671
20
196.237188
0
VERTEX
8
0
10
296.000000
20
161.000000
0
VERTEX
8
0
10
302.153846
20
157.230769
0
VERTEX
8
0
10
312.153846
20
150.230769
0
VERTEX
8
0
10
339.900000
20
134.800000
0
VERTEX
8
0
10
345.900000
20
131.800000
0
VERTEX
8
0
10
380.100000
20
116.300000
0
VERTEX
8
0
10
394.900000
20
110.800000
0
VERTEX
8
0
10
435.932432
20
102.594595
0
VERTEX
8
0
10
464.932432
20
97.594595
0
VERTEX
8
0
10
466.000000
20
97.000000
0
VERTEX
8
0
10
490.000000
20
97.000000
0
VERTEX
8
0
10
525.951220
20
101.439024
0
VERTEX
8
0
10
566.911765
20
111.352941
0
VERTEX
8
0
10
578.900000
20
115.300000
0
VERTEX
8
0
10
616.900000
20
131.200000
0
VERTEX
8
0
10
629.100000
20
137.800000
0
VERTEX
8
0
10
653.180000
20
153.760000
0
VERTEX
8
0
10
674.776243
20
171.248619
0
VERTEX
8
0
10
684.223757
20
179.751381
0
VERTEX
8
0
10
695.248619
20
190.776243
0
VERTEX
8
0
10
703.751381
20
200.223757
0
VERTEX
8
0
10
723.760000
20
225.180000
0
VERTEX
8
0
10
737.769231
20
248.153846
0
VERTEX
8
0
10
744.200000
20
259.900000
0
VERTEX
8
0
10
755.700000
20
284.100000
0
VERTEX
8
0
10
762.200000
20
300.900000
0
VERTEX
8
0
10
770.352941
20
327.911765
0
VERTEX
8
0
10
772.352941
20
335.911765
0
VERTEX
8
0
10
774.464602
20
360.969027
0
VERTEX
8
0
10
776.000000
20
377.000000
0
VERTEX
8
0
10
776.000000
20
430.000000
0
VERTEX
8
0
10
772.615385
20
446.923077
0
VERTEX
8
0
10
770.352941
20
460.088235
0
VERTEX
8
0
10
760.800000
20
492.900000
0
VERTEX
8
0
10
758.200000
20
499.100000
0
VERTEX
8
0
10
735.200000
20
547.100000
0
VERTEX
8
0
10
711.769231
20
583.846154
0
VERTEX
8
0
10
710.000000
20
586.000000
0
SEQEND
0
POLYLINE
8
0
6
CONTINUOUS
66
1
62
7
10
0.0
20
0.0
30
0.000000
0
VERTEX
8
0
10
421.000000
20
82.000000
0
VERTEX
8
0
10
422.100000
20
82.700000
0
VERTEX
8
0
10
430.000000
20
86.000000
0
VERTEX
8
0
10
433.000000
20
89.000000
0
VERTEX
8
0
10
430.000000
20
93.000000
0
VERTEX
8
0
10
424.000000
20
95.000000
0
VERTEX
8
0
10
419.000000
20
95.000000
0
VERTEX
8
0
10
418.000000
20
94.000000
0
VERTEX
8
0
10
410.923077
20
94.615385
0
VERTEX
8
0
10
407.076923
20
95.384615
0
VERTEX
8
0
10
379.100000
20
110.200000
0
VERTEX
8
0
10
353.911765
20
114.647059
0
VERTEX
8
0
10
349.000000
20
116.000000
0
VERTEX
8
0
10
344.000000
20
123.000000
0
VERTEX
8
0
10
341.100000
20
125.200000
0
VERTEX
8
0
10
338.000000
20
125.000000
0
VERTEX
8
0
10
337.000000
20
124.000000
0
VERTEX
8
0
10
336.594595
20
119.067568
0
VERTEX
8
0
10
335.000000
20
114.000000
0
VERTEX
8
0
10
329.923077
20
111.384615
0
VERTEX
8
0
10
325.000000
20
110.000000
0
VERTEX
8
0
10
322.000000
20
110.000000
0
VERTEX
8
0
10
319.000000
20
112.000000
0
VERTEX
8
0
10
320.300000
20
114.900000
0
VERTEX
8
0
10
320.594595
20
116.067568
0
VERTEX
8
0
10
322.000000
20
126.000000
0
VERTEX
8
0
10
321.200000
20
127.100000
0
VERTEX
8
0
10
319.000000
20
133.000000
0
VERTEX
8
0
10
316.000000
20
136.000000
0
VERTEX
8
0
10
310.911765
20
138.647059
0
VERTEX
8
0
10
306.000000
20
140.000000
0
VERTEX
8
0
10
301.000000
20
137.000000
0
VERTEX
8
0
10
298.000000
20
131.000000
0
VERTEX
8
0
10
298.700000
20
127.900000
0
VERTEX
8
0
10
299.000000
20
126.000000
0
VERTEX
8
0
10
302.000000
20
123.000000
0
VERTEX
8
0
10
303.900000
20
122.700000
0
VERTEX
8
0
10
313.000000
20
120.000000
0
VERTEX
8
0
10
313.000000
20
118.000000
0
VERTEX
8
0
10
310.000000
20
116.000000
0
VERTEX
8
0
10
307.000000
20
116.000000
0
VERTEX
8
0
10
299.100000
20
118.300000
0
VERTEX
8
0
10
292.900000
20
120.800000
0
VERTEX
8
0
10
284.000000
20
127.000000
0
VERTEX
8
0
10
280.000000
20
134.000000
0
VERTEX
8
0
10
286.000000
20
140.000000
0
VERTEX
8
0
10
287.000000
20
140.000000
0
VERTEX
8
0
10
290.000000
20
144.000000
0
VERTEX
8
0
10
288.000000
20
146.000000
0
VERTEX
8
0
10
277.000000
20
149.000000
0
VERTEX
8
0
10
275.000000
20
151.000000
0
VERTEX
8
0
10
282.088235
20
152.647059
0
VERTEX
8
0
10
285.000000
20
153.000000
0
VERTEX
8
0
10
286.200000
20
154.900000
0
VERTEX
8
0
10
285.230769
20
158.153846
0
VERTEX
8
0
10
283.000000
20
161.000000
0
VERTEX
8
0
10
282.153846
20
161.230769
0
VERTEX
8
0
10
268.000000
20
172.000000
0
VERTEX
8
0
10
265.240000
20
176.180000
0
VERTEX
8
0
10
257.200000
20
190.100000
0
VERTEX
8
0
10
257.000000
20
191.000000
0
VERTEX
8
0
10
243.195122
20
204.243902
0
VERTEX
8
0
10
224.000000
20
217.000000
0
VERTEX
8
0
10
224.000000
20
219.000000
0
VERTEX
8
0
10
226.200000
20
221.900000
0
VERTEX
8
0
10
228.000000
20
225.000000
0
VERTEX
8
0
10
225.000000
20
231.000000
0
VERTEX
8
0
10
223.000000
20
232.000000
0
VERTEX
8
0
10
212.000000
20
225.000000
0
VERTEX
8
0
10
208.923077
20
225.615385
0
VERTEX
8
0
10
201.000000
20
228.000000
0
VERTEX
8
0
10
200.000000
20
229.000000
0
VERTEX
8
0
10
201.240000
20
230.820000
0
VERTEX
8
0
10
212.000000
20
246.000000
0
VERTEX
8
0
10
209.200000
20
252.100000
0
VERTEX
8
0
10
203.000000
20
259.000000
0
VERTEX
8
0
10
202.153846
20
259.230769
0
VERTEX
8
0
10
198.000000
20
262.000000
0
VERTEX
8
0
10
193.000000
20
262.000000
0
VERTEX
8
0
10
189.000000
20
258.000000
0
VERTEX
8
0
10
188.000000
20
255.000000
0
VERTEX
8
0
10
188.000000
20
251.000000
0
VERTEX
8
0
10
190.000000
20
247.000000
0
VERTEX
8
0
10
195.900000
20
242.800000
0
VERTEX
8
0
10
199.000000
20
241.000000
0
VERTEX
8
0
10
199.000000
20
240.000000
0
SEQEND
0
POLYLINE
8
0
6
CONTINUOUS
66
1
62
7
10
0.0
20
0.0
30
0.000000
0
VERTEX
8
0
10
536.000000
20
82.000000
0
VERTEX
8
0
10
534.180000
20
83.240000
0
VERTEX
8
0
10
529.000000
20
87.000000
0
VERTEX
8
0
10
528.000000
20
89.000000
0
VERTEX
8
0
10
528.000000
20
90.000000
0
VERTEX
8
0
10
530.000000
20
92.000000
0
VERTEX
8
0
10
549.088235
20
94.647059
0
VERTEX
8
0
10
587.911765
20
112.352941
0
VERTEX
8
0
10
589.020755
20
112.522642
0
VERTEX
8
0
10
611.000000
20
113.000000
0
VERTEX
8
0
10
613.000000
20
115.000000
0
VERTEX
8
0
10
613.700000
20
120.100000
0
VERTEX
8
0
10
614.000000
20
122.000000
0
VERTEX
8
0
10
617.000000
20
125.000000
0
VERTEX
8
0
10
619.000000
20
125.000000
0
VERTEX
8
0
10
621.000000
20
123.000000
0
VERTEX
8
0
10
624.000000
20
117.000000
0
VERTEX
8
0
10
628.900000
20
112.800000
0
VERTEX
8
0
10
637.000000
20
110.000000
0
VERTEX
8
0
10
640.000000
20
110.000000
0
VERTEX
8
0
10
642.000000
20
112.000000
0
VERTEX
8
0
10
640.230769
20
115.153846
0
VERTEX
8
0
10
639.800000
20
115.900000
0
VERTEX
8
0
10
637.000000
20
122.000000
0
VERTEX
8
0
10
639.000000
20
130.000000
0
VERTEX
8
0
10
645.846154
20
136.230769
0
VERTEX
8
0
10
653.000000
20
140.000000
0
VERTEX
8
0
10
656.000000
20
140.000000
0
VERTEX
8
0
10
660.000000
20
138.000000
0
VERTEX
8
0
10
662.800000
20
132.900000
0
VERTEX
8
0
10
664.000000
20
129.000000
0
VERTEX
8
0
10
663.000000
20
125.000000
0
VERTEX
8
0
10
657.100000
20
121.700000
0
VERTEX
8
0
10
656.000000
20
121.000000
0
VERTEX
8
0
10
652.900000
20
121.800000
0
VERTEX
8
0
10
646.000000
20
126.000000
0
VERTEX
8
0
10
644.000000
20
125.000000
0
VERTEX
8
0
10
644.000000
20
123.000000
0
VERTEX
8
0
10
645.900000
20
121.800000
0
VERTEX
8
0
10
656.000000
20
117.000000
0
VERTEX
8
0
10
666.000000
20
118.000000
0
VERTEX
8
0
10
675.200000
20
127.900000
0
VERTEX
8
0
10
679.000000
20
134.000000
0
VERTEX
8
0
10
679.000000
20
136.000000
0
VERTEX
8
0
10
677.180000
20
137.240000
0
VERTEX
8
0
10
673.000000
20
140.000000
0
VERTEX
8
0
10
671.800000
20
141.900000
0
VERTEX
8
0
10
671.000000
20
144.000000
0
VERTEX
8
0
10
673.000000
20
146.000000
0
VERTEX
8
0
10
676.076923
20
146.615385
0
VERTEX
8
0
10
682.800000
20
148.400000
0
VERTEX
8
0
10
686.000000
20
150.000000
0
VERTEX
8
0
10
687.000000
20
152.000000
0
VERTEX
8
0
10
686.000000
20
153.000000
0
VERTEX
8
0
10
673.000000
20
152.000000
0
VERTEX
8
0
10
672.000000
20
154.000000
0
VERTEX
8
0
10
676.000000
20
160.000000
0
VERTEX
8
0
10
690.000000
20
169.000000
0
VERTEX
8
0
10
701.200000
20
185.900000
0
VERTEX
8
0
10
704.760000
20
191.180000
0
VERTEX
8
0
10
714.000000
20
202.000000
0
VERTEX
8
0
10
720.204918
20
206.754098
0
VERTEX
8
0
10
731.100000
20
213.800000
0
VERTEX
8
0
10
732.000000
20
214.000000
0
VERTEX
8
0
10
734.000000
20
218.000000
0
VERTEX
8
0
10
734.000000
20
222.000000
0
VERTEX
8
0
10
733.000000
20
223.000000
0
VERTEX
8
0
10
733.000000
20
227.000000
0
VERTEX
8
0
10
736.000000
20
230.000000
0
VERTEX
8
0
10
739.000000
20
230.000000
0
VERTEX
8
0
10
740.900000
20
228.800000
0
VERTEX
8
0
10
742.900000
20
227.800000
0
VERTEX
8
0
10
748.000000
20
225.000000
0
VERTEX
8
0
10
751.000000
20
225.000000
0
VERTEX
8
0
10
757.900000
20
227.200000
0
VERTEX
8
0
10
761.000000
20
229.000000
0
VERTEX
8
0
10
751.000000
20
242.000000
0
VERTEX
8
0
10
751.000000
20
251.000000
0
VERTEX
8
0
10
751.800000
20
252.100000
0
VERTEX
8
0
10
753.000000
20
255.000000
0
VERTEX
8
0
10
759.000000
20
261.000000
0
VERTEX
8
0
10
763.000000
20
263.000000
0
VERTEX
8
0
10
770.000000
20
261.000000
0
VERTEX
8
0
10
773.000000
20
257.000000
0
VERTEX
8
0
10
773.000000
20
252.000000
0
VERTEX
8
0
10
770.000000
20
246.000000
0
VERTEX
8
0
10
768.153846
20
244.769231
0
VERTEX
8
0
10
762.000000
20
241.000000
0
VERTEX
8
0
10
762.000000
20
240.000000
0
SEQEND
0
POLYLINE
8
0
6
CONTINUOUS
66
1
62
7
10
0.0
20
0.0
30
0.000000
0
VERTEX
8
0
10
422.000000
20
81.000000
0
VERTEX
8
0
10
421.000000
20
82.000000
0
SEQEND
0
POLYLINE
8
0
6
CONTINUOUS
66
1
62
7
10
0.0
20
0.0
30
0.000000
0
VERTEX
8
0
10
536.000000
20
81.000000
0
VERTEX
8
0
10
536.000000
20
82.000000
0
SEQEND
0
POLYLINE
8
0
6
CONTINUOUS
66
1
62
7
10
0.0
20
0.0
30
0.000000
0
VERTEX
8
0
10
419.000000
20
80.000000
0
VERTEX
8
0
10
417.000000
20
80.000000
0
SEQEND
0
POLYLINE
8
0
6
CONTINUOUS
66
1
62
7
10
0.0
20
0.0
30
0.000000
0
VERTEX
8
0
10
419.000000
20
80.000000
0
VERTEX
8
0
10
419.000000
20
81.000000
0
VERTEX
8
0
10
421.000000
20
82.000000
0
SEQEND
0
POLYLINE
8
0
6
CONTINUOUS
66
1
62
7
10
0.0
20
0.0
30
0.000000
0
VERTEX
8
0
10
419.000000
20
80.000000
0
VERTEX
8
0
10
422.000000
20
81.000000
0
SEQEND
0
POLYLINE
8
0
6
CONTINUOUS
66
1
62
7
10
0.0
20
0.0
30
0.000000
0
VERTEX
8
0
10
538.000000
20
80.000000
0
VERTEX
8
0
10
536.000000
20
81.000000
0
SEQEND
0
POLYLINE
8
0
6
CONTINUOUS
66
1
62
7
10
0.0
20
0.0
30
0.000000
0
VERTEX
8
0
10
538.000000
20
80.000000
0
VERTEX
8
0
10
538.000000
20
81.000000
0
VERTEX
8
0
10
536.000000
20
82.000000
0
SEQEND
0
POLYLINE
8
0
6
CONTINUOUS
66
1
62
7
10
0.0
20
0.0
30
0.000000
0
VERTEX
8
0
10
540.000000
20
80.000000
0
VERTEX
8
0
10
538.000000
20
80.000000
0
SEQEND
0
POLYLINE
8
0
6
CONTINUOUS
66
1
62
7
10
0.0
20
0.0
30
0.000000
0
VERTEX
8
0
10
528.000000
20
65.000000
0
VERTEX
8
0
10
530.000000
20
68.000000
0
VERTEX
8
0
10
528.100000
20
69.200000
0
VERTEX
8
0
10
526.153846
20
70.230769
0
VERTEX
8
0
10
520.000000
20
74.000000
0
VERTEX
8
0
10
520.000000
20
77.000000
0
VERTEX
8
0
10
522.000000
20
79.000000
0
VERTEX
8
0
10
529.060000
20
80.580000
0
VERTEX
8
0
10
536.000000
20
81.000000
0
SEQEND
0
POLYLINE
8
0
6
CONTINUOUS
66
1
62
7
10
0.0
20
0.0
30
0.000000
0
VERTEX
8
0
10
526.000000
20
64.000000
0
VERTEX
8
0
10
528.000000
20
65.000000
0
SEQEND
0
POLYLINE
8
0
6
CONTINUOUS
66
1
62
7
10
0.0
20
0.0
30
0.000000
0
VERTEX
8
0
10
529.000000
20
64.000000
0
VERTEX
8
0
10
528.000000
20
65.000000
0
SEQEND
0
POLYLINE
8
0
6
CONTINUOUS
66
1
62
7
10
0.0
20
0.0
30
0.000000
0
VERTEX
8
0
10
529.000000
20
64.000000
0
VERTEX
8
0
10
536.900000
20
67.200000
0
VERTEX
8
0
10
541.000000
20
69.000000
0
VERTEX
8
0
10
559.000000
20
66.000000
0
VERTEX
8
0
10
559.750000
20
66.250000
0
VERTEX
8
0
10
555.000000
20
79.000000
0
VERTEX
8
0
10
557.000000
20
81.000000
0
VERTEX
8
0
10
563.000000
20
75.000000
0
VERTEX
8
0
10
563.000000
20
74.000000
0
VERTEX
8
0
10
565.900000
20
71.800000
0
VERTEX
8
0
10
569.000000
20
70.000000
0
VERTEX
8
0
10
581.000000
20
70.000000
0
VERTEX
8
0
10
590.000000
20
76.000000
0
VERTEX
8
0
10
590.230769
20
76.846154
0
VERTEX
8
0
10
593.000000
20
83.000000
0
VERTEX
8
0
10
592.000000
20
89.000000
0
VERTEX
8
0
10
588.000000
20
92.000000
0
VERTEX
8
0
10
581.000000
20
91.000000
0
VERTEX
8
0
10
579.000000
20
89.000000
0
VERTEX
8
0
10
578.000000
20
78.000000
0
VERTEX
8
0
10
576.000000
20
76.000000
0
VERTEX
8
0
10
574.153846
20
77.230769
0
VERTEX
8
0
10
569.000000
20
81.000000
0
VERTEX
8
0
10
565.000000
20
87.000000
0
VERTEX
8
0
10
565.647059
20
89.088235
0
VERTEX
8
0
10
567.000000
20
94.000000
0
VERTEX
8
0
10
574.000000
20
101.000000
0
VERTEX
8
0
10
576.100000
20
101.800000
0
VERTEX
8
0
10
578.900000
20
103.200000
0
VERTEX
8
0
10
587.000000
20
106.000000
0
VERTEX
8
0
10
590.000000
20
106.000000
0
VERTEX
8
0
10
592.000000
20
104.000000
0
VERTEX
8
0
10
594.000000
20
97.000000
0
VERTEX
8
0
10
597.000000
20
94.000000
0
VERTEX
8
0
10
600.000000
20
94.000000
0
VERTEX
8
0
10
608.900000
20
102.200000
0
VERTEX
8
0
10
610.000000
20
103.000000
0
VERTEX
8
0
10
612.000000
20
102.000000
0
VERTEX
8
0
10
609.800000
20
98.100000
0
VERTEX
8
0
10
608.800000
20
96.100000
0
VERTEX
8
0
10
607.500000
20
93.000000
0
VERTEX
8
0
10
609.000000
20
89.000000
0
VERTEX
8
0
10
614.900000
20
83.800000
0
VERTEX
8
0
10
616.000000
20
83.000000
0
VERTEX
8
0
10
617.000000
20
83.000000
0
VERTEX
8
0
10
619.000000
20
85.000000
0
VERTEX
8
0
10
620.800000
20
90.100000
0
VERTEX
8
0
10
626.000000
20
96.000000
0
VERTEX
8
0
10
654.100000
20
104.700000
0
VERTEX
8
0
10
655.900000
20
105.300000
0
VERTEX
8
0
10
664.820000
20
111.240000
0
VERTEX
8
0
10
668.180000
20
113.760000
0
VERTEX
8
0
10
682.000000
20
127.000000
0
VERTEX
8
0
10
682.230769
20
127.846154
0
VERTEX
8
0
10
693.000000
20
145.000000
0
VERTEX
8
0
10
696.000000
20
146.000000
0
VERTEX
8
0
10
700.000000
20
146.000000
0
VERTEX
8
0
10
701.000000
20
145.000000
0
VERTEX
8
0
10
704.000000
20
145.000000
0
VERTEX
8
0
10
705.900000
20
146.200000
0
VERTEX
8
0
10
709.000000
20
148.000000
0
VERTEX
8
0
10
709.200000
20
148.900000
0
VERTEX
8
0
10
708.230769
20
152.153846
0
VERTEX
8
0
10
702.000000
20
160.000000
0
VERTEX
8
0
10
703.000000
20
162.000000
0
VERTEX
8
0
10
705.000000
20
162.000000
0
VERTEX
8
0
10
713.000000
20
158.000000
0
VERTEX
8
0
10
716.000000
20
158.000000
0
VERTEX
8
0
10
725.000000
20
162.000000
0
VERTEX
8
0
10
728.000000
20
165.000000
0
VERTEX
8
0
10
735.000000
20
177.000000
0
VERTEX
8
0
10
734.200000
20
179.100000
0
VERTEX
8
0
10
729.000000
20
186.000000
0
VERTEX
8
0
10
725.800000
20
187.400000
0
VERTEX
8
0
10
721.000000
20
185.000000
0
VERTEX
8
0
10
718.769231
20
182.153846
0
VERTEX
8
0
10
716.500000
20
178.000000
0
VERTEX
8
0
10
716.800000
20
176.900000
0
VERTEX
8
0
10
722.000000
20
170.000000
0
VERTEX
8
0
10
723.000000
20
170.000000
0
VERTEX
8
0
10
724.000000
20
169.000000
0
VERTEX
8
0
10
723.000000
20
168.000000
0
VERTEX
8
0
10
716.000000
20
168.000000
0
VERTEX
8
0
10
711.100000
20
170.300000
0
VERTEX
8
0
10
708.000000
20
172.000000
0
VERTEX
8
0
10
706.000000
20
176.000000
0
VERTEX
8
0
10
707.700000
20
185.100000
0
VERTEX
8
0
10
709.240000
20
188.820000
0
VERTEX
8
0
10
714.000000
20
195.000000
0
VERTEX
8
0
10
718.100000
20
196.800000
0
VERTEX
8
0
10
722.000000
20
198.000000
0
VERTEX
8
0
10
725.000000
20
196.000000
0
VERTEX
8
0
10
725.000000
20
195.000000
0
VERTEX
8
0
10
727.900000
20
192.800000
0
VERTEX
8
0
10
729.000000
20
192.000000
0
VERTEX
8
0
10
731.100000
20
192.800000
0
VERTEX
8
0
10
732.000000
20
193.000000
0
VERTEX
8
0
10
733.230769
20
194.846154
0
VERTEX
8
0
10
735.615385
20
200.076923
0
VERTEX
8
0
10
737.000000
20
207.000000
0
VERTEX
8
0
10
739.000000
20
209.000000
0
VERTEX
8
0
10
741.000000
20
207.000000
0
VERTEX
8
0
10
741.430769
20
200.053846
0
VERTEX
8
0
10
743.000000
20
196.000000
0
VERTEX
8
0
10
746.900000
20
193.800000
0
VERTEX
8
0
10
748.000000
20
193.000000
0
VERTEX
8
0
10
752.000000
20
193.000000
0
VERTEX
8
0
10
754.000000
20
195.000000
0
VERTEX
8
0
10
754.800000
20
206.100000
0
VERTEX
8
0
10
762.754098
20
216.204918
0
VERTEX
8
0
10
775.756098
20
232.195122
0
VERTEX
8
0
10
780.800000
20
240.100000
0
VERTEX
8
0
10
784.800000
20
247.100000
0
VERTEX
8
0
10
789.700000
20
260.100000
0
VERTEX
8
0
10
792.405405
20
271.932432
0
VERTEX
8
0
10
795.647059
20
312.088235
0
VERTEX
8
0
10
798.000000
20
319.000000
0
VERTEX
8
0
10
799.000000
20
320.000000
0
VERTEX
8
0
10
808.000000
20
322.000000
0
VERTEX
8
0
10
810.000000
20
324.000000
0
VERTEX
8
0
10
810.000000
20
325.000000
0
VERTEX
8
0
10
806.000000
20
329.000000
0
VERTEX
8
0
10
803.900000
20
329.800000
0
VERTEX
8
0
10
803.100000
20
330.200000
0
VERTEX
8
0
10
802.000000
20
331.000000
0
VERTEX
8
0
10
798.000000
20
331.000000
0
VERTEX
8
0
10
793.000000
20
328.000000
0
VERTEX
8
0
10
793.000000
20
327.000000
0
VERTEX
8
0
10
787.000000
20
321.000000
0
VERTEX
8
0
10
785.000000
20
324.000000
0
VERTEX
8
0
10
786.352941
20
329.911765
0
VERTEX
8
0
10
791.200000
20
340.900000
0
VERTEX
8
0
10
792.230769
20
342.846154
0
VERTEX
8
0
10
797.000000
20
349.000000
0
VERTEX
8
0
10
799.000000
20
350.000000
0
VERTEX
8
0
10
800.000000
20
353.000000
0
VERTEX
8
0
10
794.932432
20
354.594595
0
VERTEX
8
0
10
790.000000
20
355.000000
0
VERTEX
8
0
10
788.000000
20
357.000000
0
VERTEX
8
0
10
787.420000
20
361.060000
0
VERTEX
8
0
10
787.000000
20
367.000000
0
SEQEND
0
POLYLINE
8
0
6
CONTINUOUS
66
1
62
7
10
0.0
20
0.0
30
0.000000
0
VERTEX
8
0
10
527.000000
20
63.000000
0
VERTEX
8
0
10
526.000000
20
64.000000
0
SEQEND
0
POLYLINE
8
0
6
CONTINUOUS
66
1
62
7
10
0.0
20
0.0
30
0.000000
0
VERTEX
8
0
10
527.000000
20
63.000000
0
VERTEX
8
0
10
529.000000
20
64.000000
0
SEQEND
0
POLYLINE
8
0
6
CONTINUOUS
66
1
62
7
10
0.0
20
0.0
30
0.000000
0
VERTEX
8
0
10
526.000000
20
64.000000
0
VERTEX
8
0
10
508.000000
20
62.000000
0
VERTEX
8
0
10
496.000000
20
67.000000
0
VERTEX
8
0
10
491.000000
20
74.000000
0
VERTEX
8
0
10
493.000000
20
83.000000
0
VERTEX
8
0
10
496.000000
20
86.000000
0
VERTEX
8
0
10
497.000000
20
86.000000
0
VERTEX
8
0
10
499.000000
20
84.000000
0
VERTEX
8
0
10
498.430769
20
80.946154
0
VERTEX
8
0
10
498.250000
20
73.250000
0
VERTEX
8
0
10
506.100000
20
73.800000
0
VERTEX
8
0
10
509.000000
20
75.000000
0
VERTEX
8
0
10
512.200000
20
78.900000
0
VERTEX
8
0
10
514.000000
20
82.000000
0
VERTEX
8
0
10
512.000000
20
88.000000
0
VERTEX
8
0
10
510.153846
20
89.230769
0
VERTEX
8
0
10
506.000000
20
92.000000
0
VERTEX
8
0
10
498.000000
20
92.000000
0
VERTEX
8
0
10
496.900000
20
91.200000
0
VERTEX
8
0
10
492.000000
20
89.000000
0
VERTEX
8
0
10
489.000000
20
86.000000
0
VERTEX
8
0
10
484.000000
20
76.000000
0
VERTEX
8
0
10
484.000000
20
72.000000
0
VERTEX
8
0
10
485.200000
20
70.100000
0
VERTEX
8
0
10
485.800000
20
68.900000
0
VERTEX
8
0
10
489.000000
20
65.000000
0
VERTEX
8
0
10
493.264706
20
62.441176
0
VERTEX
8
0
10
498.911765
20
60.647059
0
VERTEX
8
0
10
514.000000
20
59.000000
0
VERTEX
8
0
10
515.067568
20
59.594595
0
VERTEX
8
0
10
525.900000
20
62.200000
0
VERTEX
8
0
10
527.000000
20
63.000000
0
SEQEND
0
POLYLINE
8
0
6
CONTINUOUS
66
1
62
7
10
0.0
20
0.0
30
0.000000
0
VERTEX
8
0
10
199.000000
20
240.000000
0
VERTEX
8
0
10
198.000000
20
239.000000
0
VERTEX
8
0
10
193.900000
20
239.700000
0
VERTEX
8
0
10
186.000000
20
243.000000
0
VERTEX
8
0
10
180.240000
20
250.180000
0
VERTEX
8
0
10
176.352941
20
258.088235
0
VERTEX
8
0
10
175.647059
20
260.911765
0
VERTEX
8
0
10
175.000000
20
262.000000
0
VERTEX
8
0
10
175.000000
20
274.000000
0
VERTEX
8
0
10
179.230769
20
284.846154
0
VERTEX
8
0
10
181.000000
20
288.000000
0
VERTEX
8
0
10
184.000000
20
291.000000
0
VERTEX
8
0
10
193.000000
20
291.000000
0
VERTEX
8
0
10
194.000000
20
292.000000
0
VERTEX
8
0
10
192.594595
20
297.932432
0
VERTEX
8
0
10
192.405405
20
299.067568
0
VERTEX
8
0
10
190.000000
20
312.000000
0
VERTEX
8
0
10
183.000000
20
317.000000
0
VERTEX
8
0
10
181.445545
20
325.044554
0
VERTEX
8
0
10
178.554455
20
353.955446
0
VERTEX
8
0
10
176.200000
20
364.100000
0
VERTEX
8
0
10
174.000000
20
370.000000
0
VERTEX
8
0
10
173.000000
20
371.000000
0
VERTEX
8
0
10
172.000000
20
370.000000
0
VERTEX
8
0
10
173.000000
20
358.000000
0
VERTEX
8
0
10
171.000000
20
356.000000
0
VERTEX
8
0
10
161.000000
20
353.000000
0
VERTEX
8
0
10
161.000000
20
352.000000
0
VERTEX
8
0
10
163.000000
20
349.000000
0
VERTEX
8
0
10
164.000000
20
349.000000
0
VERTEX
8
0
10
167.200000
20
345.100000
0
VERTEX
8
0
10
169.200000
20
341.100000
0
VERTEX
8
0
10
172.580000
20
329.940000
0
VERTEX
8
0
10
174.000000
20
321.000000
0
VERTEX
8
0
10
173.000000
20
320.000000
0
VERTEX
8
0
10
166.000000
20
326.000000
0
VERTEX
8
0
10
166.000000
20
327.000000
0
VERTEX
8
0
10
164.000000
20
329.000000
0
VERTEX
8
0
10
161.900000
20
329.700000
0
VERTEX
8
0
10
159.000000
20
331.000000
0
VERTEX
8
0
10
153.000000
20
330.000000
0
VERTEX
8
0
10
149.000000
20
326.000000
0
VERTEX
8
0
10
149.000000
20
323.000000
0
VERTEX
8
0
10
150.000000
20
322.000000
0
VERTEX
8
0
10
152.076923
20
321.384615
0
VERTEX
8
0
10
159.000000
20
320.000000
0
VERTEX
8
0
10
161.000000
20
318.000000
0
VERTEX
8
0
10
162.482759
20
314.793103
0
VERTEX
8
0
10
167.569231
20
279.946154
0
VERTEX
8
0
10
169.420000
20
266.060000
0
VERTEX
8
0
10
174.300000
20
249.100000
0
VERTEX
8
0
10
179.800000
20
236.900000
0
VERTEX
8
0
10
203.769231
20
207.846154
0
VERTEX
8
0
10
204.200000
20
207.100000
0
VERTEX
8
0
10
209.000000
20
193.000000
0
VERTEX
8
0
10
212.000000
20
193.000000
0
VERTEX
8
0
10
216.000000
20
195.000000
0
VERTEX
8
0
10
217.000000
20
196.000000
0
VERTEX
8
0
10
221.000000
20
206.000000
0
VERTEX
8
0
10
222.200000
20
204.100000
0
VERTEX
8
0
10
227.000000
20
196.000000
0
VERTEX
8
0
10
229.846154
20
193.769231
0
VERTEX
8
0
10
232.153846
20
192.230769
0
VERTEX
8
0
10
233.750000
20
192.250000
0
VERTEX
8
0
10
237.000000
20
200.000000
0
VERTEX
8
0
10
241.100000
20
198.300000
0
VERTEX
8
0
10
247.000000
20
196.000000
0
VERTEX
8
0
10
249.000000
20
194.000000
0
VERTEX
8
0
10
255.000000
20
181.000000
0
VERTEX
8
0
10
253.000000
20
173.000000
0
VERTEX
8
0
10
250.000000
20
170.000000
0
VERTEX
8
0
10
245.000000
20
168.000000
0
VERTEX
8
0
10
239.000000
20
168.000000
0
VERTEX
8
0
10
238.000000
20
170.000000
0
VERTEX
8
0
10
241.756098
20
174.195122
0
VERTEX
8
0
10
243.200000
20
178.100000
0
VERTEX
8
0
10
242.800000
20
178.900000
0
VERTEX
8
0
10
239.000000
20
185.000000
0
VERTEX
8
0
10
236.000000
20
187.000000
0
VERTEX
8
0
10
231.000000
20
187.000000
0
VERTEX
8
0
10
227.000000
20
184.000000
0
VERTEX
8
0
10
226.300000
20
181.900000
0
VERTEX
8
0
10
225.000000
20
179.000000
0
VERTEX
8
0
10
225.700000
20
174.900000
0
VERTEX
8
0
10
226.800000
20
171.900000
0
VERTEX
8
0
10
228.000000
20
169.000000
0
VERTEX
8
0
10
232.000000
20
165.000000
0
VERTEX
8
0
10
239.100000
20
160.300000
0
VERTEX
8
0
10
240.900000
20
159.700000
0
VERTEX
8
0
10
245.000000
20
158.000000
0
VERTEX
8
0
10
248.000000
20
158.000000
0
VERTEX
8
0
10
253.846154
20
161.230769
0
VERTEX
8
0
10
256.000000
20
163.000000
0
VERTEX
8
0
10
258.000000
20
163.000000
0
VERTEX
8
0
10
259.000000
20
162.000000
0
VERTEX
8
0
10
257.000000
20
158.000000
0
VERTEX
8
0
10
247.000000
20
149.000000
0
VERTEX
8
0
10
248.000000
20
148.000000
0
VERTEX
8
0
10
259.088235
20
146.352941
0
VERTEX
8
0
10
267.000000
20
143.000000
0
VERTEX
8
0
10
269.000000
20
141.000000
0
VERTEX
8
0
10
282.000000
20
122.000000
0
VERTEX
8
0
10
287.000000
20
117.000000
0
VERTEX
8
0
10
301.900000
20
106.800000
0
VERTEX
8
0
10
307.100000
20
104.300000
0
VERTEX
8
0
10
337.000000
20
94.000000
0
VERTEX
8
0
10
339.000000
20
92.000000
0
VERTEX
8
0
10
340.700000
20
87.900000
0
VERTEX
8
0
10
341.000000
20
86.000000
0
VERTEX
8
0
10
343.000000
20
84.000000
0
VERTEX
8
0
10
345.000000
20
84.000000
0
VERTEX
8
0
10
348.000000
20
87.000000
0
VERTEX
8
0
10
348.594595
20
91.067568
0
VERTEX
8
0
10
349.647059
20
97.088235
0
VERTEX
8
0
10
350.000000
20
100.000000
0
VERTEX
8
0
10
352.000000
20
102.000000
0
VERTEX
8
0
10
353.000000
20
100.000000
0
VERTEX
8
0
10
357.846154
20
95.769231
0
VERTEX
8
0
10
360.000000
20
94.000000
0
VERTEX
8
0
10
364.000000
20
94.000000
0
VERTEX
8
0
10
367.000000
20
97.000000
0
VERTEX
8
0
10
367.000000
20
104.000000
0
VERTEX
8
0
10
369.000000
20
106.000000
0
VERTEX
8
0
10
377.088235
20
104.352941
0
VERTEX
8
0
10
388.000000
20
101.000000
0
VERTEX
8
0
10
391.000000
20
98.000000
0
VERTEX
8
0
10
394.000000
20
91.000000
0
VERTEX
8
0
10
392.647059
20
84.088235
0
VERTEX
8
0
10
391.769231
20
82.153846
0
VERTEX
8
0
10
388.000000
20
77.000000
0
VERTEX
8
0
10
385.000000
20
76.000000
0
VERTEX
8
0
10
383.000000
20
78.000000
0
VERTEX
8
0
10
382.000000
20
89.000000
0
VERTEX
8
0
10
380.000000
20
91.000000
0
VERTEX
8
0
10
373.000000
20
92.000000
0
VERTEX
8
0
10
371.911765
20
91.352941
0
VERTEX
8
0
10
369.000000
20
91.000000
0
VERTEX
8
0
10
366.000000
20
87.000000
0
VERTEX
8
0
10
366.000000
20
81.000000
0
VERTEX
8
0
10
372.000000
20
74.000000
0
VERTEX
8
0
10
376.100000
20
72.200000
0
VERTEX
8
0
10
384.000000
20
69.000000
0
VERTEX
8
0
10
387.100000
20
69.700000
0
VERTEX
8
0
10
403.000000
20
78.000000
0
VERTEX
8
0
10
405.000000
20
76.000000
0
VERTEX
8
0
10
403.230769
20
72.846154
0
VERTEX
8
0
10
402.769231
20
72.153846
0
VERTEX
8
0
10
400.000000
20
68.000000
0
VERTEX
8
0
10
401.000000
20
67.000000
0
VERTEX
8
0
10
409.000000
20
66.000000
0
VERTEX
8
0
10
419.000000
20
70.000000
0
VERTEX
8
0
10
428.900000
20
64.800000
0
VERTEX
8
0
10
432.100000
20
63.200000
0
VERTEX
8
0
10
440.911765
20
59.647059
0
VERTEX
8
0
10
449.000000
20
58.000000
0
VERTEX
8
0
10
461.088235
20
59.647059
0
VERTEX
8
0
10
468.000000
20
62.000000
0
VERTEX
8
0
10
470.230769
20
64.846154
0
VERTEX
8
0
10
473.800000
20
71.100000
0
VERTEX
8
0
10
476.000000
20
76.000000
0
VERTEX
8
0
10
471.000000
20
86.000000
0
VERTEX
8
0
10
466.100000
20
89.200000
0
VERTEX
8
0
10
458.000000
20
92.000000
0
VERTEX
8
0
10
451.000000
20
91.000000
0
VERTEX
8
0
10
447.800000
20
87.100000
0
VERTEX
8
0
10
447.000000
20
86.000000
0
VERTEX
8
0
10
447.000000
20
80.000000
0
VERTEX
8
0
10
449.000000
20
77.000000
0
VERTEX
8
0
10
453.900000
20
73.800000
0
VERTEX
8
0
10
462.000000
20
73.000000
0
VERTEX
8
0
10
463.000000
20
74.000000
0
VERTEX
8
0
10
462.000000
20
82.000000
0
VERTEX
8
0
10
462.000000
20
84.000000
0
VERTEX
8
0
10
464.000000
20
86.000000
0
VERTEX
8
0
10
467.000000
20
83.000000
0
VERTEX
8
0
10
467.000000
20
75.000000
0
VERTEX
8
0
10
465.200000
20
69.900000
0
VERTEX
8
0
10
461.000000
20
64.000000
0
VERTEX
8
0
10
443.000000
20
62.000000
0
VERTEX
8
0
10
433.000000
20
65.000000
0
VERTEX
8
0
10
430.000000
20
68.000000
0
VERTEX
8
0
10
437.000000
20
73.000000
0
VERTEX
8
0
10
439.200000
20
76.900000
0
VERTEX
8
0
10
439.500000
20
78.000000
0
VERTEX
8
0
10
438.000000
20
81.000000
0
VERTEX
8
0
10
422.000000
20
81.000000
0
SEQEND
0
POLYLINE
8
0
6
CONTINUOUS
66
1
62
7
10
0.0
20
0.0
30
0.000000
0
VERTEX
8
0
10
812.000000
20
286.000000
0
VERTEX
8
0
10
811.000000
20
286.000000
0
VERTEX
8
0
10
794.800000
20
252.100000
0
VERTEX
8
0
10
794.200000
20
250.900000
0
VERTEX
8
0
10
776.200000
20
217.900000
0
VERTEX
8
0
10
766.230769
20
202.846154
0
VERTEX
8
0
10
745.243902
20
174.804878
0
VERTEX
8
0
10
731.248276
20
158.779310
0
VERTEX
8
0
10
708.000000
20
135.000000
0
VERTEX
8
0
10
698.820000
20
128.240000
0
VERTEX
8
0
10
670.100000
20
106.800000
0
VERTEX
8
0
10
660.846154
20
101.230769
0
VERTEX
8
0
10
632.900000
20
86.200000
0
VERTEX
8
0
10
626.100000
20
82.800000
0
VERTEX
8
0
10
607.900000
20
74.300000
0
VERTEX
8
0
10
589.100000
20
67.700000
0
VERTEX
8
0
10
557.076923
20
59.615385
0
VERTEX
8
0
10
525.067568
20
53.594595
0
VERTEX
8
0
10
496.000000
20
50.000000
0
VERTEX
8
0
10
462.000000
20
50.000000
0
VERTEX
8
0
10
425.053846
20
54.430769
0
VERTEX
8
0
10
394.900000
20
60.700000
0
VERTEX
8
0
10
377.900000
20
65.700000
0
VERTEX
8
0
10
340.100000
20
81.200000
0
VERTEX
8
0
10
333.900000
20
83.800000
0
VERTEX
8
0
10
306.846154
20
98.769231
0
VERTEX
8
0
10
302.900000
20
100.800000
0
VERTEX
8
0
10
271.804878
20
121.756098
0
VERTEX
8
0
10
238.000000
20
151.000000
0
VERTEX
8
0
10
224.000000
20
165.000000
0
VERTEX
8
0
10
199.230769
20
197.153846
0
VERTEX
8
0
10
188.230769
20
213.153846
0
VERTEX
8
0
10
170.200000
20
245.100000
0
VERTEX
8
0
10
153.800000
20
281.900000
0
VERTEX
8
0
10
149.000000
20
292.000000
0
VERTEX
8
0
10
147.000000
20
291.000000
0
VERTEX
8
0
10
148.647059
20
282.911765
0
VERTEX
8
0
10
149.647059
20
278.911765
0
VERTEX
8
0
10
161.800000
20
248.900000
0
VERTEX
8
0
10
165.800000
20
240.900000
0
VERTEX
8
0
10
176.230769
20
221.153846
0
VERTEX
8
0
10
187.769231
20
202.846154
0
VERTEX
8
0
10
206.247059
20
177.211765
0
VERTEX
8
0
10
211.752941
20
170.788235
0
VERTEX
8
0
10
223.000000
20
158.000000
0
VERTEX
8
0
10
252.000000
20
129.000000
0
VERTEX
8
0
10
261.180000
20
122.240000
0
VERTEX
8
0
10
271.195122
20
114.243902
0
VERTEX
8
0
10
289.153846
20
102.230769
0
VERTEX
8
0
10
295.846154
20
97.769231
0
VERTEX
8
0
10
324.900000
20
81.800000
0
VERTEX
8
0
10
330.100000
20
79.200000
0
VERTEX
8
0
10
360.900000
20
65.700000
0
VERTEX
8
0
10
375.900000
20
60.700000
0
VERTEX
8
0
10
406.911765
20
51.647059
0
VERTEX
8
0
10
412.932432
20
50.594595
0
VERTEX
8
0
10
435.019169
20
48.479233
0
VERTEX
8
0
10
460.018464
20
47.480059
0
VERTEX
8
0
10
528.000000
20
45.000000
0
VERTEX
8
0
10
593.900000
20
62.300000
0
VERTEX
8
0
10
631.900000
20
79.200000
0
VERTEX
8
0
10
639.100000
20
82.800000
0
VERTEX
8
0
10
658.846154
20
93.230769
0
VERTEX
8
0
10
669.100000
20
99.800000
0
VERTEX
8
0
10
689.180000
20
113.760000
0
VERTEX
8
0
10
694.195122
20
117.756098
0
VERTEX
8
0
10
707.767221
20
128.249406
0
VERTEX
8
0
10
738.000000
20
157.000000
0
VERTEX
8
0
10
760.760000
20
185.180000
0
VERTEX
8
0
10
775.760000
20
206.180000
0
VERTEX
8
0
10
795.800000
20
242.100000
0
VERTEX
8
0
10
797.200000
20
244.900000
0
VERTEX
8
0
10
810.594595
20
272.067568
0
VERTEX
8
0
10
812.000000
20
286.000000
0
SEQEND
0
POLYLINE
8
0
6
CONTINUOUS
66
1
62
7
10
0.0
20
0.0
30
0.000000
0
VERTEX
8
0
10
482.000000
20
35.000000
0
VERTEX
8
0
10
521.955446
20
38.445545
0
VERTEX
8
0
10
541.923077
20
42.384615
0
VERTEX
8
0
10
556.923077
20
45.384615
0
VERTEX
8
0
10
591.100000
20
54.700000
0
VERTEX
8
0
10
598.100000
20
56.700000
0
VERTEX
8
0
10
613.900000
20
62.200000
0
VERTEX
8
0
10
619.100000
20
64.800000
0
VERTEX
8
0
10
651.846154
20
80.230769
0
VERTEX
8
0
10
683.100000
20
99.800000
0
VERTEX
8
0
10
715.195122
20
124.756098
0
VERTEX
8
0
10
720.195122
20
128.756098
0
VERTEX
8
0
10
731.249480
20
139.766112
0
VERTEX
8
0
10
755.751131
20
166.226244
0
VERTEX
8
0
10
765.760000
20
179.180000
0
VERTEX
8
0
10
779.760000
20
197.180000
0
VERTEX
8
0
10
797.769231
20
229.153846
0
VERTEX
8
0
10
809.200000
20
251.900000
0
VERTEX
8
0
10
820.594595
20
275.067568
0
VERTEX
8
0
10
821.000000
20
280.000000
0
VERTEX
8
0
10
822.000000
20
281.000000
0
VERTEX
8
0
10
823.900000
20
280.700000
0
VERTEX
8
0
10
841.900000
20
270.800000
0
VERTEX
8
0
10
843.000000
20
270.000000
0
VERTEX
8
0
10
845.000000
20
270.000000
0
VERTEX
8
0
10
847.000000
20
272.000000
0
VERTEX
8
0
10
852.800000
20
289.100000
0
VERTEX
8
0
10
857.230769
20
297.846154
0
VERTEX
8
0
10
865.700000
20
314.100000
0
VERTEX
8
0
10
870.000000
20
332.000000
0
VERTEX
8
0
10
871.900000
20
333.200000
0
VERTEX
8
0
10
891.100000
20
338.700000
0
VERTEX
8
0
10
903.846154
20
345.230769
0
VERTEX
8
0
10
908.783186
20
348.247788
0
VERTEX
8
0
10
925.000000
20
363.000000
0
VERTEX
8
0
10
930.760000
20
371.180000
0
VERTEX
8
0
10
934.300000
20
377.900000
0
VERTEX
8
0
10
935.300000
20
380.900000
0
VERTEX
8
0
10
938.569231
20
394.053846
0
VERTEX
8
0
10
940.000000
20
407.000000
0
VERTEX
8
0
10
934.800000
20
422.900000
0
VERTEX
8
0
10
921.000000
20
442.000000
0
VERTEX
8
0
10
921.569231
20
448.053846
0
VERTEX
8
0
10
923.000000
20
456.000000
0
VERTEX
8
0
10
923.000000
20
461.000000
0
VERTEX
8
0
10
921.000000
20
464.000000
0
VERTEX
8
0
10
914.911765
20
465.647059
0
VERTEX
8
0
10
897.000000
20
469.000000
0
VERTEX
8
0
10
883.000000
20
469.000000
0
VERTEX
8
0
10
881.000000
20
468.000000
0
VERTEX
8
0
10
877.800000
20
464.100000
0
VERTEX
8
0
10
876.208000
20
454.144000
0
VERTEX
8
0
10
874.000000
20
450.000000
0
VERTEX
8
0
10
872.100000
20
449.700000
0
VERTEX
8
0
10
871.000000
20
449.000000
0
VERTEX
8
0
10
864.000000
20
449.000000
0
VERTEX
8
0
10
862.100000
20
450.200000
0
VERTEX
8
0
10
860.000000
20
451.000000
0
VERTEX
8
0
10
853.800000
20
473.900000
0
VERTEX
8
0
10
849.200000
20
483.100000
0
VERTEX
8
0
10
838.000000
20
496.000000
0
VERTEX
8
0
10
828.000000
20
499.000000
0
VERTEX
8
0
10
826.000000
20
501.000000
0
VERTEX
8
0
10
813.200000
20
530.100000
0
VERTEX
8
0
10
803.200000
20
553.100000
0
VERTEX
8
0
10
782.760000
20
588.820000
0
VERTEX
8
0
10
770.230769
20
606.153846
0
VERTEX
8
0
10
755.751381
20
624.776243
0
VERTEX
8
0
10
738.248619
20
644.223757
0
VERTEX
8
0
10
728.223757
20
654.248619
0
VERTEX
8
0
10
708.776243
20
671.751381
0
VERTEX
8
0
10
685.820000
20
689.760000
0
VERTEX
8
0
10
673.820000
20
698.760000
0
VERTEX
8
0
10
655.900000
20
708.800000
0
VERTEX
8
0
10
651.100000
20
711.200000
0
VERTEX
8
0
10
630.900000
20
721.700000
0
VERTEX
8
0
10
603.100000
20
733.200000
0
VERTEX
8
0
10
569.088235
20
743.352941
0
VERTEX
8
0
10
557.088235
20
746.352941
0
VERTEX
8
0
10
536.955446
20
750.554455
0
VERTEX
8
0
10
528.044554
20
751.445545
0
VERTEX
8
0
10
496.000000
20
754.000000
0
VERTEX
8
0
10
468.000000
20
754.000000
0
VERTEX
8
0
10
422.067568
20
749.594595
0
VERTEX
8
0
10
389.911765
20
743.352941
0
VERTEX
8
0
10
358.900000
20
733.300000
0
VERTEX
8
0
10
341.100000
20
726.700000
0
VERTEX
8
0
10
294.846154
20
703.230769
0
VERTEX
8
0
10
290.820000
20
700.240000
0
VERTEX
8
0
10
256.204918
20
673.754098
0
VERTEX
8
0
10
244.795082
20
664.245902
0
VERTEX
8
0
10
211.752212
20
631.216814
0
VERTEX
8
0
10
193.245902
20
609.795082
0
VERTEX
8
0
10
179.230769
20
589.846154
0
VERTEX
8
0
10
176.800000
20
585.100000
0
VERTEX
8
0
10
149.300000
20
531.900000
0
VERTEX
8
0
10
148.200000
20
528.900000
0
VERTEX
8
0
10
136.000000
20
502.000000
0
VERTEX
8
0
10
133.000000
20
499.000000
0
VERTEX
8
0
10
130.900000
20
498.300000
0
VERTEX
8
0
10
123.180000
20
494.760000
0
VERTEX
8
0
10
119.820000
20
492.240000
0
VERTEX
8
0
10
114.000000
20
487.000000
0
VERTEX
8
0
10
110.230769
20
480.846154
0
VERTEX
8
0
10
108.800000
20
478.100000
0
VERTEX
8
0
10
104.405405
20
462.932432
0
VERTEX
8
0
10
102.000000
20
452.000000
0
VERTEX
8
0
10
100.100000
20
450.800000
0
VERTEX
8
0
10
97.000000
20
449.000000
0
VERTEX
8
0
10
90.000000
20
449.000000
0
VERTEX
8
0
10
85.000000
20
452.000000
0
VERTEX
8
0
10
84.450820
20
454.040984
0
VERTEX
8
0
10
84.000000
20
464.000000
0
VERTEX
8
0
10
81.153846
20
466.230769
0
VERTEX
8
0
10
74.000000
20
469.000000
0
VERTEX
8
0
10
64.000000
20
469.000000
0
VERTEX
8
0
10
50.067568
20
466.594595
0
VERTEX
8
0
10
42.000000
20
464.000000
0
VERTEX
8
0
10
41.000000
20
463.000000
0
VERTEX
8
0
10
40.000000
20
457.000000
0
VERTEX
8
0
10
41.000000
20
456.000000
0
VERTEX
8
0
10
40.420000
20
446.940000
0
VERTEX
8
0
10
39.294118
20
441.176471
0
VERTEX
8
0
10
34.754098
20
434.204918
0
VERTEX
8
0
10
26.200000
20
422.900000
0
VERTEX
8
0
10
24.800000
20
420.100000
0
VERTEX
8
0
10
22.000000
20
412.000000
0
VERTEX
8
0
10
22.000000
20
395.000000
0
VERTEX
8
0
10
23.405405
20
389.067568
0
VERTEX
8
0
10
23.647059
20
387.911765
0
VERTEX
8
0
10
27.200000
20
378.100000
0
VERTEX
8
0
10
27.800000
20
376.900000
0
VERTEX
8
0
10
36.000000
20
363.000000
0
VERTEX
8
0
10
49.000000
20
350.000000
0
VERTEX
8
0
10
55.153846
20
346.230769
0
VERTEX
8
0
10
58.153846
20
344.230769
0
VERTEX
8
0
10
68.100000
20
340.300000
0
VERTEX
8
0
10
71.100000
20
339.200000
0
VERTEX
8
0
10
88.076923
20
335.384615
0
VERTEX
8
0
10
104.000000
20
333.000000
0
VERTEX
8
0
10
106.000000
20
331.000000
0
VERTEX
8
0
10
99.900000
20
327.200000
0
VERTEX
8
0
10
95.000000
20
325.000000
0
VERTEX
8
0
10
92.000000
20
322.000000
0
VERTEX
8
0
10
106.230769
20
293.153846
0
VERTEX
8
0
10
108.200000
20
290.100000
0
VERTEX
8
0
10
117.000000
20
275.000000
0
VERTEX
8
0
10
120.000000
20
274.000000
0
VERTEX
8
0
10
137.000000
20
281.000000
0
VERTEX
8
0
10
140.000000
20
279.000000
0
VERTEX
8
0
10
154.800000
20
246.900000
0
VERTEX
8
0
10
156.300000
20
243.100000
0
VERTEX
8
0
10
164.200000
20
228.100000
0
VERTEX
8
0
10
165.200000
20
226.100000
0
VERTEX
8
0
10
185.230769
20
193.153846
0
VERTEX
8
0
10
194.760000
20
179.820000
0
VERTEX
8
0
10
205.248619
20
166.223757
0
VERTEX
8
0
10
213.751381
20
156.776243
0
VERTEX
8
0
10
240.000000
20
130.000000
0
VERTEX
8
0
10
246.204918
20
125.245902
0
VERTEX
8
0
10
253.211765
20
119.247059
0
VERTEX
8
0
10
282.153846
20
98.230769
0
VERTEX
8
0
10
308.153846
20
82.230769
0
VERTEX
8
0
10
345.100000
20
63.300000
0
VERTEX
8
0
10
371.900000
20
53.700000
0
VERTEX
8
0
10
410.923077
20
43.615385
0
VERTEX
8
0
10
418.911765
20
41.647059
0
VERTEX
8
0
10
454.955446
20
36.554455
0
VERTEX
8
0
10
482.000000
20
35.000000
0
SEQEND
0
ENDSEC
0
EOF
